<svg width="32" height="32" viewBox="0 0 32 32" fill="none" xmlns="http://www.w3.org/2000/svg">
<path fill-rule="evenodd" clip-rule="evenodd" d="M0 16C0 7.1632 7.1632 0 16 0C24.8368 0 32 7.1632 32 16C32 24.8368 24.8368 32 16 32C7.1632 32 0 24.8368 0 16ZM16 3.2C12.6052 3.2 9.3495 4.54857 6.94903 6.94903C4.54857 9.3495 3.2 12.6052 3.2 16C3.2 19.3948 4.54857 22.6505 6.94903 25.051C9.3495 27.4514 12.6052 28.8 16 28.8C19.3948 28.8 22.6505 27.4514 25.051 25.051C27.4514 22.6505 28.8 19.3948 28.8 16C28.8 12.6052 27.4514 9.3495 25.051 6.94903C22.6505 4.54857 19.3948 3.2 16 3.2Z" fill="#1E40AF"/>
<path fill-rule="evenodd" clip-rule="evenodd" d="M17.5999 8.00005C17.5999 7.5757 17.4313 7.16873 17.1313 6.86868C16.8312 6.56862 16.4242 6.40005 15.9999 6.40005C15.5756 6.40005 15.1686 6.56862 14.8685 6.86868C14.5685 7.16873 14.3999 7.5757 14.3999 8.00005V14.4H7.9999C7.57556 14.4 7.16859 14.5686 6.86853 14.8687C6.56847 15.1687 6.3999 15.5757 6.3999 16C6.3999 16.4244 6.56847 16.8314 6.86853 17.1314C7.16859 17.4315 7.57556 17.6 7.9999 17.6H14.3999V24C14.3999 24.4244 14.5685 24.8314 14.8685 25.1314C15.1686 25.4315 15.5756 25.6 15.9999 25.6C16.4242 25.6 16.8312 25.4315 17.1313 25.1314C17.4313 24.8314 17.5999 24.4244 17.5999 24V17.6H23.9999C24.4242 17.6 24.8312 17.4315 25.1313 17.1314C25.4313 16.8314 25.5999 16.4244 25.5999 16C25.5999 15.5757 25.4313 15.1687 25.1313 14.8687C24.8312 14.5686 24.4242 14.4 23.9999 14.4H17.5999V8.00005Z" fill="#1E40AF"/>
</svg>
