<svg width="24" height="24" viewBox="0 0 24 24" fill="none" xmlns="http://www.w3.org/2000/svg">
<path d="M4.80005 4.8C4.80005 4.16348 5.05291 3.55303 5.50299 3.10294C5.95308 2.65286 6.56353 2.4 7.20005 2.4H16.8C17.4366 2.4 18.047 2.65286 18.4971 3.10294C18.9472 3.55303 19.2 4.16348 19.2 4.8V11.0484C18.0696 10.7275 16.8739 10.7142 15.7366 11.0099C14.5993 11.3056 13.5616 11.8996 12.7306 12.7306C11.8997 13.5615 11.3057 14.5993 11.0099 15.7366C10.7142 16.8739 10.7275 18.0695 11.0484 19.2H6.00005C6.00005 19.5183 6.12648 19.8235 6.35152 20.0485C6.57656 20.2736 6.88179 20.4 7.20005 20.4H11.52C11.7408 20.8304 12.0036 21.2304 12.3084 21.6H7.20005C6.56353 21.6 5.95308 21.3471 5.50299 20.8971C5.05291 20.447 4.80005 19.8365 4.80005 19.2V4.8ZM17.4 22.8C18.8322 22.8 20.2057 22.2311 21.2184 21.2184C22.2311 20.2057 22.8 18.8322 22.8 17.4C22.8 15.9678 22.2311 14.5943 21.2184 13.5816C20.2057 12.5689 18.8322 12 17.4 12C15.9679 12 14.5944 12.5689 13.5817 13.5816C12.569 14.5943 12 15.9678 12 17.4C12 18.8322 12.569 20.2057 13.5817 21.2184C14.5944 22.2311 15.9679 22.8 17.4 22.8ZM17.4 14.4C17.5592 14.4 17.7118 14.4632 17.8243 14.5757C17.9368 14.6883 18 14.8409 18 15V16.8H19.8C19.9592 16.8 20.1118 16.8632 20.2243 16.9757C20.3368 17.0883 20.4 17.2409 20.4 17.4C20.4 17.5591 20.3368 17.7117 20.2243 17.8243C20.1118 17.9368 19.9592 18 19.8 18H18V19.8C18 19.9591 17.9368 20.1117 17.8243 20.2243C17.7118 20.3368 17.5592 20.4 17.4 20.4C17.2409 20.4 17.0883 20.3368 16.9758 20.2243C16.8633 20.1117 16.8 19.9591 16.8 19.8V18H15C14.8409 18 14.6883 17.9368 14.5758 17.8243C14.4633 17.7117 14.4 17.5591 14.4 17.4C14.4 17.2409 14.4633 17.0883 14.5758 16.9757C14.6883 16.8632 14.8409 16.8 15 16.8H16.8V15C16.8 14.8409 16.8633 14.6883 16.9758 14.5757C17.0883 14.4632 17.2409 14.4 17.4 14.4ZM8.10005 4.8C7.86135 4.8 7.63244 4.89482 7.46365 5.0636C7.29487 5.23239 7.20005 5.4613 7.20005 5.7V6.3C7.20005 6.7968 7.60325 7.2 8.10005 7.2H15.9C16.1387 7.2 16.3677 7.10518 16.5364 6.9364C16.7052 6.76761 16.8 6.53869 16.8 6.3V5.7C16.8 5.4613 16.7052 5.23239 16.5364 5.0636C16.3677 4.89482 16.1387 4.8 15.9 4.8H8.10005Z" fill="white"/>
</svg>
