<svg width="300" height="32" viewBox="0 0 300 32" fill="none" xmlns="http://www.w3.org/2000/svg">
<path d="M257.598 23.7396C252.817 18.5423 246.898 16.7953 240.427 17.3637C242.224 19.1563 244.268 20.9979 246.05 23.0654C246.802 23.9373 247.283 25.2589 247.391 26.4223C247.608 28.7376 246.002 30.5431 243.707 31C241.676 31.4045 239.559 30.263 238.718 28.3093C237.838 26.2638 238.457 24.0182 240.267 22.7246C240.577 22.5025 240.913 22.3155 241.434 21.989C237.777 19.0809 233.846 17.4681 229.348 17.3043C228.386 17.2693 227.421 17.3714 226.458 17.3715C174.49 17.3753 122.523 17.3735 70.5561 17.3772C66.0609 17.3775 62.2609 19.1842 58.5638 21.9341C60.8986 23.2974 62.1642 25.0224 61.5287 27.6102C61.0421 29.5913 59.6745 30.7154 57.7176 31.0157C55.8826 31.2973 54.3548 30.5847 53.3023 29.058C52.2005 27.4599 52.0641 25.6218 53.2066 24.1212C54.6671 22.2029 56.4693 20.5425 58.1509 18.7968C58.5247 18.4086 59.0097 18.1278 59.7127 17.5926C55.9854 17.0079 52.7127 17.405 49.5491 18.7398C46.3067 20.1078 43.435 21.966 41.4772 24.9996C40.9448 25.8245 40.2623 26.5122 39.2558 25.8173C38.2786 25.1427 38.5233 24.1602 39.1803 23.4442C40.7031 21.7847 42.3148 20.2052 43.9235 18.627C44.3418 18.2164 44.8814 17.9295 45.6123 17.4104C39.5373 16.8329 34.3828 18.1956 29.6973 21.9278C30.1785 22.2334 30.5036 22.4197 30.8074 22.6358C32.9296 24.1452 33.4831 26.8105 32.1237 28.9432C30.8496 30.942 28.2404 31.6424 26.1422 30.5491C23.9291 29.3958 22.7765 26.5671 24.196 24.4579C25.6828 22.2487 27.7836 20.4513 29.6309 18.4879C29.8917 18.2107 30.2367 18.0125 30.5427 17.7778C30.524 17.6142 30.5053 17.4506 30.4866 17.287C28.4027 17.3951 26.2599 17.2307 24.2468 17.6661C19.4706 18.6989 15.2832 20.8439 12.4795 25.0905C11.9669 25.867 11.3015 26.4542 10.3684 25.8533C9.36607 25.2077 9.53865 24.2357 10.2008 23.5011C12.039 21.4619 13.9667 19.5034 15.8836 17.4872C15.6541 17.4645 15.2005 17.3821 14.7467 17.3811C10.5485 17.371 6.35019 17.364 2.15206 17.3823C1.10473 17.3869 0.0462195 17.2489 0.00162141 16.0124C-0.0491093 14.6059 1.09957 14.5409 2.1877 14.5436C6.88127 14.5552 11.5749 14.5486 16.4789 14.5486C14.98 13.2981 13.5408 12.3058 12.3696 11.0613C11.2178 9.83743 10.2413 8.41678 9.36107 6.97655C7.99234 4.7371 8.77352 1.88383 10.9667 0.615737C13.0667 -0.59845 15.7836 0.0531532 17.1135 2.08988C18.5456 4.28315 17.9584 7.00564 15.7225 8.49865C15.3558 8.74343 14.9627 8.94853 14.4158 9.26936C19.141 13.4717 24.4945 15.1613 30.6193 14.4481C29.0077 12.9475 27.3649 11.4564 25.7735 9.91245C25.2922 9.44549 24.7702 8.88286 24.5996 8.27124C24.4199 7.62737 24.6386 6.8724 24.6833 6.16598C25.4134 6.36019 26.4928 6.31339 26.819 6.78625C29.7409 11.0208 33.9043 13.2678 38.764 14.2668C40.8428 14.6942 43.0416 14.5382 45.3334 14.3165C44.8612 13.9806 44.3964 13.6337 43.9157 13.3105C41.4123 11.6275 39.5279 9.39042 38.112 6.75421C36.9136 4.52282 37.7452 1.8116 39.9498 0.584776C42.0622 -0.590721 44.7974 0.111627 46.071 2.15662C47.4028 4.29508 46.7956 7.02946 44.6713 8.43764C44.2976 8.68533 43.91 8.91187 43.5254 9.15021C45.7552 12.1197 52.9976 15.6456 59.4405 14.3838C57.7763 12.7869 55.9655 11.1958 54.3449 9.43015C53.5844 8.60142 52.2056 7.43013 53.6027 6.26273C55.0963 5.01472 55.6912 6.7279 56.4335 7.63044C60.0653 12.0462 64.7686 14.5078 70.4498 14.5141C123.438 14.5723 176.426 14.5732 229.415 14.5147C235.425 14.508 240.359 11.9127 243.985 7.05443C244.644 6.17172 245.33 5.50303 246.34 6.19886C247.445 6.96009 246.895 7.9615 246.22 8.68841C244.393 10.6569 242.489 12.5538 240.639 14.4546C246.608 15.1745 251.961 13.4494 256.67 9.25577C256.059 8.88706 255.55 8.63372 255.101 8.29958C253.129 6.83205 252.669 4.13192 254.016 2.07496C255.348 0.0398543 258.122 -0.611791 260.165 0.630366C262.275 1.913 263.069 4.54884 261.926 6.71294C260.251 9.88377 257.858 12.4022 254.638 14.2548C260.798 15.7601 268.961 12.5882 272.774 7.31571C272.94 7.08627 273.039 6.7033 273.25 6.6314C273.91 6.40686 274.61 6.29748 275.294 6.14346C275.388 6.80146 275.805 7.72411 275.52 8.07284C274.096 9.81636 272.508 11.4299 270.93 13.0425C270.471 13.5109 269.855 13.825 269.058 14.3893C275.534 15.1795 280.88 13.455 285.636 9.23586C283.854 8.38312 282.515 7.31135 282.205 5.38272C281.886 3.40185 282.864 1.45203 284.622 0.538687C286.433 -0.402043 288.478 -0.0892694 289.947 1.35274C291.388 2.76858 291.762 4.81561 290.844 6.67305C289.243 9.91261 286.766 12.3512 283.342 14.4155C284.185 14.4789 284.644 14.5427 285.104 14.5436C289.359 14.5514 293.614 14.5611 297.869 14.5395C298.921 14.5342 299.946 14.6609 299.998 15.9192C300.054 17.2812 298.953 17.2924 297.94 17.2917C293.632 17.2886 289.324 17.2987 285.017 17.3038C284.579 17.3043 284.141 17.3038 283.503 17.3038C285.143 18.7276 286.655 19.9652 288.073 21.302C288.766 21.9556 289.469 22.7177 289.823 23.5733C290.08 24.1964 290.057 25.3185 289.655 25.7482C288.9 26.5563 288.1 25.9193 287.581 25.1464C284.831 21.0487 280.841 18.7755 276.164 17.7641C273.875 17.2691 271.457 17.373 269.263 17.2176C271.253 19.2444 273.379 21.1686 275.206 23.3432C276.745 25.1752 276.742 27.4203 275.558 29.0256C274.433 30.5521 272.906 31.3725 270.983 31.0005C269.109 30.638 267.814 29.4901 267.319 27.615C266.823 25.7316 267.438 24.1531 268.882 22.8883C269.215 22.5963 269.605 22.368 269.967 22.1116C267.936 19.0685 261.306 16.999 254.529 17.3555C254.994 17.749 255.316 17.9911 255.602 18.2697C257.341 19.9588 259.111 21.6191 260.788 23.3676C261.523 24.1334 261.774 25.1449 260.68 25.8416C259.633 26.5085 259.025 25.71 258.485 24.9241C258.228 24.5511 257.945 24.1966 257.598 23.7396ZM26.4556 26.5639C26.66 27.8388 27.4252 28.5983 28.6553 28.1409C29.2808 27.9084 29.9838 26.9905 30.0195 26.3475C30.0481 25.8309 29.2174 24.9761 28.604 24.7771C27.45 24.4029 26.6892 25.0943 26.4556 26.5639ZM256.043 5.0229C256.486 6.13033 257.336 6.71311 258.433 6.25039C258.971 6.0231 259.601 5.16844 259.564 4.64177C259.52 4.02478 258.905 3.10932 258.346 2.93352C256.905 2.48057 256.189 3.40418 256.043 5.0229ZM270.422 27.7069C271.325 28.5417 272.368 28.6286 273.039 27.6332C273.4 27.0977 273.444 25.8954 273.077 25.4474C272.693 24.9777 271.505 24.7148 270.919 24.9601C269.872 25.398 269.584 26.4208 270.422 27.7069ZM43.1395 3.09024C42.0424 2.43615 41.0265 2.73442 40.6192 3.80211C40.3877 4.40879 40.658 5.6135 41.1349 5.9697C41.614 6.32757 42.832 6.24623 43.3666 5.85986C44.3368 5.15864 44.2136 4.11222 43.1395 3.09024ZM244.524 27.3235C244.949 26.1295 244.677 25.0674 243.419 24.8143C242.794 24.6888 241.738 25.1743 241.387 25.7146C241.103 26.1501 241.36 27.2774 241.774 27.7535C242.578 28.6794 243.568 28.4318 244.524 27.3235ZM284.941 5.01056C285.251 5.39872 285.507 6.03964 285.882 6.11877C286.523 6.25413 287.384 6.24732 287.878 5.90445C288.294 5.61616 288.611 4.65926 288.441 4.19006C288.241 3.63654 287.522 3.01822 286.937 2.90792C285.641 2.66364 284.979 3.46286 284.941 5.01056ZM12.7707 6.33513C14.5447 6.28035 15.5489 5.3198 14.9318 4.12003C14.6278 3.52923 13.8503 2.95372 13.2063 2.84334C12.7471 2.76471 11.9404 3.3556 11.6646 3.85514C11.1273 4.82832 11.5741 5.68411 12.7707 6.33513ZM56.6805 24.7166C55.4627 25.0935 55.0112 26.0336 55.4859 27.0786C55.7407 27.6396 56.7623 28.3046 57.2647 28.1864C57.8923 28.0387 58.676 27.1946 58.7953 26.542C59.0128 25.3526 58.2022 24.6853 56.6805 24.7166Z" fill="#16A34A"/>
</svg>
