<svg width="400" height="400" viewBox="0 0 400 400" fill="none" xmlns="http://www.w3.org/2000/svg">
<path d="M216 22.25H219.75L226.5 23L237 24.5L255 27.5L259.25 28L282.5 28.25L286.5 28.5L289.75 29.25L291 30L291.5 31V33.25L291.25 35.75L295 37L305.75 39.5L311.75 41.5L319.5 44.75L323 46.75L326.25 49.25L328 51.25L329.25 53.5V55L328.25 56.5L326.25 57.75L321 59.5L322.5 61.25L324.5 63.25V63.75H325L326.75 65.75L329.25 68.25L331 70.25L334.5 73.75L336.5 75.5L339.75 78.25L342.25 80.25L345 82.5L349 85.5L354 88.75L356.5 90.25L362.25 93L366.25 95L372.5 98.5L376 101L379.75 104.5L382.25 107.75L384.25 111.75L384.75 113.5L385 118L384.75 124.5L383.75 128.25L382 132.25L379.5 136L377.25 138.75L374.5 141.75L371 144.5L366.25 147.5L364.25 148.75L364.75 150L366 153.5L366.25 156.25L365.75 158.75L364.75 160.75L362.75 162.25L360.5 163L356 163.75H347.75L341.75 163.5L343.25 167V169.5L342.25 171.5L340.5 173.75L338 175L336.75 175.25H331.25L325.5 174.25L316.5 172L298.5 166.75L290.75 164.75L287.75 164.25H281.75L277.75 165.25L273 167.25V168L275 169L281.5 171L283.75 172L284 173.5L284.25 174.75L287.75 176.75L290.75 179.5L292.5 181.5L292.75 183.5L291.75 185L291 185.75L291.25 187.5L293.25 192L295.5 195.75L297.75 198.5L300 201L302.25 204L303.25 206.25L303.5 208.5L302.75 211.75L301.5 214L299.25 216.5L295.75 218.5L294.5 219.5L293.5 222L292.25 223.25H289.25L287.25 223L286 224.25L284.75 225.25L284 225.5H282.25L278.25 223.5L274 220.5L270.5 218.25L268.25 217.5L266.5 217.75L263.5 219L259.25 220.75H258.75L258.25 221.75L256.5 224.5L249 239.5L248.75 240.5V251.25L249.5 268.5L250 274.25L251.75 280.75L252.25 283.75V288L251.25 291.75L250.75 293.25V303.75L251.5 315L253 329L255 343.25L257.25 356.5L258 359L258.75 360L260 359.75L261.5 357.5L262.75 353.5L263.25 353.75V357.25L263.75 360.75L263.25 366.25L269.75 363.25H270.25L269.5 362L267.5 360L266.5 358.25V357L267.5 356.5H269L271.25 358L272 359.75L272.25 361H273L273.5 358.75L272.5 357.25L268.5 354.25L267.75 353.25L267.5 352.25L268.5 351L270.75 351.25L272.75 352.5L273.5 354.25H274.25L274.75 353L274.5 352L272.25 350.5L269.25 349L268 348L267.75 346.75L269 345.5H271L273.25 346.75L275 349.5L276 349.25L278 346L279.5 344.75L281.75 344.5L282.75 345.5L283 346.5L283.75 346L286.25 346.25L288 347.25L289 349.25L289.5 352.25H290.25L291 349.75L290.75 348L288.5 345.75L286.5 344.25L284.75 342V340.25L285.5 339.75H288.25L290 340.5L291 341.75L292.25 345L293.25 346.25L297 342.5L298.5 341.75H301.25L302.75 343L302.5 344.75L301 346.75L299.25 347.75L293.75 348.75L292.75 349.25L291.25 351.75L290.75 352.5H290.25L290 353.75L294.5 350.75L295.75 350.25H298.25L299.75 351L300.25 351.75L300 353.5L298.5 355.25L296.75 356L289.5 356.25L289.25 357L290.5 357.25L289.75 357.75L288.5 358.25L287 359.5L286.5 360.5L290.5 358.5L291.75 358H293.5L295.25 358.75L296.5 360L296.25 361.5L295.25 363L293.25 363.75H290L285.75 363.25V362.75L284.25 363.5L282.75 365.25L282 366L283.75 365.75L285.25 363.75L286 364L286.25 365L289.25 365.5L291.25 366.75L292.75 367L293.25 365.5L294 365.25L295.25 367.75L296 368.25L307.5 368.5L309.25 368.75L308.5 367.5L307.25 366V364.75L308.75 365.25L310 366.25V366.75L311.5 367.25L312.25 366.5L309.75 365L308 363.75L307.75 362.25L309.25 362.5L311.5 364.25L312.5 364L314 362.25L313 362.5H311.25L308.25 361L308 359.75L310 360L312.5 361L313.5 359.75L315 358.5H315.75V360.5L315 361.75V362.25L316.5 363.25L318 365.25V366.5L320 365.75L322.25 365.5L323.5 366L323.25 367.25L322 369.5L319.75 368.5L316.75 367.75L316 367L315.5 365.25L314.5 365L314.75 366.25L315.25 367.25L315.5 369.5L316 369.75V368.25L318.75 368.75L320.5 369.5L320.75 370.75L319.25 371.75L316.5 371.5L315.5 371.25H313.75L311.75 372.5H311L311.25 371.75L312.5 371L312 370.75L308.5 371.5L302 372.5L298.75 373.25L297.75 374L298.5 374.75L300.25 375.5L305.75 376.5L304.75 377L294.75 377.5L276.75 378L267 378.5L266.25 378.75L265.25 380.5L263 380.75L250.75 381L238.5 382L230.25 382.75H228.25L228.5 382L230.75 381L229.25 380.75L228 380L225.5 379.75L214.75 380.5L195 382L191.25 382.25L170 382.75H153.5L151.5 382.5H149L149.25 382L151.25 381.5V380L150.25 379.5L145.5 379.25L141.25 378.5L139 378L137.25 377.5L130.75 377H125.25L118.5 377.25L113 377.75L110.25 378.25L106.75 378.5H100L83 377.5L70.5 376.75L66.5 376.25L67.25 375.75L71 374.5L72.5 373.5H73V373L65 372.5L57.75 372.25L21.75 371.5L18.5 371.25L19.25 370.75L24.5 369.5H26.75L26 367.25L27 366.5L28.75 366L28.5 365.5L24.5 365.25L23.25 364.25L23.75 363.25L24.75 362.25V362L22 361.25L21.25 360.25L21.5 359H25.5L24.75 358.25L21 357.5L20.25 356.75L20 355.25L21.5 354.75L21.25 353.75L19.75 352.5L19.25 351.75L19.5 350.5L20.5 350.25L22 351L23.5 352.25L24.75 353.5L25.25 352L27 350.5L28.75 350.75L29.5 351.75L30.5 351.5L31.25 350.75L32.5 350.25L33 349.25H34L35.25 350.5L36 351.75H36.5V349.5L37.75 347L38.75 346.5L39.75 346.75L40 347.75L38.25 350.25L37.75 351.25L39.75 351.75L40.25 352.75L40 353L37.5 353.25L38 354L39.25 354.75L39 355.5L37.75 356L38 356.75L38.75 357.25L38.5 358L38 358.25V359.25L38.75 359.5L39 360.25L38 361.25L37.75 362H39.25L39.75 362.75L39.25 364V365.5L40.5 365.75H43.25L43.75 365V363L44.5 363.25L45.25 364.75L45.75 365.25H47.25L48.5 364L49.25 361.25L49.75 361.75L51 364.75L52.25 366L54.25 365.25L58.75 362L59.5 362.25L58.75 367L61.25 366.5L63.5 365.25L64.5 365.5L66 367.5L68.25 367L71.75 365.75L72.75 366.25L73.5 368.75H78.5L82.25 368.25L82.75 367.5L81.75 366.5L77 365L75.25 363.75L74.25 359.75L73.25 353L70.75 346L70 342.5V340.25L71 336.5L72.25 333.5L74.25 330L75.25 328.75L76.25 329.25L79.5 336.5L81.5 341L83 343.25L85.75 346.25L87.75 348.25L89.25 349H91.25L93.25 348.25L99.5 344.5L102.25 342.5L103.5 342.75L104.5 343.75L105.5 343.5L109 340.5L113.25 336.5L133 316.75L135.75 314.75L137.5 314.25L143.75 315.75L161.75 321.75L165.25 322.5L165.5 322L167 321.75L171 323L178 325.25L186 327.25H187L188.25 324.25L187 323.25L183.5 320.75L181.75 319.25L179.75 316.75L177 312.25L175 308.5L174.25 305.75L175.5 307L177.5 311L179.5 314.5L182 318L184 319.75L187.75 322.25L188.25 322.75H189L189.5 321.25L187.25 321L184.75 319.5L183 317.75L183.25 316.25L183 315.25L182.75 313.75L182.5 313L181.5 312.5L179.5 310.5L179 310.25L178.75 311.25L176.75 308.5L174.75 304.5L172.75 301.75L170.25 298.25L166.5 291.75L165.25 289.75V289L168.25 289.75L171.5 291L173.75 292.75L175 293.75L176.75 293.5L180.75 291.75L185.5 290H187.5L186 285.5V281.75L187.5 278L189 275L188.75 273.25L187.75 272L185.75 270.25L184 268.5L182 265L181.5 263V261L182.5 257.25L184 254.25L186.25 251.5L188.5 249.5L192.25 247L196.5 244.5L198.75 242.75L201.25 240.75L203.75 239.25L207.5 237.75L211.25 237H215.25L218.25 237.75L221.25 239.5L224.25 242.25L227 245.75L227.25 246.5H227.75L227.5 245.25V212.75L227.25 202H224.75L220.5 201.5L215.75 200.25L213.25 199L212 197.5L211.25 196V194.25L212.5 191.75L214.75 189.25L216 187.75L216.25 187.25L216.5 182.5L217.5 180.25L219.5 178.75L222.25 177.75L226.25 177L225.5 175.5L223.25 173L220.75 171L217.5 169L211.25 166L204.5 163.75L202 163.25L199.5 163H196.25L188 164L176 166L169.25 166.75H158.5L153.5 166L147.75 164.75L143.25 163.5L141.75 162.75L141 161.75L141.25 160.75L142.75 159.5L147.25 157L149 155.75L149.5 154.75L147.25 154.5H141.25L132 155.75L122.5 157L112.25 158L108.25 158.25H100L94.25 157.75L89.75 156.75L86.5 155.5L84 154L81.5 151.75L79.75 149.25L79 147V142.25L80 138.5L82 134.5L84 131L87.75 126L88.75 124L89 122L85.5 115L84.75 113L84.5 111.5V108.25L85 105.75L86.25 102.75L88 100L91.5 96.5L95.25 94L102 90.5L106.75 88.75L110.75 87.25L111.75 86.75H55L52.75 86.5L51.5 85.75L51.75 84.5L52.75 83L54 81.75L56 80.5L57 80.25H64.25L65.5 79.5L67.25 76.75L69 74.5L70.75 73L71.75 72.5L72.75 72.75L70.5 74.25L69.75 74.5L69.25 75.5L67.5 78.25L65.5 81L58 81.25L55.75 81.75L54 83L53 85L53.75 85.5L55 85.75H113L119.25 84.25L126.75 81.75L131.5 79.75H132.25L131.25 78.75L128.75 77.5H126.5L123.25 78.75L118.25 80.75L117.25 80L115.5 75.25L113.5 71.5L111.25 69L109.75 67.75L106 65.75L102 64.75L98 64.5L94 65.25L91.25 67L89.25 69.25L87.25 72.5L86.25 74L86 73.5L88.5 68.75L91.25 65.75L93.5 64.25L95.75 63.5L97.5 63.25H100L104.75 64L108 65.25L110.75 67L114 70.25L116.25 74L118.25 79.5H119L121.5 78.25L125.5 76.5L126.25 76.25H128.75L131.75 77.5L133 78.5L134.25 78.25L135.75 76.25L137.5 72.5L138.75 68.5L140.5 61.5L142 57.5L144 53.5L145.75 50.75L148 47.75L151.5 44L155.75 40.75L159.75 38.25L165.5 35.25L172.25 32.5L179 30.5L188 28.5L193.5 27.75L204.75 27.25L207.5 27L207.75 26.75L208 25L209.25 23.75L212.5 22.75L216 22.25ZM247.5 213.25L247.25 213.5V222.5L247.5 227H248.25L250.25 224.5L252.75 220.75L253 219.75L251 216.5L249 214L247.5 213.25ZM190.25 319L190.5 319.75L190.75 319H190.25ZM141.5 333.5L138.75 335.75L135 338.25L129.25 341.5L122.25 345L114 348.75L110.5 350.5L110.75 351.5L111.5 353.25L116.5 352.75L124.5 351.25L128 350.5L132 350L137.25 349.75L159.5 349.5L165.25 349.25L164.25 348.25L159.75 345.5L154 341.5L151 339.5L146.75 336.5L142.25 333.5H141.5ZM282.5 347.75L280.75 349.5L276.75 351.25L275.75 352.25L274.5 356H275.5L277.25 353.75L279.5 352.25L281.75 352L283.75 352.75L285 354L285.75 357V358.75L286 359.5L286.75 359.25L287.75 357.25L288.25 356.5L288 355L286 352.25L283.75 349.5L282.75 347.75H282.5ZM279.75 356.75L279.5 357.25L281 360.25L281.25 361V363L281 365.5L282 365L283.75 362.75V361.25L281.75 357.25L281.25 356.75H279.75ZM275.5 358L274 360L273.75 361L275 360.75L276 360.25L276.5 359.25L276.25 358H275.5ZM276.5 364.25L276 364.75L276.25 366H277.5L277.75 364.75L277.25 364.25H276.5Z" fill="#95E0AA"/>
<path d="M228.25 87.75L228.75 88L229.75 94.75L232.75 116.5L234.75 130V130.5L235.5 130L237 127.25L241 121L243 117.75L243.75 116.25H244.25L244.75 115L247.25 110.75L249 108.25L250 108L249.25 110.25L247.5 115L246 119L242 129.75L238.75 139L238.5 139.75V150.75L239 158.25L240 162.75L241 166.25H241.75L243.75 163.5L246.75 159.25L248.25 157L249.25 155.25L251 152.75L253.5 148.75L257 143L259.25 139.25L262.25 133L264.25 128L266 123.25L269.25 114L270.25 111L270.75 108.75L271.5 107L272.5 103.75L273.5 102.75L273.25 105L270 120.5L268.25 127.25L266 134L265.75 135.5L267 135.25L269.75 133.5L273 131L275.75 128.25L278.5 126L280 124.75L281.25 123.5L284.75 120.5L286.25 119.25L287.25 118.25L289 116.75L290.25 115.5L291.5 114.5H292L291.75 115.5L289.25 118.25L287.5 120.25L284.5 123.75L282 126.5L280.25 128.5L277.25 131.75L275 134.25L273.25 136.25L268.25 141.25L266.5 143.25L263.25 147.25L261.5 149.75L258.75 153.75L253.25 162.25L251 166.25L248 175.25L245.75 182.5L246 191L246.75 210.25L247.75 227L249 225.75L251.75 222L252.5 220.75L253.75 219.5L257 215L258.5 213L260.25 210.5L263.25 206.25L265.75 203.25L266.25 203.5L265.25 206L261.25 214L259 219L258 221.5L257.25 223.25L254.75 228L249 239.5L248.75 240.5V251.25L249.5 268.5L250 274.25L251.75 280.75L252.25 283.75V288L251.25 291.75L250.75 293.25V303.75L251.5 315L253 329L255 343.25L257.25 356.5L258 359L258.75 360L260 359.75L261.5 357.5L262.75 353.5L263.25 353.75V357.25L263.75 360.75L263.25 366.25L269.75 363.25H270.25L269.5 362L267.5 360L266.5 358.25V357L267.5 356.5H269L271.25 358L272 359.75L272.25 361H273L273.5 358.75L272.5 357.25L268.5 354.25L267.75 353.25L267.5 352.25L268.5 351L270.75 351.25L272.75 352.5L273.5 354.25H274.25L274.75 353L274.5 352L272.25 350.5L269.25 349L268 348L267.75 346.75L269 345.5H271L273.25 346.75L275 349.5L276 349.25L278 346L279.5 344.75L281.75 344.5L282.75 345.5L283 346.5L283.75 346L286.25 346.25L288 347.25L289 349.25L289.5 352.25H290.25L291 349.75L290.75 348L288.5 345.75L286.5 344.25L284.75 342V340.25L285.5 339.75H288.25L290 340.5L291 341.75L292.25 345L293.25 346.25L297 342.5L298.5 341.75H301.25L302.75 343L302.5 344.75L301 346.75L299.25 347.75L293.75 348.75L292.75 349.25L291.25 351.75L290.75 352.5H290.25L290 353.75L294.5 350.75L295.75 350.25H298.25L299.75 351L300.25 351.75L300 353.5L298.5 355.25L296.75 356L289.5 356.25L289.25 357L290.5 357.25L289.75 357.75L288.5 358.25L287 359.5L286.5 360.5L290.5 358.5L291.75 358H293.5L295.25 358.75L296.5 360L296.25 361.5L295.25 363L293.25 363.75H290L285.75 363.25V362.75L284.25 363.5L282.75 365.25L282 366L283.75 365.75L285.25 363.75L286 364L286.25 365L289.25 365.5L291.25 366.75L292.75 367L293.25 365.5L294 365.25L295.25 367.75L296 368.25L307.5 368.5L309.25 368.75L308.5 367.5L307.25 366V364.75L308.75 365.25L310 366.25V366.75L311.5 367.25L312.25 366.5L309.75 365L308 363.75L307.75 362.25L309.25 362.5L311.5 364.25L312.5 364L314 362.25L313 362.5H311.25L308.25 361L308 359.75L310 360L312.5 361L313.5 359.75L315 358.5H315.75V360.5L315 361.75V362.25L316.5 363.25L318 365.25V366.5L320 365.75L322.25 365.5L323.5 366L323.25 367.25L322 369.5L319.75 368.5L316.75 367.75L316 367L315.5 365.25L314.5 365L314.75 366.25L315.25 367.25L315.5 369.5L316 369.75V368.25L318.75 368.75L320.5 369.5L320.75 370.75L319.25 371.75L316.5 371.5L315.5 371.25H313.75L311.75 372.5H311L311.25 371.75L312.5 371L312 370.75L308.5 371.5L302 372.5L298.75 373.25L297.75 374L298.5 374.75L300.25 375.5L305.75 376.5L304.75 377L294.75 377.5L276.75 378L267 378.5L266.25 378.75L265.25 380.5L263 380.75L250.75 381L238.5 382L230.25 382.75H228.25L228.5 382L230.75 381L229.25 380.75L228 380L225.5 379.75L214.75 380.5L195 382L191.25 382.25L170 382.75H153.5L151.5 382.5H149L149.25 382L151.25 381.5V380L150.25 379.5L145.5 379.25L141.25 378.5L139 378L137.25 377.5L130.75 377H125.25L118.5 377.25L113 377.75L110.25 378.25L106.75 378.5H100L83 377.5L70.5 376.75L66.5 376.25L67.25 375.75L71 374.5L72.5 373.5H73V373L65 372.5L57.75 372.25L21.75 371.5L18.5 371.25L19.25 370.75L24.5 369.5H26.75L26 367.25L27 366.5L28.75 366L28.5 365.5L24.5 365.25L23.25 364.25L23.75 363.25L24.75 362.25V362L22 361.25L21.25 360.25L21.5 359H25.5L24.75 358.25L21 357.5L20.25 356.75L20 355.25L21.5 354.75L21.25 353.75L19.75 352.5L19.25 351.75L19.5 350.5L20.5 350.25L22 351L23.5 352.25L24.75 353.5L25.25 352L27 350.5L28.75 350.75L29.5 351.75L30.5 351.5L31.25 350.75L32.5 350.25L33 349.25H34L35.25 350.5L36 351.75H36.5V349.5L37.75 347L38.75 346.5L39.75 346.75L40 347.75L38.25 350.25L37.75 351.25L39.75 351.75L40.25 352.75L40 353L37.5 353.25L38 354L39.25 354.75L39 355.5L37.75 356L38 356.75L38.75 357.25L38.5 358L38 358.25V359.25L38.75 359.5L39 360.25L38 361.25L37.75 362H39.25L39.75 362.75L39.25 364V365.5L40.5 365.75H43.25L43.75 365V363L44.5 363.25L45.25 364.75L45.75 365.25H47.25L48.5 364L49.25 361.25L49.75 361.75L51 364.75L52.25 366L54.25 365.25L58.75 362L59.5 362.25L58.75 367L61.25 366.5L63.5 365.25L64.5 365.5L66 367.5L68.25 367L71.75 365.75L72.75 366.25L73.5 368.75H78.5L82.25 368.25L82.75 367.5L81.75 366.5L77 365L75.25 363.75L74.25 359.75L73.25 353L70.75 346L70 342.5V340.25L71 336.5L72.25 333.5L74.25 330L75.25 328.75L76.25 329.25L79.5 336.5L81.5 341L83 343.25L85.75 346.25L87.75 348.25L89.25 349H91.25L93.25 348.25L99.5 344.5L102.25 342.5L103.5 342.75L104.5 343.75L105.5 343.5L109 340.5L113.25 336.5L133 316.75L135.75 314.75L137.5 314.25L143.75 315.75L161.75 321.75L165.25 322.5L165.5 322L167 321.75L171 323L178 325.25L186 327.25H187L188.25 324.25L187 323.25L183.5 320.75L181.75 319.25L179.75 316.75L177 312.25L175 308.5L174.25 305.75L175.5 307L177.5 311L179.5 314.5L182 318L184 319.75L187.75 322.25L188.25 322.75H189L189.5 321.25L187.25 321L184.75 319.5L183 317.75L183.25 316.25L183 315.25L182.75 313.75L182.5 313L181.5 312.5L179.5 310.5L179 310.25L178.75 311.25L176.75 308.5L174.75 304.5L172.75 301.75L170.25 298.25L166.5 291.75L165.25 289.75V289L168.25 289.75L171.5 291L173.75 292.75L175 293.75L176.75 293.5L180.75 291.75L185.5 290H187.5L186 285.5V281.75L187.5 278L189 275L188.75 273.25L187.75 272L185.75 270.25L184 268.5L182 265L181.5 263V261L182.5 257.25L184 254.25L186.25 251.5L188.5 249.5L192.25 247L196.5 244.5L198.75 242.75L201.25 240.75L203.75 239.25L207.5 237.75L211.25 237H215.25L218.25 237.75L221.25 239.5L224.25 242.25L227 245.75L227.25 246.5H227.75L227.5 245.25V232L227.75 203V169.25L227 157.25L226.75 153.75L225.75 147.5L224.5 143.5L222.75 141.25L219 137.5L216.5 135.5L213.5 133L210.25 130.5L205.5 127L201 123.75L195.5 120L189.5 116L187 114.25L183 111.75L181.25 110.5V110H182.5V110.5L184.25 110.75V111.25H185.5L185.75 112L188 112.75L197.5 116.75L198.75 117L197 112.75L193.75 105.5L192.25 102.25V101.75L193.25 102L195.75 105.25L196 106H196.5L198 108.25L202 113.5L204.75 117L206.5 118.75L209.25 121L213.25 124.25L217.5 127.5L220 129.5L223 131.75L227.25 134.75L228.75 135.75L228 93.75V88L228.25 87.75ZM190.25 319L190.5 319.75L190.75 319H190.25ZM141.5 333.5L138.75 335.75L135 338.25L129.25 341.5L122.25 345L114 348.75L110.5 350.5L110.75 351.5L111.5 353.25L116.5 352.75L124.5 351.25L128 350.5L132 350L137.25 349.75L159.5 349.5L165.25 349.25L164.25 348.25L159.75 345.5L154 341.5L151 339.5L146.75 336.5L142.25 333.5H141.5ZM282.5 347.75L280.75 349.5L276.75 351.25L275.75 352.25L274.5 356H275.5L277.25 353.75L279.5 352.25L281.75 352L283.75 352.75L285 354L285.75 357V358.75L286 359.5L286.75 359.25L287.75 357.25L288.25 356.5L288 355L286 352.25L283.75 349.5L282.75 347.75H282.5ZM279.75 356.75L279.5 357.25L281 360.25L281.25 361V363L281 365.5L282 365L283.75 362.75V361.25L281.75 357.25L281.25 356.75H279.75ZM275.5 358L274 360L273.75 361L275 360.75L276 360.25L276.5 359.25L276.25 358H275.5ZM276.5 364.25L276 364.75L276.25 366H277.5L277.75 364.75L277.25 364.25H276.5Z" fill="#95E0AB"/>
<path d="M216 22.25H219.75L226.5 23L237 24.5L255 27.5L259.25 28L282.5 28.25L286.5 28.5L289.75 29.25L291 30L291.5 31V33.25L291.25 35.75L295 37L305.75 39.5L311.75 41.5L319.5 44.75L323 46.75L326.25 49.25L328 51.25L329.25 53.5V55L328.25 56.5L326.25 57.75L321 59.5L322.5 61.25L324.5 63.25V63.75H325L326.75 65.75L329.25 68.25L331 70.25L334.5 73.75L336.5 75.5L339.75 78.25L342.25 80.25L345 82.5L349 85.5L354 88.75L356.5 90.25L362.25 93L366.25 95L372.5 98.5L376 101L379.75 104.5L382.25 107.75L384.25 111.75L384.75 113.5L385 118L384.75 124.5L383.75 128.25L383 130.25H382.75V128.5L383.5 127.25L384 124.25L384.25 124V122L383.75 121L379.75 119.5L374.5 118.25L373.25 117.75L366.75 117L359 117.25L356.5 117.75L355.5 118L355.25 119.5L356.75 121.25L360.25 123.5V124L361.5 124.25L363.5 125.25V125.75L364.75 126L367.25 127.25L368.5 128L370.5 129.25L372.5 130.25V130.75L373.75 131L375.25 132.25V132.75L376 133L376.25 133.75L376 134.5L374 135.75L371.75 136.25L364.25 137L357.75 136.5L350 135L346.25 134L343 133L339.25 131.5L337.5 130.75L336 130L335.25 129.75V129.25L333.75 128.75L329 126L325.5 123.5H324.75L322.75 121.5L321.5 120L319.5 118.25L317.25 116V115.5L316.5 115.25L313.5 111.5V111H313L311.5 109L309.75 107L309.5 105.25L311.25 103.5L312.75 100.75L313 100.25L312.75 97.75L310.75 96L308 94.5L304 93L298.75 91.5L295.25 90.75L288.5 89.5L282 88.5L279 88.25L278.5 87.75L278.75 86.75L279.25 86H279.75V85.5H280.25L280.75 84.5L283.25 81L283.75 80V78.75H281.25L276.25 79.75L273 80.5L267.75 81.75L262 83.25L254.75 85.5L250.5 86.75H249L246.25 85.25L243.75 83.75L241 82.25L237 80.25L232.25 78.25L229 77.25L222 75.75L217 75.25H207.75L203.5 75.5L201.75 75.75L200 76.25L199.75 78.5V79H200.25V79.75L201.5 80.25V80.75L202.5 81.25L204 82.5V83L205 83.25L207 84.5L209.25 85.75L209.5 86.75L209 87L200.75 87.25H193L182.75 87.5L175 88.5L168.75 90.25L164.5 91.5L161.25 92.5H160V93L157.75 93.75L156.25 94.5L154 95.25L149 97.25L144.25 99.75L140.75 102H140.25V102.5L139 103.75L138.75 105.5L140 106.25L146 107L151 107.25H157.5L157.75 108.25L155.75 109.75L153.25 111L151.75 112H151.25V112.5H150.5V113L146.75 115.25L143.25 117.75L142.5 118V118.5L141 119V119.5L139.5 120.5L137.75 122L135 124.25L131.75 127H131.25V127.5H130.75V128H130.25V128.5H129.75V129.25L128.75 130H128.25V130.5L125.5 132.75L124.5 133.25V133.75L122.5 135.5L121.25 136.5L119.25 138.5H118.75V139H118.25V139.5H117.75V140L115.75 141.75L114.25 143H113.75V143.5L111.25 145.25L110 146.5L109 147.25H108.5V147.75L106 149L104.75 150L102 151.5L100.5 152V152.5L98.5 153.5L93.25 155.25L91 155.5L91.25 156.5L91.5 157L89.75 156.75L86.5 155.5L84 154L81.5 151.75L79.75 149.25L79 147V142.25L80 138.5L82 134.5L84 131L87.75 126L88.75 124L89 122L85.5 115L84.75 113L84.5 111.5V108.25L85 105.75L86.25 102.75L88 100L91.5 96.5L95.25 94L102 90.5L106.75 88.75L110.75 87.25L111.75 86.75H55L52.75 86.5L51.5 85.75L51.75 84.5L52.75 83L54 81.75L56 80.5L57 80.25H64.25L65.5 79.5L67.25 76.75L69 74.5L70.75 73L71.75 72.5L72.75 72.75L70.5 74.25L69.75 74.5L69.25 75.5L67.5 78.25L65.5 81L58 81.25L55.75 81.75L54 83L53 85L53.75 85.5L55 85.75H113L119.25 84.25L126.75 81.75L131.5 79.75H132.25L131.25 78.75L128.75 77.5H126.5L123.25 78.75L118.25 80.75L117.25 80L115.5 75.25L113.5 71.5L111.25 69L109.75 67.75L106 65.75L102 64.75L98 64.5L94 65.25L91.25 67L89.25 69.25L87.25 72.5L86.25 74L86 73.5L88.5 68.75L91.25 65.75L93.5 64.25L95.75 63.5L97.5 63.25H100L104.75 64L108 65.25L110.75 67L114 70.25L116.25 74L118.25 79.5H119L121.5 78.25L125.5 76.5L126.25 76.25H128.75L131.75 77.5L133 78.5L134.25 78.25L135.75 76.25L137.5 72.5L138.75 68.5L140.5 61.5L142 57.5L144 53.5L145.75 50.75L148 47.75L151.5 44L155.75 40.75L159.75 38.25L165.5 35.25L172.25 32.5L179 30.5L188 28.5L193.5 27.75L204.75 27.25L207.5 27L207.75 26.75L208 25L209.25 23.75L212.5 22.75L216 22.25Z" fill="#B7EDC6"/>
<path d="M228.25 87.75L228.75 88L229.75 94.75L232.75 116.5L234.75 130V130.5L235.5 130L237 127.25L241 121L243 117.75L243.75 116.25H244.25L244.75 115L247.25 110.75L249 108.25L250 108L249.25 110.25L247.5 115L246 119L242 129.75L238.75 139L238.5 139.75V150.75L239 158.25L240 162.75L241 166.25H241.75L243.75 163.5L246.75 159.25L248.25 157L249.25 155.25L251 152.75L253.5 148.75L257 143L259.25 139.25L262.25 133L264.25 128L266 123.25L269.25 114L270.25 111L270.75 108.75L271.5 107L272.5 103.75L273.5 102.75L273.25 105L270 120.5L268.25 127.25L266 134L265.75 135.5L267 135.25L269.75 133.5L273 131L275.75 128.25L278.5 126L280 124.75L281.25 123.5L284.75 120.5L286.25 119.25L287.25 118.25L289 116.75L290.25 115.5L291.5 114.5H292L291.75 115.5L289.25 118.25L287.5 120.25L284.5 123.75L282 126.5L280.25 128.5L277.25 131.75L275 134.25L273.25 136.25L268.25 141.25L266.5 143.25L263.25 147.25L261.5 149.75L258.75 153.75L253.25 162.25L251 166.25L248 175.25L245.75 182.5L246 191L246.75 210.25L247.75 227L249 225.75L251.75 222L252.5 220.75L253.75 219.5L257 215L258.5 213L260.25 210.5L263.25 206.25L265.75 203.25L266.25 203.5L265.25 206L261.25 214L259 219L258 221.5L257.25 223.25L254.75 228L249 239.5L248.75 240.5V251.25L249.5 268.5L250 274.25L251.75 280.75L252.25 283.75V288L251.25 291.75L250.75 293.25V303.75L251.5 315L253 329L255 343.25L257.25 356.5L257.5 358.5V363L257 362.75L256.5 359.75L255.75 357.75H255.25L254.25 365.25L253.75 366.5H253.25L253 367L252.5 366.75L251 363.75L248.75 359.75L246 354.75L245.25 354.5L246.75 362V364L245.75 363L243.5 359H243L241.5 362.5L240.5 363V361.75H239.25V362.25L237.75 363.5H237.25L236.75 360.5L236 360.25L237 357L236.75 355L235.75 353L234.5 351.25L233 344.5L231.75 336.75L231 336L232.25 334.5L234.25 330.75L237.25 324.25L241.25 315.25L244 309.75L245.5 307L246.5 304.75L246.75 303.75V299L246 296L245.75 295.25H245.25L244.25 292.75L243.75 291.75L242.75 291.25L241.75 289.5L239.25 287.75L237.75 287L236.25 286.75H233.75L230.75 287.75L229 289.25L228 290.75L227 292.75L225.5 298L224.5 303L223.25 307.5L222.25 309L220.75 310L220 312.25V313.75L222.25 313.25L224.5 314.75L226.75 317.75L227.25 319.5L226.25 319.25V318.25H225.75L224 316V315.5L220.25 316.25L219 317L217 318.5L216 320L215.25 321.5L214 322H202.75L199.25 321.5V321L197 320.75L195.25 320.5L195 321H194.5L194 322.25L193 324.5L192 327L191.5 328.75L191.25 330.75H190.25L190.75 326.75L191.5 325H192L192.5 323.25L193.25 322.25L193.5 321.25H194L194.25 320.25L191.75 319.75L191 320L190.75 319.25L189 317.75L186.75 312.5L184.25 309L182.25 306.25L181.5 306L182.25 309L183.25 311.25L184 312.75V313.75L182.75 313.25L181.5 312.5L179.5 310.5L179 310.25L178.75 311.25L176.75 308.5L174.75 304.5L172.75 301.75L170.25 298.25L166.5 291.75L165.25 289.75V289L168.25 289.75L171.5 291L173.75 292.75L175 293.75L176.75 293.5L180.75 291.75L185.5 290H187.5L186 285.5V281.75L187.5 278L189 275L188.75 273.25L187.75 272L185.75 270.25L184 268.5L182 265L181.5 263V261L182.5 257.25L184 254.25L186.25 251.5L188.5 249.5L192.25 247L196.5 244.5L198.75 242.75L201.25 240.75L203.75 239.25L207.5 237.75L211.25 237H215.25L218.25 237.75L221.25 239.5L224.25 242.25L227 245.75L227.25 246.5H227.75L227.5 245.25V232L227.75 203V169.25L227 157.25L226.75 153.75L225.75 147.5L224.5 143.5L222.75 141.25L219 137.5L216.5 135.5L213.5 133L210.25 130.5L205.5 127L201 123.75L195.5 120L189.5 116L187 114.25L183 111.75L181.25 110.5V110H182.5V110.5L184.25 110.75V111.25H185.5L185.75 112L188 112.75L197.5 116.75L198.75 117L197 112.75L193.75 105.5L192.25 102.25V101.75L193.25 102L195.75 105.25L196 106H196.5L198 108.25L202 113.5L204.75 117L206.5 118.75L209.25 121L213.25 124.25L217.5 127.5L220 129.5L223 131.75L227.25 134.75L228.75 135.75L228 93.75V88L228.25 87.75Z" fill="#77787A"/>
<path d="M233.75 286.5H236.25L238.25 287L240.75 288.5L242.25 289.75L243.25 291.5L244.5 292.75L245.25 295.25H245.75L246.75 297.5L247 299V303.75L246 306.5L244.5 309.5L242 314.25L239.75 319L235.25 329.25L233.25 333.25L231.75 335.5L231.25 336L232 336.75L233.75 347L234.75 351.25L236.75 354.25L237.25 356L237 358.25L236.25 360.25L237 361L237.25 363.5L238.25 363.25L238.75 362.25H239.25V361.75H240.5V363L241.5 362L242.75 359L243 359.75L241.25 364.25L240.5 365.5H240.25L240 362.25L238 364H237L236.5 361.25L236 361L235.5 362.5L234 364.5L231.75 367.75L230 370L228 372.5L226 374.25L223.25 375.25L221 375.75H215.25L210.5 375V374.5H208L202 372.75L199.25 372L193.25 372.25H185.5L178.25 371.75L166.25 370.25L160.25 369.25V369L163.25 369.25L174.75 370.75L182.5 371.5L189.75 371.75L197 371.5L198.75 371L190.75 367L185.25 363.75L180 360.5L174.75 357L170.75 354.25L168.5 352.5L168 352L168.25 351L178 346.25L184.5 343.75L183.5 343L181 342L177.5 339.5L174.75 336.75L171.5 332.5L168.5 328.25L166.5 325L165.5 323.25L163.75 322.75V322.5H165.5V322L167 321.75L171 323L178 325.25L186 327.25H187L188.25 324.25L187 323.25L183.5 320.75L181.75 319.25L179.75 316.75L177 312.25L175 308.5L174.25 305.75L175.5 307L177.5 311L179.5 314.5L182 318L184 319.75L187.75 322.25L188.25 322.75H189L189.5 321.25L187.25 321L184.75 319.5L183 317.75L183.25 316.25L183 315.25L182.75 313.75V313L184 313.75L183 311.25L182 309L181.5 307.25V306L182.5 306.25L185.5 310.25L187 312.5L189.25 317.75L190.5 319.25H191V320L191.75 319.5L194.5 320L194 321.25H193.5L193.25 322.5L192 325H191.5L190.75 328L190.25 330.75H191.25V328.75L192.25 325.5L193.5 322.75L194.5 321H195L195.25 320.25L199.25 321V321.5L202.75 321.75H214L215.25 321.25L216.5 318.75L218.5 317L220 316.25L220.75 315.75L222.75 315.5L223.5 315.25L224.75 316.5L225.75 317.75V318.25H226.25L226.5 319.25L227.25 319.5L226 317L224 314.5L222.25 313.5L220 313.75L219.75 312.25L220.5 310L221.75 309L222.75 308L223.75 305L225 299.75L225.75 296.25L227 292.25L228.25 290L229.75 288.25L231.25 287.25L233.75 286.5Z" fill="#94DFAA"/>
<path d="M228.25 87.75L228.75 88L229.75 94.75L232.75 116.5L234.75 130V130.5L235.5 130L237 127.25L241 121L243 117.75L243.75 116.25H244.25L244.75 115L247.25 110.75L249 108.25L250 108L249.25 110.25L247.5 115L246 119L242 129.75L238.75 139L238.5 139.75V150.75L239 158.25L240 162.75L241 166.25H241.75L243.75 163.5L246.75 159.25L248.25 157L249.25 155.25L251 152.75L253.5 148.75L257 143L259.25 139.25L262.25 133L264.25 128L266 123.25L269.25 114L270.25 111L270.75 108.75L271.5 107L272.5 103.75L273.5 102.75L273.25 105L270 120.5L268.25 127.25L266 134L265.75 135.5L267 135.25L269.75 133.5L273 131L275.75 128.25L278.5 126L280 124.75L281.25 123.5L284.75 120.5L286.25 119.25L287.25 118.25L289 116.75L290.25 115.5L291.5 114.5H292L291.75 115.5L289.25 118.25L287.5 120.25L284.5 123.75L282 126.5L280.25 128.5L277.25 131.75L275 134.25L273.25 136.25L268.25 141.25L266.5 143.25L263.25 147.25L261.5 149.75L258.75 153.75L253.25 162.25L251 166.25L248 175.25L245.75 182.5L246 191L246.75 210.25L247.75 227L249 225.75L251.75 222L252.5 220.75L253.75 219.5L257 215L258.5 213L260.25 210.5L263.25 206.25L265.75 203.25L266.25 203.5L265.25 206L261.25 214L259 219L258 221.5L257.25 223.25L254.75 228L249 239.5L248.75 240.5V251.25L249.5 268.5L249.75 272V274.75L249.25 274.5V273.75H248.75L247.25 272L245.75 270L242.75 267.25L240 265.5L235.75 262.5L233.75 260.5L231.75 257.75L229.75 253.75L227.25 248.25V247H228L227.5 245.25V232L227.75 203V169.25L227 157.25L226.75 153.75L225.75 147.5L224.5 143.5L222.75 141.25L219 137.5L216.5 135.5L213.5 133L210.25 130.5L205.5 127L201 123.75L195.5 120L189.5 116L187 114.25L183 111.75L181.25 110.5V110H182.5V110.5L184.25 110.75V111.25H185.5L185.75 112L188 112.75L197.5 116.75L198.75 117L197 112.75L193.75 105.5L192.25 102.25V101.75L193.25 102L195.75 105.25L196 106H196.5L198 108.25L202 113.5L204.75 117L206.5 118.75L209.25 121L213.25 124.25L217.5 127.5L220 129.5L223 131.75L227.25 134.75L228.75 135.75L228 93.75V88L228.25 87.75Z" fill="#2E373E"/>
<path d="M137 314.25L142 315.25L148.25 317.25L165.5 323L168.25 327.5L171.75 332.5L174.5 336L176.75 338.5L178.75 340.25L181.5 342L184.5 343.25V344L179.25 346L173 349L168.25 351.25L168.5 352.25L171 354.25L178.5 359.25L183.25 362.25L188.25 365.25L192.75 367.75L198.75 370.75L199 371.25L197 371.75L188.75 372L182.5 371.75L172.75 370.75L163.25 369.5L154.5 368L149.25 367.25H141.25L136.75 367.75L127 368.25H117.75L111 367.75L104.75 367L100 366.5L99.75 365.75L101.5 363L105 358.75L107.75 355.75L110 353L110.5 352H111.25L111.5 353L116.5 352.5L124.5 351L128 350.25L132 349.75L137.25 349.5L159.5 349.25L165 349L159.75 345.75L154 341.75L151 339.75L146.75 336.75L142.25 333.75L141.25 334L138 336.5L134.25 339L128.25 342.25L122.25 345.25L114 349L110 351L108.75 350.5L106 347.25L104.25 345V344.25H105.25L105.75 343.25L109 340.5L113.25 336.5L133 316.75L135.75 314.75L137 314.25Z" fill="#2E373E"/>
<path d="M233.75 286.5H236.25L238.25 287L240.75 288.5L242.25 289.75L243.25 291.5L244.5 292.75L245.25 295.25H245.75L246.75 297.5L247 299V303.75L246 306.5L244.5 309.5L242 314.25L239.75 319L235.25 329.25L233.25 333.25L231.5 335.25L229.25 337.25L226.75 338.75L224.5 339.25H220.5L215 338.5L207 336.75L200 335L192.5 332.75L191.25 332.25L188.75 331.75L187.75 330.75L188.25 326.75L188.75 324.5L189.25 324.25L191 320.75L192.25 319.75L194.5 320L194 321.25H193.5L193.25 322.5L192 325H191.5L190.75 328L190.25 330.75H191.25V328.75L192.25 325.5L193.5 322.75L194.5 321H195L195.25 320.25L199.25 321V321.5L202.75 321.75H214L215.25 321.25L216.5 318.75L218.5 317L220 316.25L220.75 315.75L222.75 315.5L223.5 315.25L224.75 316.5L225.75 317.75V318.25H226.25L226.5 319.25L227.25 319.5L226 317L224 314.5L222.25 313.5L220 313.75L219.75 312.25L220.5 310L221.75 309L222.75 308L223.75 305L225 299.75L225.75 296.25L227 292.25L228.25 290L229.75 288.25L231.25 287.25L233.75 286.5Z" fill="#94DFAA"/>
<path d="M250 291.75H250.25V303.75L251 315L252.5 329L254.5 343.25L256.75 356.5L257 358.5V363L256.5 362.75L256 359.75L255.25 357.75H254.75L253.75 365.25L253.25 366.5H252.75L252.5 367L252 366.75L250.5 363.75L248.25 359.75L245.5 354.75L244.75 354.5L246.25 362V364L245.25 363L243 359H242.5L241 362.5L240 363V361.75H238.75V362.25L237.25 363.5H236.75L236.25 360.5L235.5 360.25L236.5 357L236.25 355L235.25 353L234 351.25L232.5 344.5L231.25 336.75L230.5 336L231.75 334.5L233.75 330.75L236.75 324.25L240.75 315.25L243.5 309.75L245 307L246 304.75L246.25 303.75V299L245.5 296L245 294.75L246 295.5L248 294.25L249.5 292.75L250 291.75Z" fill="#2E373E"/>
<path d="M75.25 328.75L76.25 329.25L79.5 336.5L81.5 341L83 343.25L85.75 346.25L87.75 348.25L89.25 349H91.25L93.25 348.25L99.5 344.5L102.25 342.5L103.5 342.75L104.5 343.75L105.25 344.25H104.25L105.25 346L108.25 349.5L109.5 350.75L110.5 350.5L111 352H110.5L110.25 353L107.25 356.5L104.5 359.5L102.5 362L100.25 365.25L100 366.25L114 367.75L117.75 368H127L136.75 367.5L141.25 367H149.25L154.5 367.75L154.25 368.25L149.5 367.75H142.25L133.25 368.25L131 368.5L130.25 368.25V368.75H117.25L113 368.5L110.5 368L107 367.75L101.25 367H100L97 370L96.5 370.25H94L90.75 369L88.25 367.5L86 366.5L80.5 366L77 365L75.25 363.75L74.25 359.75L73.25 353L70.75 346L70 342.5V340.25L71 336.5L72.25 333.5L74.25 330L75.25 328.75Z" fill="#77787A"/>
<path d="M186.25 293L187.25 293.25L188.75 295.5L190 297L191.75 298.5L193.75 301L196.25 304V304.5H196.75L199.25 307.75L201.25 310L201.75 310.25L201 308.25L200.25 306.75L203.25 302.5L204.25 301L204.75 300.75L206.25 301.75H209L215 299.25L217.25 298.25L218 298.5L210 306.5L208.25 308.5L205.5 312L203.5 314.75L201 318.5L199.75 320.5L197.75 320.25L194 319.25L194.25 318L195 315.75L194 316L193.75 317.5L193 319L191.25 318.75L190 317.75V317.25L189.5 317L189 315H188.5L187.5 312.25V311.75H187L185.75 309.5L185.25 309.25V308.5H184.75V307.75H184.25V307L183.5 306.75L182.25 305.25L181.25 305L181 309L180 308.5L178.25 306.75L176 304L173.75 301.75L172.75 300.25V299.5L178.5 296.75L182.75 294.75L183.75 294L186.25 293Z" fill="#94DEA9"/>
<path d="M285.5 339.75H288.25L290 340.5L291 341.75L292.25 345L293.25 346.25L297 342.5L298.5 341.75H301.25L302.75 343L302.5 344.75L301 346.75L299.25 347.75L293.75 348.75L292.75 349.25L291.25 351.75L290.75 352.5H290.25L290 353.75L294.5 350.75L295.75 350.25H298.25L299.75 351L300.25 351.75L300 353.5L298.5 355.25L296.75 356L289.5 356.25L289.25 357L290.5 357.25L289.75 357.75L288.5 358.25L287 359.5L286.5 360.5L290.5 358.5L291.75 358H293.5L295.25 358.75L296.5 360L296.25 361.5L295.25 363L293.25 363.75H290L285.75 363.25V362.75L284.25 363.5L282.75 365.25L282 366L283.75 365.75L285.25 363.75L286 364L286.25 365L289.25 365.5L291 366.75V368.25L290.5 368.75H288L279 367L278.25 366.5L277.5 364.75L276.5 364.5H275.25L275 363.25L275.25 362.5H275.75L276.25 360.5V358L275.25 358.5L275 359H274.25V358.5L273.25 358.25L272.25 357L268.75 354.5L267.75 353.25L267.5 352.25L268.5 351L270.75 351.25L272.75 352.5L273.5 354.25H274.25L274.75 353L274.5 352L272.25 350.5L269.25 349L268 348L267.75 346.75L269 345.5H271L273.25 346.75L275 349.5L276 349.25L278 346L279.5 344.75L281.75 344.5L282.75 345.5L283 346.5L283.75 346L286.25 346.25L288 347.25L289 349.25L289.5 352.25H290.25L291 349.75L290.75 348L288.5 345.75L286.5 344.25L284.75 342V340.25L285.5 339.75ZM282.5 347.75L280.75 349.5L276.75 351.25L275.75 352.25L274.5 356H275.5L277.25 353.75L279.5 352.25L281.75 352L283.75 352.75L285 354L285.75 357V358.75L286 359.5L286.75 359.25L287.75 357.25L288.25 356.5L288 355L286 352.25L283.75 349.5L282.75 347.75H282.5ZM279.75 356.75L279.5 357.25L281 360.25L281.25 361V363L281 365.5L282 365L283.75 362.75V361.25L281.75 357.25L281.25 356.75H279.75Z" fill="#343C43"/>
<path d="M145 182.75H150.5L156.25 183.75L160.25 185L164.5 187.25L167.25 189.25L169.75 191.75L173 196.25L175.25 200.25L177.25 205.25L178.25 208.25V208.75L179.5 208.5L184 206.5L188 204.5L190.75 203.5L192.25 203.25H195L197.5 204L200.5 205.75L203.5 208.75L205.5 212L207 216L207.25 217.75L206.75 218.25L205 218.5L186.5 218.75L156.75 219L146 219.25H87.5L74.75 218.75L73.25 218.25L73 217.5L73.75 215.5L75.25 213.25L77.25 211.5L80.75 209.75L84.5 209.25L90.5 209.5L94.25 210L94.75 209L97.25 204.25L99.75 201L101 199.75L103 198L105.5 196.75L108.5 196H113.5L117.25 196.75L124.25 199L126 199.25L127.25 198.25L130.5 192.25L133 189L135.25 186.75L138.75 184.5L142.25 183.25L145 182.75ZM144.5 183.75L140.5 184.75L137.5 186.25L135 188.25L132.75 190.75L130.75 194L128 198.75L126.5 200L125 200.25L121 199L116.25 197.5L114 197L110.25 196.75L106.25 197.5L103.25 199L100.75 201.25L98.5 204.25L95.5 209.5L94.75 210.5H91.25L89 210.25H82.75L80 211L77.75 212.25L75.75 214L74.25 216.25L74 217.5L75.25 218L83.75 218.25H138.5L189.25 218L205.5 217.5L206 217.25L205.5 215.25L204.25 212.5L202.25 208.75L200.5 207L197.75 205.25L196 204.5L194.5 204.25H192L189.5 204.75L187.25 205.75L181.5 208.5L179.5 209.25H178L175.75 203.25L174.5 200.25L172.75 197L170.5 193.75L168.25 191.25L166.25 189.5L162.75 187.25L159.5 185.75L155.25 184.5L151 183.75H144.5Z" fill="#4C5759"/>
<path d="M38.75 346.5L39.75 346.75L40 347.75L38.25 350.25L37.75 351.25L39.75 351.75L40.25 352.75L40 353L37.5 353.25L38 354L39.25 354.75L39 355.5L37.75 356L38 356.75L38.75 357.25L38.5 358L38 358.25V359.25L38.75 359.5L39 360.25L38 361.25L37.75 362H39.25L39.75 362.75L39.25 364L38 365.25L37.25 366.25H33.5L33 367.75L31.5 368H26.75L26 367.75L26.5 366.75L28.75 366L28.5 365.5L24.5 365.25L23.25 364.25L23.75 363.25L24.75 362.25V362L22 361.25L21.25 360.25L21.5 359H25.5L24.75 358.25L21 357.5L20.25 356.75L20 355.25L21.5 354.75L21.25 353.75L19.75 352.5L19.25 351.75L19.5 350.5L20.5 350.25L22 351L23.5 352.25L24.75 353.5L25.25 352L27 350.5L28.75 350.75L29.5 351.75L30.5 351.5L31.25 350.75L32.5 350.25L33 349.25H34L35.25 350.5L36 351.75H36.5V349.5L37.75 347L38.75 346.5Z" fill="#7B807F"/>
<path d="M194.5 256L195.25 256.75L198.5 263.25L199.75 265.25L199.5 266L197.75 266.75L196.75 267.25V269L197 269.5L198 269L199.25 268L201 267.75L202.25 268.5L204 270.25L207.25 272.25L213.5 275.5L216.25 277.25L216.5 278.25L213.5 282L212 284L211 284.75H208.75L204.75 282.75L201.5 280L199.75 278.5L197 278L196.25 277.25L196.75 275V271.75L195 267.75L193.75 264.75L193.5 263.75V260.75L194.5 256Z" fill="#F8FCF9"/>
<path d="M315 358.5H315.75V360.5L315 361.75V362.25L316.5 363.25L318 365.25V366.5L320 365.75L322.25 365.5L323.5 366L323.25 367.25L322 369.5L319.75 368.5L316.75 367.75L316 367L315.5 365.25L314.5 365L314.75 366.25L315.25 367.25L315.5 369.5L316 369.75V368.25L318.75 368.75L320.5 369.5L320.75 370.75L319.25 371.75L316.5 371.5L315.5 371.25H313.75L311.75 372.5H311L311.25 371.75L312.5 371L312 370.75L308.5 371.5L302 372.5L298.75 373.25L297.75 374L298.5 374.75L300.25 375.5L305.75 376.5L304.75 377L294.75 377.5L284.25 377.75H278.75V377.5L282.75 377.25L284.5 376.75H286.5L288 376.25V375.5L286.75 375L286.25 373.75L287.75 373L291.5 372.5L293.5 371.75L297.5 371.5L299 371.25L301.75 371L302 370.25L300.5 369.75L298.75 369.5H296.75L293.75 368.75L293.5 368.5H291.25L291 368.25V366.75L292.75 367L293.25 365.5L294 365.25L295.25 367.75L296 368.25L307.5 368.5L309.25 368.75L308.5 367.5L307.25 366V364.75L308.75 365.25L310 366.25V366.75L311.5 367.25L312.25 366.5L309.75 365L308 363.75L307.75 362.25L309.25 362.5L311.5 364.25L312.5 364L314 362.25L313 362.5H311.25L308.25 361L308 359.75L310 360L312.5 361L313.5 359.75L315 358.5Z" fill="#B7EDC6"/>
<path d="M293.75 237.75H300.25L304 238.75L308 240.75L310.5 242.75L312.75 245.75L314.75 249.75L316.5 254L320.5 252L323.5 250.75H327.5L329.5 251.75L332.25 254.25L334 257.75L334.25 260L334 260.25L332 260.5L323 260.75H252.5L249.75 260.5L250 258.25L251.25 257L253.25 255.25L256 254.25H259.5L261 254.5H263L265.5 250.25L267.5 248L270 246.5L271.75 246H275.5L279.75 247L283 248.25L284.5 246L286.75 242.5L289 240L291.5 238.5L293.75 237.75ZM294 238.75L291.5 239.5L289 241.25L287.25 243.25L284.5 247.75L283.25 249L281 248.5L277.25 247.25L274.5 246.75H272L269 248L267.25 249.5L264.5 253.75L263.5 255.25L263.25 255.5L260 255.25H256.25L253.75 256L251.75 257.5L250.75 258.75L250.5 259.75L251.5 260L260 260.25H270.25L325 259.75L332.5 259.5L332.75 259.25L332.5 257L331.5 255L329.25 252.75L326.75 251.5H324.25L321 252.75L317.5 254.5L316 254.75L315 252.75L313.5 249L312 246.25L310 243.75L307.75 241.75L303.75 239.75L299.5 238.75H294Z" fill="#484F54"/>
<path d="M285.5 339.75H288.25L290 340.5L291 341.75L292.25 345L293.25 346.25L297 342.5L298.5 341.75H301.25L302.75 343L302.5 344.75L301 346.75L299.25 347.75L293.75 348.75L292.75 349.25L291.25 351.75L290.75 352.5H290.25L290 353.75L294.5 350.75L295.75 350.25H298.25L299.75 351L300.25 351.75L300 353.5L298.5 355.25L296.75 356H288.5L288 355.75L287 353.75L284 350.25L283 348.75L283.25 346.75L284 346.25H286.25L288 347.25L289 349.25L289.5 352.25H290.25L291 349.75L290.75 348L288.5 345.75L286.5 344.25L284.75 342V340.25L285.5 339.75Z" fill="#353D44"/>
<path d="M174.25 305.75L175.5 307L177.5 311L179.5 314.5L182 318L184 319.75L187.75 322.25L188.25 322.75H189L189.5 321.25L187.25 321L184.75 319.5L183 317.75L183.25 316.25L183 315.25L182.75 313.75V313L184 313.75L183 311.25L182 309L181.5 307.25V306L182.5 306.25L185.5 310.25L187 312.5L189.25 317.75L190.5 319.25H191V320L191.75 319.5L192.5 319.75L191.25 320.75L189.25 324.5H188.75L188.5 326.75L188 330.75L188.75 331.5L192.5 332.25V332.75L195 333.25L201.75 335.25L209 337L216.25 338.5L220.5 339H224.5L226.75 338.5L230.25 336.25L232.25 334L232.5 334.5L231.25 336L232 336.75L233.75 347L234.75 351.25L236.75 354.25L237.25 356L237 358.25L236.5 358.75V355.25L235 352.5L234.25 351.5L233.25 347.5L232 340.5L231.5 337.25L230.25 337.5L228.75 338.75L225.25 340L221.25 340.25L215.25 339.5L211.5 338.75L202 336.5L195 334.5L188.5 332.5L187.25 331.75L187 331.25V328.25L183.75 327.75L177 326L169.25 323.5L167.5 323L166.5 322.5V321.75L169.75 322.5L178 325.25L186 327.25H187L188.25 324.25L187 323.25L183.5 320.75L181.75 319.25L179.75 316.75L177 312.25L175 308.5L174.25 305.75Z" fill="#78797B"/>
<path d="M220.5 297.25L221.75 297.5L224.25 299.25L224 301L223 302.75L218.75 307L217 309L215 310.75L214.25 311.75L213 312.5L211.25 314.25H210.75V314.75L209 316.25H208.5V316.75L206.25 318.5L205.25 319.75L204 320.5L203 321H201.75V320.5H200.75L202.5 317H203L203.25 316H203.75L204.25 314.75L206 312.25L208.25 309.75L209.75 307.75L211.5 305.75L214 303.5L219.25 298.25H219.75L220 297.5L220.5 297.25Z" fill="#94DFAA"/>
<path d="M217.25 298.25L218 298.5L210 306.5L208.25 308.5L205.5 312L203.5 314.75L201 318.5L199.75 320.5L197.75 320.25L194 319.25L194.25 318L195.25 315L196.5 314L202 311L201.75 309.5L200.25 307L201.25 305.25L203.25 302.5L204.25 301L204.75 300.75L206.25 301.75H209L215 299.25L217.25 298.25Z" fill="#F8FCF9"/>
<path d="M218.75 283.5H219.25L218.75 284.75L217.25 286.75L217 287.5V290.75L217.75 293L219.25 295.25L219 296.25L212.75 299.5L209.25 301L206.75 301.25L205.5 300L203.75 296.5L202.5 294.5L202.75 293.5L208.5 290.5L212 288.5L216.25 286L217.25 285H217.75L218.25 284H218.75V283.5Z" fill="#F8FCF9"/>
<path d="M200.25 205.75L202 207.25L204 209.5L205.5 212L207 216L207.25 217.75L206.75 218.25L205 218.5L186.5 218.75L156.75 219L146 219.25H87.5L74.75 218.75L73.25 218.25L73 217.5L74.25 216.25V217.5L75.25 217.75L83.75 218H138.5L189.25 217.75L206 217.25L204.25 212.75L202 208.75L199.75 206.75V206L200.25 205.75Z" fill="#7E8683"/>
<path d="M165.25 289L168.25 289.75L171.5 291L173.75 292.75L174.5 294H173.75L171.75 292.25L169.75 291L171.25 293.5L172.25 295.75L172 297L172.75 297.25L173.25 298.5H174.25V298L180 295.25L186 292L187.25 292.25L187 292.75L186 293L185.25 293.75L183 294.75L173.5 299.5H172.75L174 301.75L176.5 304.25L178.75 307L180.5 308.75L181 309V305.5L181.25 305L182.5 305.25L183.75 306.75L184.25 307V307.75H184.75V308.5H185.25V309.25L186 309.5L187 311.25V311.75H187.5L188.5 314.25V315H189L189.5 316.25V317L190.25 317.25V317.75L191.75 318.75H193L194 316L195 315.75L194.75 317.25L194 319.25L198.5 320.25H199.75L202.5 315.75L205.5 311.75L208.25 308.25L212 304.25L214.25 302L215 302.25L214.25 303L213.5 304.25L210.25 307.25L209.25 308.75L207 311.5H206.5L206 312.5L203.75 316L203.25 316.25L203 317H202.5L202.25 318L200.75 320.75L201.5 321V321.5L198 321L195.25 320.5L195 321H194.5L194 322.25L193 324.5L192 327L191.5 328.75L191.25 330.75H190.25L190.75 326.75L191.5 325H192L192.5 323.25L193.25 322.25L193.5 321.25H194L194.25 320.25L191.75 319.75L191 320L190.75 319.25L189 317.75L186.75 312.5L184.25 309L182.25 306.25L181.5 306L182.25 309L183.25 311.25L184 312.75V313.75L182.75 313.25L181.5 312.5L179.5 310.5L179 310.25L178.75 311.25L176.75 308.5L174.75 304.5L172.75 301.75L170.25 298.25L166.5 291.75L165.25 289.75V289Z" fill="#585C60"/>
<path d="M49.25 361.25L49.75 361.75L51 364.75L52.25 366L54.25 365.25L58.75 362L59.5 362.25L58.75 367L61.25 366.5L63.5 365.25L64.5 365.5L66 367.5L68.25 367L71.75 365.75L72.75 366.25L73.5 368.5L71.75 368.25L69 368.75H64.75L63.25 368L61.25 368.25L59 368.75L57.75 368.25L57.25 367.5V366.5L56.25 366.75L53.25 368L51 368.25L50 368L49.75 367.5L47 367.75H45.75L43.5 368.5H40.25L38 368.75H34.25L32 368.5H29.25V368L32.25 367.75L33 367.5L33.5 366.25L34 366H37.25L38.75 364H39L39.25 365.5L40.5 365.75H43.25L43.75 365V363L44.5 363.25L45.25 364.75L45.75 365.25H47.25L48.5 364L49.25 361.25Z" fill="#B7EDC6"/>
<path d="M222.25 304.25H223L222.75 306.5L221.5 308.5L220 309.75L219.25 311.25V313.5L219.75 315.25L216.5 318L214.5 320.75L213.5 321.25H205L205.25 320.25L208.75 317.25L211.25 315L213.25 313.25L214.75 311.5L216 310.5L217 309L218.75 307.5L219.75 307L221.5 305L222.25 304.25Z" fill="#95DFAA"/>
<path d="M300.75 332.75L302.5 333L303.75 334.25L303.25 336.25L301.75 338.25L299.25 339.5L295.75 340.75L294.5 341.75L293.5 345.25L293 345.5L292.75 344.25L293 341.25L290.75 339.25L287.25 337.25L285.25 335L285.5 334L286.75 333L289.5 333.25L291 334L292.75 336L294.25 338.5L295.5 337.25L297.25 335L299.25 333.25L300.75 332.75Z" fill="#343C43"/>
<path d="M284 346.25H286.25L288 347.25L289 349.25L289.5 353L289.75 353.5L291 353.25L293.5 351.25L295.75 350.25H298.25L299.75 351L300.25 351.75L300 353.5L298.5 355.25L296.75 356H288.5L288 355.75L287 353.75L284 350.25L283 348.75L283.25 346.75L284 346.25Z" fill="#333B42"/>
<path d="M20 350.25L21.75 350.75L23.5 352.25L24.75 353.5L25.25 352L27 350.5L28.75 350.75L29.5 351.75L30.5 351.5L31.25 350.75L32.5 350.25L33.25 351.75L34 353H31.5L32 354.75L34 356.5L33 356.75L32.5 356.25L31.25 356.5L30.25 357.25L28.25 357.5L26.25 359.75H25.25V359.25L24.75 359H25.5L24.75 358.25L21 357.5L20.25 356.75L20 355.25L21.5 354.75L21.25 353.75L19.75 352.5L19.25 351.75L19.5 350.5L20 350.25Z" fill="#FCFDFC"/>
<path d="M251.75 256.5L252.25 257.25L251 258.75L250.75 259.5L251.5 259.75L260 260H270.25L325 259.5L332.5 259.25L332.75 257.75L333.75 258.75L334.25 258.5V260L334 260.25L332 260.5L323 260.75H252.5L249.75 260.5L250 258.25L251.25 257L251.75 256.5Z" fill="#797C7D"/>
<path d="M315 358.5H315.75V360.5L315 361.75V362.25L316.5 363.25L318 365.25V366.5L320 365.75L322.25 365.5L323.5 366L323.25 367.25L322 369.5L319.75 368.5L316.75 367.75L316 367L315.5 365.25L314.5 365L314.75 366.25L315.25 367.25L315 368.75H311.5L309.5 368.5L307.5 366.5L307.25 364.75L308.75 365.25L310 366.25V366.75L311.5 367.25L312.25 366.5L309.75 365L308 363.75L307.75 362.25L309.25 362.5L311.5 364.25L312.5 364L314 362.25L313 362.5H311.25L308.25 361L308 359.75L310 360L312.5 361L313.5 359.75L315 358.5Z" fill="#384046"/>
<path d="M71.75 72.5L72.75 72.75L70.5 74.25L69.75 74.5L69.25 75.5L67.5 78.25L65.5 81L58 81.25L55.75 81.75L54 83L53 85L53.75 85.5L55 85.75L114 86V86.25L111 86.75H55L52.75 86.5L51.5 85.75L51.75 84.5L52.75 83L54 81.75L56 80.5L57 80.25H64.25L65.5 79.5L67.25 76.75L69 74.5L70.75 73L71.75 72.5Z" fill="#89998F"/>
<path d="M280.25 344.5H281.75L282.75 345.5L283 346.5L283.75 346H285.25V346.25H284L283.75 346.75L283.25 347.5L282.75 348L281 349.5L276.5 351.75L275.75 353L274.75 356L275.5 355.75L276.25 355L275.75 356.25L275 357L274 356.75L273.5 355V354.5L274.25 354.25L274.75 353L274.5 352L272.25 350.5L269.25 349L268 348L267.75 346.75L269 345.5H271L273.25 346.75L275 349.5L276 349.25L278 346L279.5 344.75L280.25 344.5Z" fill="#363E45"/>
<path d="M279.25 337L281 337.25L282 338.5L281.75 340.5L280.5 342.25L277.5 344.25L276 345.5L275.75 349.25L275 348.25L274.75 346L272.75 344.75L268.5 343.5L267.25 342.25L267 341L268.75 340H270.5L272.5 340.75L275 343V343.5H275.5L276.25 340.5L277.5 338.5L279.25 337Z" fill="#373F45"/>
<path d="M236.25 358.75L236.5 359.5L236.25 360.25L237 361L237.25 363.5L238.25 363.25L238.75 362.25H239.25V361.75H240.5V363L241.5 362L242.75 359L243 359.75L241.25 364.25L240.5 365.5H240.25L240 362.25L238 364H237L236.5 361.25L236 361L235.5 362.5L234 364.5L231.75 367.75L230 370L228 372.5L226 374.25L223.25 375.25L221 375.75H215.25L210.5 375V374.5H208L202 372.75L199.25 372L193.25 372.25H185.5L178.25 371.75L166.25 370.25L160.25 369.25V369L163.25 369.25L174.75 370.75L182.5 371.5L189.75 371.75L197 371.5L198.75 371L196.25 369.75L197 369.5L201 371.25L203.25 371.75L204.25 372V372.5L205 372.25L206.75 372.75V373.25L208.75 373.5L213.75 374.5L216 374.75H221L224 374L226 373L227.25 371.75L229 369.75L232 365.75L234 363L236.25 358.75Z" fill="#767779"/>
<path d="M277 330H278.5L279.5 331.25V333.25L278.5 335.25L275 338.75L274.75 342.25H274.25L274 341.25V339.25L267.5 338.25L265.75 337.25L265.25 336.25L265.5 335.75H266V335.25L267.5 334.5L270 334.75L272.25 336L273.75 337L274.75 333L275.75 331L277 330Z" fill="#363F45"/>
<path d="M181.5 306L182.5 306.25L185.5 310.25L187 312.5L189.25 317.75L190.5 319.25L191 319.5L190 321.5L189.5 321.25L187.25 321L184.75 319.5L183 317.75L183.25 316.25L183 315.25L182.75 313.75V313L184 313.75L183 311.25L182 309L181.5 307.25V306Z" fill="#F9FCFA"/>
<path d="M97.5 63.25H100L104.75 64L108 65.25L110.75 67L114 70.25L116.25 74L118.25 79.5H119L121.5 78.25L125.5 76.5L126.25 76.25H128.75L131.75 77.5L133 78.75H131.25L128.75 77.5H126.5L123.25 78.75L118.25 80.75L117.25 80L115.5 75.25L113.5 71.5L111.25 69L109.75 67.75L106 65.75L102 64.75L98 64.5L94 65.25L91.25 67L89.25 69.25L87.25 72.5L86.25 74L86 73.5L88.5 68.75L91.25 65.75L93.5 64.25L95.75 63.5L97.5 63.25Z" fill="#6E7F7A"/>
<path d="M292.75 321.75L294.75 322L296 323.5L296.5 325V329L295.25 334.5L294.75 337.25L294.25 337.75L294 337.5L293.5 334L291 326.25L290.75 324L291.5 322.5L292.75 321.75Z" fill="#333B42"/>
<path d="M186.25 290.75L187 291.5L184.75 293L176.5 297.25L175 298H174.25V298.5L173.25 298.75L172.5 297.25L172 297L171.75 295.25L170 291.75L169.75 291L170.75 291.5L173 293L174 293.75L174.5 293.25L175 293.75L176.75 293.5L180.75 291.75L183 291H183.75V291.5L186.25 290.75Z" fill="#747778"/>
<path d="M165.25 289L168.25 289.75L171.5 291L173.75 292.75L174.5 294H173.75L171.75 292.25L169.75 291L171.25 293.5L172.25 295.75L172 297L172.75 297.25L173.25 298.5H174.25V298L180 295.25L186 292L187.25 292.25L187 292.75L186 293L185.25 293.75L183 294.75L173.5 299.5L172.25 300.25L171.25 299.75L168.5 295.25L165.75 290.5L165.25 289.75V289Z" fill="#353E44"/>
<path d="M216.75 309V309.75L215.25 311.5L211.75 315L209.75 316.75L206.25 319.75L205.25 320.5L205 321.25L213.5 321L214.75 320.25L216.25 318L218.5 316L219.5 315.25L219 313.5V311.25L219.5 311V312.5L220 313.25V313.75L222.25 313.25L224.5 314.75L226.75 317.75L227.25 319.5L226.25 319.25V318.25H225.75L224 316V315.5L220.25 316.25L219 317L217 318.5L216 320L215.25 321.5L214 322H202.75L199.25 321.5V321.25H201L201.5 321.5V321L200.5 320.75V320.5H201.75V321L204 320.25L205.5 319.25L207 317.5L208 316.75H208.5V316.25L210.25 314.75H210.75V314.25L212.75 312.5L213.5 311.75L214.5 311.25L215.5 310L216.75 309Z" fill="#757678"/>
<path d="M293.75 237.75H300.25L304 238.75L308 240.75L310.5 242.75L312.75 245.75L314.75 249.75L316.5 254L320.5 252L323.5 250.75H327.5L329.5 251.75L332.25 254.25L334 257.75V259.25L333 258.25V257.75H332.5L331.5 255.25L329.25 253L326.75 251.75H324.25L321 253L317.5 254.75L316 255L315 253.5L313.5 249.5L311.75 246.25L309.75 243.75L307.25 241.75L304.5 240.25V239.75L303.25 239.25L301 238.5L296.75 238.25H293.25L293.75 237.75Z" fill="#465054"/>
<path d="M194.5 256L195.25 256.75L198.5 263.25L199.75 265.25L199.5 266L197.75 266.75L196.75 267.25V269L197 269.5L198 269L198.75 268.25L199.25 268.5L198.25 269.75L197 270.5L196.5 271L194 265.5L193.5 263.75V260.75L194.5 256Z" fill="#F4FBF6"/>
<path d="M100 366.75L103.25 367L109 367.75L112.5 368L114.75 368.75V369.25L112.75 370.25L107.75 370.75H105.75L104.75 370.25L100.25 370H98.75L97.75 369.75L98 368.75L100 366.75Z" fill="#B6ECC5"/>
<path d="M309.25 368.25L315 368.75L315.25 368.25L315.5 369.5L316 369.75V368.25L318.75 368.75L320.5 369.5L320.75 370.75L319.25 371.75L316.5 371.5L315.5 371.25H313.75L311.75 372.5H311L311.25 371.75L312.5 371L312 370.75L311 371H304.5L302.75 370.75L303 370L302.5 369.5L303 369.25H304.75L307.5 368.75H309.25V368.25Z" fill="#98E1AD"/>
<path d="M107.25 196.25L107.75 196.5L107 197.5L104 198.75L101.75 200.5L99.75 202.75L97.75 206L95.75 209.5L94.75 210.75H91.25L89 210.5H82.75L80 211.25L77.75 212.5L76 214L74.5 216.25H74L73.5 217.25L73.25 216.5L74.5 214.25L76.25 212.25L79 210.5L81.75 209.5L86.5 209.25L92.75 209.75L94.25 210L94.75 209L97.25 204.25L99.75 201L101 199.75L103 198L105.5 196.75L107.25 196.25Z" fill="#464F53"/>
<path d="M142.25 367.5H149.5L154.5 368L156 368.25V368.75H157.25V369L148.25 369.5H138.25L134.75 369.75L130.25 369V368.25H132.25L134.75 368L142.25 367.5Z" fill="#BCEECA"/>
<path d="M262.75 353.5L263.25 353.75V357.25L263.75 360.75L263.25 366.25L269.25 363.5L269.75 363.75L268.25 365H267.25L266.75 366.25L266 367L265.25 367.25H263.5L262.25 366.25L262 363.5L261.5 363L259.5 364.25L259 365.25L258.5 364L258 359.5L258.75 360L260 359.75L261.5 357.5L262.75 353.5Z" fill="#BBEDC9"/>
<path d="M225 144.75L225.5 145.5L226.5 150.5L227 153.75L227.75 165L228 169.25V203L227.75 212.75H227.5L227.25 184.75L227 167L226.5 157.25L225.5 148.75L225 146V144.75Z" fill="#78797B"/>
<path d="M267.5 324.25L269 324.5L270.25 325.25L271.75 328.25L273.25 334.5V335.75L272 334.5L269.75 331.75L267.75 329.75L266.25 327.25L266 325.5L267 324.5L267.5 324.25Z" fill="#384046"/>
<path d="M283.75 362L285.25 362.75L284 363.75L282.75 365.25L282 366L283.75 365.75L285.25 363.75L286 364L286.25 365L289.25 365.5L291 366.75V368.25L290.5 368.75H288L279 367L278.25 366.5L277.5 364.75L276.5 364.5H275.25L275 363.25L275.5 362.5L275.75 363.5L278 364.25L279.25 366.5H280.5L280.75 364.5L281 365.5L282.25 364.25L283.5 362.75L283.75 362Z" fill="#7A7C7D"/>
<path d="M73.25 351L74 351.25V351.75L75 352.25L75.5 354.75L76 356.25H76.75L77.5 357.5L77.25 356.5V356L77.5 355.5L78.75 357V357.5H79.25L81 359.5L82.75 361V361.5L84 362L85.75 363V363.5L87 363.75L87.25 364.25V366.25L84.75 365.5L83.25 364.25V363.75L82 363.25L80 361.5L78.25 360.25L77.5 360L76.25 358L74.5 355.25L73.75 354V352.5H73.25V351Z" fill="#2E373E"/>
<path d="M232.75 378.5H238.25V379.75L238 380.5H237.5V381H236.75V381.75H238.5V382L230.25 382.75H228.25L228.5 382L230.75 381L229.25 380.75L228 380L225.5 379.75V379.25L227.25 379L231.5 378.75L232.75 378.5Z" fill="#B8EDC6"/>
<path d="M209.5 253.75H210L211 256L213.5 260.75L215.75 263.5L216 264.25L217 264.75L217.75 265.5V266L218.75 266.5L221.25 268.25L225 270.25L230.25 272.25L239 274.5L243 276L245.75 277.5L247.75 279L249.25 281L249.75 282.5V285.25L249.25 285L248.75 282.25L247.75 280.25L245.75 278.5L242 276.5L238.25 275.25L229.75 273L225.75 271.5L221.75 269.5L219.25 267.75L216 265L214 262.75L211.75 259.25L209.5 254.25V253.75Z" fill="#2E373E"/>
<path d="M172.5 299.75L173.5 300.75L174.5 302.25L176.5 304.25L178.75 307L180.5 308.75L181 309V305.5L182.25 305.75L181.5 306L182.25 309L183.25 311.25L184 312.75V313.75L182.75 313.25L181.5 312.5L179.5 310.5L179 310.25L178.75 311.25L176.75 308.5L174.75 304.5L172.75 301.75L171.75 300.25L172.5 299.75Z" fill="#323B41"/>
<path d="M269.25 197H269.75L269.5 198.5L266.75 204L264 209.75L260 217.75L258.25 221.75L257.75 222L258.5 219.75L260.25 215.75L264.25 207.75L265.75 204.5L266 203.5L264.75 204.75L262.75 207.25L260.5 210.5L258.75 213L255.25 217.75L253 220.75L252.75 220.25L253.5 219L255.25 216.5L258.25 212.25L259 211H259.5L260 209.75L263.25 205L265 202.5H265.5L266 201.25L268.5 198L269.25 197Z" fill="#77787A"/>
<path d="M261.75 149.25V150L256.75 157.5L253.5 162.75L251.5 166.25L250 170.5L246.5 181.5L246.25 184.75L247.25 210L247.5 212.25L247.25 218.25H247L246.5 210.25L245.5 184.75V182.5L248.25 173.5L250.75 166.25L253.75 161L256.25 157.25L258 154.5L260 151.5L261.75 149.25Z" fill="#78797B"/>
<path d="M272.75 168L275.75 169.25L282 171.25L283.75 172L284 173.5L284.25 174.75L287.75 176.75L290.75 179.5L292.5 181.5L292.75 183.5L291.75 185L291 185.75L291.25 187.5L292 189.25V190L291 189.5L289.5 185.75V184.5L290.25 184.25L290.5 183H291L290.5 181.25L289.5 179.75L288.75 179.25V178.75L287.75 178.5V178L286.5 177.5L286 177.25V176.75L285 176.25L284.25 176L283.5 175L283 173.25L282.75 172.5L280.75 172L279 171.25L278 171.5L277 170.5L276.25 170.25V169.75H274.75L273.25 169L272.75 168Z" fill="#B7EDC6"/>
<path d="M81 366H84.25L86.75 366.5L90.5 368.5L92.25 369.5L91.25 369.75L89 369.5H85.5L81.5 370.25H77.25V369.75L74.5 369.5L74 369L81.25 368.5L82.5 368L82.75 367.5L81.75 366.5L81 366Z" fill="#B7EDC6"/>
<path d="M202 261.5L203.25 262.75L205.5 265.5L209 268.25L211.5 269.75L217 272.25L224.25 274.5L233 276.75L238.25 278.25L241.25 279.5L242.75 280.25V280.75L241.5 280.5L238 279L229.5 276.75L224.25 275.5L217.75 273.5L212.5 271.25L209 269.25L205.75 266.75L203 264L201.75 262L202 261.5Z" fill="#2E373E"/>
<path d="M187.25 288.75L188.75 289.75L192.75 292.75L195.5 294.75L196 295.25V296.5L194 298.25L193 298L189.75 293.75L187.5 290.75V290.25L187 290H187.5L187.25 288.75Z" fill="#F4FBF6"/>
<path d="M190.5 255.5V256.25L188.5 259.5L187.5 261.75V264.5L189.25 267.25L192.25 270.5L196.25 274.5L196.5 275.5L195.75 277.5L194.5 278.5L192 281.75L191 283.75V286.75L192.75 289.5L191.75 289L190.5 287.5L190 286.5V284L191.75 280.5L194 277.25H194.5L195 275.75L194.75 274.25L190 269.5L188 267L186.75 264.75V261.25L188.5 257.75L190.5 255.5Z" fill="#2E373E"/>
<path d="M222.25 177.75L223.25 178L220.75 179.25L219.25 180.25L217.25 182.25L217 184.75V187.25L216.75 188.75L215.75 189.75L215.5 190.75H215L214.5 192H214L213.25 194L213 194.5L213.25 196.75L214.75 198.5V199H215.25V199.75L216.75 200L217 200.5L214.5 199.75L213 198.75L212 197.5L211.25 196V194.25L212.5 191.75L214.75 189.25L216 187.75L216.25 187.25L216.5 182.5L217.5 180.25L219.5 178.75L222.25 177.75Z" fill="#B6ECC5"/>
<path d="M111.5 68L113.25 69.5L115 71.75L116.75 75.25L118.25 79.5H119L121.5 78.25L125.5 76.5L126.25 76.25H128.75L131.75 77.5L133 78.75H131.25L128.75 77.5H126.5L123.25 78.75L118.25 80.75L117.25 80L115.5 75.25L113.5 71.5L111.75 68.75L111.5 68Z" fill="#4F585B"/>
<path d="M175 201.5H175.5V202H176L178.25 208.25V208.75L179.5 208.5L184 206.5L188 204.5L190.75 203.5L192.25 203.25H195L197.5 204L200 205.5V206.25L199.5 206.5L196 204.75L194.5 204.5H192L189.5 205L187.25 206L181.5 208.75L179.5 209.5H178L177 207.5L175 201.5Z" fill="#63716E"/>
<path d="M101.25 366.5L107.5 367L114 367.75L117.75 368H127L136.75 367.5L141.25 367H149.25L154.5 367.75L154.25 368.25L149.5 367.75H142.25L133.25 368.25L131 368.5L130.25 368.25V368.75H117.25L113 368.5L110.5 368L107 367.75L101.25 367V366.5Z" fill="#78797B"/>
<path d="M192.25 319.75L194.5 320L194 321.25H193.5L193.25 322.5L192 325H191.5L190.75 328L190.5 329.75H190V328.25L188.5 329.25L188 329.75V328L188.75 324.5L189.25 324.25L191 320.75L192.25 319.75Z" fill="#93DAA8"/>
<path d="M28.25 353.75L29.75 354V355.25L27.75 357.25L25.75 359L24.75 358.25L21 357.5L20.25 356.75L20 355.25L20.25 355H22.75L24.75 356L25.5 355.75L26.5 354.5L28.25 353.75Z" fill="#77797B"/>
<path d="M307 349.5L308.75 349.75L309.75 350.75L310.75 353.75V354.25H311.5L311.75 353.25L312.5 352.25H313.75L314.25 353L314 354.25L313 355.5L311.5 356.75L306.75 355.75L306.5 354.75L306.75 354.5H308.75L310.75 354.75L308.25 352.75L306.75 350.75L307 349.5Z" fill="#7B7F7E"/>
<path d="M186.25 290.75L187 291.5L184.75 293L176.5 297.25L174 298.25V297.25L175.25 295.5L178.25 293.75L183.25 291.75L186.25 290.75Z" fill="#ECF9F0"/>
<path d="M174.25 305.75L175.5 307L177.5 311L179.5 314.5L182 318L184 319.75L187.75 322.25L188.25 322.75H189L190.75 319.5L191 320L191.75 319.5L192.5 319.75L191.25 320.75L189.25 324.5L188.75 323.75L188.25 324L185.5 322.25L181.75 319.25L179.75 316.75L177 312.25L175 308.5L174.25 305.75Z" fill="#7A7E7E"/>
<path d="M188.5 294.25L189.5 294.5L193 298.5L194.25 299.5L197 303L199.5 306L200.75 305.5L200.5 307L201.5 308.5L201.75 310.25L200.75 309.75L198.5 307.25L196.75 305V304.5H196.25L193.5 301L190.5 297.5L189.5 296.25L188.5 294.25Z" fill="#313940"/>
<path d="M20 350.25L21.75 350.75L23.5 352.25L24.75 353.5L25.25 352L27 350.5L28.75 350.75L29.25 351.5L29 352.5L27.5 353.5L25.5 354.5L24.75 355L23.5 354.75L21.25 353.75L19.75 352.5L19.25 351.75L19.5 350.5L20 350.25Z" fill="#727577"/>
<path d="M68 372H73L74.75 372.25L76 373L75.75 373.75L75.25 374V374.75L73 375.25L72.5 376H74.75L77.25 376.25L78.5 376.75V377H75L67.75 376.5L66.5 376.25L67.25 375.75L71 374.5L72.5 373.5H73V373L65 372.5V372.25L68 372Z" fill="#BCEEC9"/>
<path d="M326 353.25L327.25 353.75V355.25L326.25 356.25L322.5 357.75L321.25 357.5L319.75 356.25L317.75 355L317.5 354.25L318 353.5L320 353.75L322.25 355.75L323.5 355L325.25 353.5L326 353.25Z" fill="#737678"/>
<path d="M108.5 196H113.5L117.25 196.75L124.25 199L126 199.25L127.25 198.25L128 197L128.5 197.25V198.5L126.5 200.25L125 200.5L121 199.25L116.25 197.75L114 197.25L110.25 197L107 197.25L107.75 196.25L108.5 196Z" fill="#515E5E"/>
<path d="M317.5 356.75L319 357L321 358.5L321.25 359.75L325.25 357.75H326.75V359.25L325.5 360.5L321.75 361.25L320.5 361L318.5 359.25L317 358L317.25 357L317.5 356.75Z" fill="#484F54"/>
<path d="M267.5 356.5H269L271.25 358L272 359.75L271.75 361.75L271 362.25H269.75L267.5 360L266.5 358.25V357L267.5 356.5Z" fill="#333B42"/>
<path d="M238.75 138.25L239 139.25L238.75 140V147.25L239.25 157.75L240.75 164.25L241.25 165.75L242.5 164.5L244.75 161.25L248.75 155.25L250.5 152.75L252.25 150L254.25 147L254.5 147.5L252 151.5L250.25 154.25L248.75 156.25L247.5 158.5L245 162L242.25 166L241.25 166.75L240.5 165.75L239 159.75L238.5 155.5L238.25 150.75V139.75L238.75 138.25Z" fill="#78797B"/>
<path d="M71.75 72.5L72.75 72.75L70.5 74.25L69.75 74.5L69.25 75.5L67.5 78.25L65.5 81L58 81.25L55.75 81.75L54 83L52.75 84.75H52V85.25L52.75 85.5L52.5 86L51.5 85.75L51.75 84.5L52.75 83L54 81.75L56 80.5L57 80.25H64.25L65.5 79.5L67.25 76.75L69 74.5L70.75 73L71.75 72.5Z" fill="#52595C"/>
<path d="M316.25 359.75L317.75 360L319.5 361.5L320 362.25L320.25 363.5L321.75 362.5L323.5 362H325.25L325.5 363L324.5 364.25L324 364.5L319.25 364.75L316.25 361.25V359.75Z" fill="#3E474C"/>
<path d="M201.5 309L202.25 310L202 311.25L196 314.5L195.5 315L195 316H194L193.75 317.5L193 319L191.25 318.75L190 317.75V317.25L189.5 316.75L192.25 315.25L194.75 314.25L195.75 314V313.5L198.5 312.25H199V311.75L200.5 311.5L200.75 310.25V309.5L201.75 310.25L201.5 309Z" fill="#4C5257"/>
<path d="M255.25 357.5L256 357.75L257 360.5L257.25 362.75V358.5H257.75L258.25 360L258.75 364L258.5 365.75L257.5 366.75L257 365.5L256 360.5L255.5 359.75L254.25 367.5L253.75 368.25L252.75 367.75L251.5 365.5L251.75 365L252.5 366V366.75L253.75 366.5L254.5 362L255 357.75L255.25 357.5Z" fill="#78797B"/>
<path d="M181.25 305L182.5 305.25L183.75 306.75L184.25 307V307.75H184.75V308.5H185.25V309.25L186 309.5L187 311.25V311.75H187.5L188.5 314.25V315H189L189.5 316.25V317L190.25 317.25V317.75L191.75 318.75H193L194 316L195 315.75L194.75 317.25L194 319.25H194.5V319.75H191.75L191 320L190.75 319.25L189 317.75L186.75 312.5L184.25 309L182.25 306.25V305.75H181.25V305Z" fill="#50555A"/>
<path d="M26.75 368.5H28.5V368.75L27.25 369L27 369.75H27.5L27.75 370.75L29.25 370.5V371H34.25L41 371.5V371.75H35.25L21.75 371.5L18.5 371.25L19.25 370.75L24.5 369.5H26.75L26.5 368.75L26.75 368.5Z" fill="#B8EDC6"/>
<path d="M84.5 209.25L90.5 209.5L92.75 209.75V210H91.5V210.5L92.25 210.75L89 210.5H82.75L80 211.25L77.75 212.5L76 214L74.5 216.25H74L73.5 217.25L73.25 216.5L74.5 214.25L76.25 212.25L79 210.5L81.75 209.5L84.5 209.25Z" fill="#757779"/>
<path d="M317 365.25H318V366.5L320 365.75L322.25 365.5L323.5 366L323.25 367.25L322 369.5L319.75 368.5L316.75 367.75L316 367V366L317 365.25Z" fill="#7C8180"/>
<path d="M139.25 184.25H141.75L141.25 184.75L138.75 185.75L135.5 188L133 190.75L131 194L128.75 198L128.25 197.75L128.5 196L131 191.5L133.25 188.75L135.25 186.75L138.75 184.5L139.25 184.25Z" fill="#4D5659"/>
<path d="M315.25 354.5L316.25 354.75V356.25L315.25 357.75L312 359.75L309.25 359L307.5 358.25V357.25L308.5 357L310.75 357.75L311.75 358L314.25 355L315.25 354.5Z" fill="#63686B"/>
<path d="M31 360.25H32.75L34 361V362L36 362.25L35.75 362.75L33.75 363L34 363.75L35 364.25V365.25L33 366L32.5 367.5H32V363.75L32.75 362L31 362.5L30 363.5L29.5 361.75H30L30.25 360.75L31 360.25Z" fill="#2E373E"/>
<path d="M145 182.75H150.5L156.25 183.75L158.75 184.5V185L157.25 185.25L151 184H144.5L141.75 184.5L140 184.25L140.75 183.75L143.5 183L145 182.75Z" fill="#727677"/>
<path d="M265.75 250H266.5L266.25 251.25L264 255L263.25 255.75L260 255.5H256.25L253.75 256.25L252.5 257H252L252.25 256L254.25 254.75L256 254.25H259.5L261 254.5H263L265.5 250.25L265.75 250Z" fill="#87968E"/>
<path d="M315 358.5H315.75V360.5L315 361.75V362.25L316 363L313.75 363.5V362.75L314 362.25L313 362.5H311.25L308.25 361L308 359.75L310 360L312.5 361L313.5 359.75L315 358.5Z" fill="#4C5458"/>
<path d="M167.5 289.75L169.75 290.25L172.25 291.5L174.25 293.25L174.5 294.25L173.5 293.75L171.75 292.25L169.75 291L171.25 293.5L172.25 295.75L172 296.5V296L170.25 296.25L169.5 294.75V294.25H169L167.75 292V291.25L169.25 291.5L169 291L168 290.75L167.5 289.75Z" fill="#747578"/>
<path d="M271.75 246H275.5L279.75 247L283 248.25V248.75H281L277.25 247.5L274.5 247H272L269 248.25L267.5 249.5L266.5 250.5L266 250.25L266.5 249L268.5 247.25L270.75 246.25L271.75 246Z" fill="#545B5E"/>
<path d="M81 366H84.25L86.75 366.5L88.25 367.25L89.75 368.75H81.25L82.25 368.25L82.75 367.5L81.75 366.5L81 366Z" fill="#F4FBF6"/>
<path d="M216.5 278.75H216.75L216.5 280.75L215.75 283.75L215.25 286.25L214 286.75V286L213 285.5L212.25 284.5V284L213 283.5L213.5 282.25L214.5 281L215.75 279.75L216.5 278.75Z" fill="#2E373E"/>
<path d="M153.25 378.75H156L157 379.25L156.75 380L155.25 380.25V380.75L154 381L153.5 381.5L153.25 382.5H149L149.25 382L151.25 381.5V380L150 379.25L151 379L153.25 378.75Z" fill="#B7EDC6"/>
<path d="M166.5 321.75L169.75 322.5L178 325.25L184 326.75L185.5 327.25V327.5L183 327.25L179.75 326.75L173 324.75L169.25 323.5L167.5 323L166.5 322.5V321.75Z" fill="#636A6B"/>
<path d="M24.25 345L25.75 345.25L26.25 345.75L26 348.25L24.75 351.75L24 351.5L23.25 349V346.25L23.75 345.25L24.25 345Z" fill="#3B4449"/>
<path d="M321.25 348.25L323 348.5L323.75 349.75L323.5 352.5L322.75 354.5H322L320.5 350.5V348.75L321.25 348.25Z" fill="#394147"/>
<path d="M295.75 372.75H299.5L298.75 373.25L297.75 374L298.5 375H294.5L290.75 374.5L290.25 373.75L291 373.25L295.75 372.75Z" fill="#FEFEFE"/>
<path d="M212.25 285.25L213.25 285.5L213.75 286.5L213.5 287L210.5 288.5L204.75 291.75L203.5 292V291.5L208.5 288L212 285.5L212.25 285.25Z" fill="#E5F8EA"/>
<path d="M285.5 365.75H289.5L290.5 366.75L290.75 367.75L289.5 368.5L285 367.75L284 367.25L283.75 366.25L285.5 365.75Z" fill="#2F373E"/>
<path d="M323.5 250H327.5L329.5 251L332.25 253.5L334 257V258.5L333 257.5V257H332.5L331.5 254.5L329.25 252.25L326.75 251L324.75 250.75V250.25L322.75 250.5L323.5 250Z" fill="#4D5859"/>
<path d="M194.5 319.5L196.5 319.75L198.5 320.25H200V320.75H197L195.25 320.5L195 321H194.5L194 322.25L193 324.5L192 327L191.5 328.75L191.25 330.75H190.25L190.75 326.75L191.5 325H192L192.5 323.25L193.25 322.25L193.5 321.25H194L194.25 320.25L193.75 319.75L194.5 319.5Z" fill="#686A6E"/>
<path d="M216.75 309V309.75L215.25 311.5L211.75 315L209.75 316.75L206.25 319.75L205 320L206.5 318L208 316.75H208.5V316.25L210.25 314.75H210.75V314.25L212.75 312.5L213.5 311.75L214.5 311.25L215.5 310L216.75 309Z" fill="#6C6F71"/>
<path d="M196.25 369.5L197.5 369.75L201.75 371.5L204.25 372V372.5L205 372.25L206.75 372.75V373.25H208L208.25 374L207.25 374.25L202 372.75L199.25 372H197L197.25 371.5L198.75 371L196.25 369.75V369.5Z" fill="#757678"/>
<path d="M307.25 364.75L308.75 365.25L310 366.25V366.75L311.5 367.25H312L312.25 367.75H313.5L314.75 368V366.75L315.25 367.25L315 368.75H311.5L309.5 368.5L307.5 366.5L307.25 364.75Z" fill="#777A7B"/>
<path d="M140.25 376.25L141.75 376.5V377L143 377.25L144 377.5L144.75 378.5L146.25 378.75L145.5 379.25L141.25 378.5L139 378L137.25 377.5L135.25 377.25V377L140.25 376.25Z" fill="#B7EDC6"/>
<path d="M111.5 68L113.25 69.5L115 71.75L116.75 75.25L118 78.75L117.75 80H117.25L115.5 75.25L113.5 71.5L111.75 68.75L111.5 68Z" fill="#454F52"/>
<path d="M103.5 64L105.5 64.25L108 65.25L110.75 67L111.5 67.75L112.5 69.5V70.25L110.25 68L106 65.75L102 64.75L101.75 64.25L103.5 64Z" fill="#5C6867"/>
<path d="M169.75 291L170.75 291.5L173 293L174.25 294.5V295L174.75 295.25L173.25 297L172.25 296.5L170.5 292.5L169.75 291.5V291Z" fill="#EAF9EE"/>
<path d="M217.25 278.5L218.25 279L219.5 280.25V281.5L217.25 283.5L216.25 284.5H216L216.25 282.5L217.25 278.5Z" fill="#E8F8EC"/>
<path d="M292 190L292.75 191L295 195L297.5 198.25L299.75 200.75L299.25 201.25L298.5 200.75V200.25H298V199.75L297 199.25L295.25 197.5L295 196.75L294.5 195.75L293.25 194V193.5L292.75 193.25L292 191.5V190Z" fill="#B7EDC6"/>
<path d="M191 342L192 342.25V342.75L192.5 343L193.5 345L196 348.25L197.25 349.5L197.5 350.25H196.25L194.25 348L192.75 346L191 343V342Z" fill="#78797B"/>
<path d="M245.25 354.5L246.25 354.75L248.25 358.25L248 359L246.5 356.75L246.75 360.25L247.75 365.25V366.25L247 366L244.75 361.75L245 361.25L246.5 363.75V362L245.75 358.25L245.25 355.5V354.5Z" fill="#78797B"/>
<path d="M272.75 168L275.75 169.25L282 171.25L283.75 172L284 173.5L283.5 174.5L283 173.25L282.75 172.5L280.75 172L279 171.25L278 171.5L277 170.5L276.25 170.25V169.75H274.75L273.25 169L272.75 168Z" fill="#B7EDC6"/>
<path d="M325.25 357.75H326.75V359.25L325.5 360.5L324.5 360.75H322L322.5 360.5V360L322 359.75L323 358.75L325.25 357.75Z" fill="#40484D"/>
<path d="M20 350.25L21.75 350.75L23 351.75L23.75 353.25V354L21.25 353.75L19.75 352.5L19.25 351.75L19.5 350.5L20 350.25Z" fill="#313940"/>
<path d="M326 353.25L327.25 353.75V355.25L326.25 356.25L324.25 357H323.25L323 356L324 355L324.5 354L326 353.25Z" fill="#41484E"/>
<path d="M57 80.25H63.5L63.75 80.75H56.75L56.5 81.5L54.5 82.5L52.75 84.75H52V85.25L52.75 85.5L52.5 86L51.5 85.75L51.75 84.5L52.75 83L54 81.75L56 80.5L57 80.25Z" fill="#40494D"/>
<path d="M80.75 209.75L81.75 210L80.75 210.25L80.5 211L77.75 212.5L76 214L74.5 216.25H74L73.5 217.25L73.25 216.5L74.5 214.25L76.25 212.25L79 210.5L80.75 209.75Z" fill="#40494E"/>
<path d="M186.25 290.75L187 291.5L184.75 293L183.25 293.75L182.75 293.5L183.25 293L182.5 292.75L182.25 293.25L181.75 293.75L179.5 294L177.25 294.5L178.25 293.75L183.25 291.75L186.25 290.75Z" fill="#B7EDC6"/>
<path d="M192.25 203.25H195L197.5 204L200 205.5V206.25L199.5 206.5L196 204.75L194.5 204.5H191.5V204L192.25 203.25Z" fill="#7A807F"/>
<path d="M233 379H236L235.25 379.75L231.5 381H230.75L229.25 380.75L228 380L228.75 379.5L233 379Z" fill="#FEFEFE"/>
<path d="M24.25 363.25H26.25L27.75 363.75H30L29.5 364.75L26 365.25H24.5L23.25 364.25L23.5 363.5L24.25 363.25Z" fill="#3A4248"/>
<path d="M274 364.25L276.25 364.5V366L277.5 365.75L278 365L278.5 366.75L278.25 367H274.5L273.75 366.5V364.5L274 364.25Z" fill="#B7EDC6"/>
<path d="M31.25 353H31.5L32 354.75L34 356.5L33 356.75L32.5 356.25L31.25 356.5L30.25 357.25L28.25 357.5L26.25 359.75H25.25V359.25L24.75 359L26.5 358.5L27 357.5L29.5 355.25L30 356.25H30.75L31.25 355.75V353Z" fill="#B7EDC6"/>
<path d="M186 292L187.25 292.25L187 292.75L186 293L185.25 293.75L183 294.75L177 297.75L176.5 297.5V297L182.5 294L186 292Z" fill="#464C51"/>
<path d="M265.5 205.5L265.75 206.25L260 217.75L258.25 221.75L257.75 222L258.5 219.75L260.25 215.75L265.25 205.75L265.5 205.5Z" fill="#78797B"/>
<path d="M320.25 366H322L323.25 366.25L323 367.5L322 368H321.5L320.5 368.25L317.5 367.75L317.25 366.75L317.5 366.25L318 367L318.75 367.25L319 366.5L320.25 366Z" fill="#2F383E"/>
<path d="M28.5 352.5L29 352.75L30 353.75V355.25H29.75V354L27.5 354.25L26 355.25L25.25 356.25L21.5 355L22 354L23.5 354.5L24.75 354.75L26.75 353.5L28.25 352.75L28.5 352.5Z" fill="#BCEECA"/>
<path d="M307 349.5L308.75 349.75L309.75 350.75L310.25 352.5L310 353.5L308.25 352.75L306.75 350.75L307 349.5Z" fill="#424A4F"/>
<path d="M139.25 184.25H141.75L141.25 184.75L138.75 185.75L135.5 188L134.5 189L133 189.5L133.5 188.5L135.25 186.75L138.75 184.5L139.25 184.25Z" fill="#454D51"/>
<path d="M20.5 355.25L22.5 355.5L24 356.5V356.75H26L26.25 357.5L25 358L21.75 357.75L20.5 357.25L20.75 355.75L20.5 355.25Z" fill="#333B42"/>
<path d="M216 322.25H216.5L217.75 326.25L219.25 328.25L220.25 329.25V330L219 329.5L217 327.25L215.75 324.25V322.75L216 322.25Z" fill="#77787A"/>
<path d="M194.5 315.75H195L194.75 317.25L194 319.25H194.5V319.75H191.75L191 320L190.75 319.25L189 317.75V316.5L190.25 317V317.75L191.75 318.75H193L194 316L194.5 315.75Z" fill="#454B51"/>
<path d="M222.25 177.75L223.25 178L220.75 179.25L219.25 180.25L217.25 182.25L217 184.75V187.25H216.5V182.5L217.5 180.25L219.5 178.75L222.25 177.75Z" fill="#B7EDC6"/>
<path d="M228.25 108.75H228.5L228.75 123.5V135.75L227.5 135.25L227.25 134.75L228.5 135L228.25 125.25V108.75Z" fill="#78797B"/>
<path d="M99.5 367.25H102.25L105.5 367.75L106 368.25L104 368.75H101L98.75 368.5L99.25 367.5L99.5 367.25Z" fill="#FBFDFC"/>
<path d="M189.5 328.25H190V330.75L192.75 332L192.5 332.5L188.75 331.75L187.75 330.75L188 329.75L189.25 328.5L189.5 328.25Z" fill="#B2EBC2"/>
<path d="M172.5 299.75L173.5 300.75L174.5 302.25L176.5 304.25L178.25 306.25L178 306.75L176.5 305.5L175.75 305.25L175.25 305.5L173.75 303L171.75 300.5L172.5 299.75Z" fill="#7B7D7E"/>
<path d="M198.5 266H199.25V266.5H198.75L199 266.75L200.25 267.25L201 267.75L198.75 268.5L197.5 269.75L196.75 269.5L196.5 267.75L197.75 266.5L198.5 266Z" fill="#78797B"/>
<path d="M74.5 344.75L75.75 345L84.75 349.75L86.5 350.75L85.75 351L78.5 347.5L74.5 345V344.75Z" fill="#2E373E"/>
<path d="M193.75 315.5L194.25 316L193.25 318.75L193 319L191.25 318.75L190.5 318L190.75 317L193.75 315.5Z" fill="#EBF9EF"/>
<path d="M181 305.5L182.25 305.75L181.5 306L182.25 309L183.25 311.25L184 312.75V313.75L183 313.25H183.5L182 310.5L180.5 309.5L178.25 307.25L178.5 306.75L180.5 308.75L181 309V305.5Z" fill="#77787A"/>
<path d="M288.25 355.75H295V356L289.5 356.25L289.25 357L290.5 357.25L289.75 357.75L288.5 358.25L287 359.5L286.5 360.75L286 361V359.5L286.5 359.25L287.5 357.25L288.25 355.75Z" fill="#797B7C"/>
<path d="M174.25 305.75L175.5 307L177.5 311L178.75 313.25V314.25L178 314L175.5 309.5L174.25 306.25V305.75Z" fill="#535F5F"/>
<path d="M107.75 377L113 377.5V377.75L110.25 378.25L106.75 378.5H100V378.25L105.5 378L106.75 377.25L107.75 377Z" fill="#B7EDC6"/>
<path d="M316.25 359.75L317.75 360L319.5 361.5L319 362.5L318.75 363.5L317.75 363L316.25 361.25V359.75Z" fill="#3D444A"/>
<path d="M203.25 314.75H203.75V316L203.25 316.25L203 317H202.5L202.25 318L200.75 320.75L201.5 321V321.5L198 321V320.75H200L200.25 319.25L202.75 315.5L203.25 314.75Z" fill="#474D53"/>
<path d="M307.75 362.25L309.25 362.5L311.5 364.25L312.5 364.75L312.25 365.25L310.75 365L310.5 365.5L308 363.75L307.75 362.25Z" fill="#4B5156"/>
<path d="M38.75 346.5L39.75 346.75L40 347.75L38.5 349.75H37V348.25L38 346.75L38.75 346.5Z" fill="#3E454B"/>
<path d="M222 305.25H222.5L222.25 306.75L221.5 308H221V308.5L219.25 309.5H218.75L219 308.5L219.75 307.5L220 306.5L222 305.25Z" fill="#B4ECC3"/>
<path d="M324 250H324.75V250.5L321 252L318 253.5H317.5L317.25 252.75L322 250.25L324 250Z" fill="#41494E"/>
<path d="M242.75 359L243 359.75L241.25 364.25L240.5 365.5H240.25L240 362.25L238 364H237L237.25 363.25H238.25L238.75 362.25H239.25V361.75H240.5V363L241.5 362L242.75 359Z" fill="#78797B"/>
<path d="M176.25 306.75L177.5 307.75L178.75 309L181.25 311.25L182.5 313L181.5 312.5L179.5 310.5L179 310.25L178.75 311.25L176.75 308.5L176.25 306.75Z" fill="#E5F8EB"/>
<path d="M214.25 302L215 302.25L214.25 303L213.5 304.25L210.25 307.25L210 307.75L209 308.25L208.75 308.75H208.25L208.75 307.75L211.75 304.5L214.25 302Z" fill="#54595D"/>
<path d="M265.75 250H266.5L266.25 251.25L264 255L262.5 255.5L262 255.25V254.75L263 254.5L265.5 250.25L265.75 250Z" fill="#777A7B"/>
<path d="M316.5 370.25H320.5L320.25 371.25L319.25 371.75L316.5 371.5L314.75 371L315.25 370.5L316.5 370.25Z" fill="#4A5055"/>
<path d="M232.25 286.25H237.5L240 287.5L242.25 289.25L242 289.75L239.25 287.75L237.75 287L236.25 286.75H233.75L230.75 287.75L229 289L229.5 288L231.75 286.5L232.25 286.25Z" fill="#2E373E"/>
<path d="M170.5 193.25L171.75 194.5L173.5 197L175.75 201.25L175.5 202V201.5L174.75 201.25L172.5 197L170.5 194V193.25Z" fill="#41494E"/>
<path d="M274.5 351.75H276.25L274.75 356L275.5 355.75L276.25 355L275.75 356.25L275 357L274 356.75L273.5 355V354.5L274.25 354.25L274.75 353L274.5 351.75Z" fill="#7B7F7F"/>
<path d="M193 323.5L193.25 324L192.25 326L191.5 328.75L191.25 330.75H190.25L190.75 326.75L191.5 325L192 325.25L193 323.5Z" fill="#77787A"/>
<path d="M165.25 289L167.5 289.5L168.25 290.75H169.25L169.5 291.75L167.75 291.25V292L166.75 292.25L165.25 289.75V289Z" fill="#40484D"/>
<path d="M312.5 352.25H313.75L314.25 353L314 354.25L313 355.5H312V355L311.5 354.75L312 354.5L312.5 354.75L311.75 353.75L312.25 352.5L312.5 352.25Z" fill="#444B50"/>
<path d="M166.5 321.75L169.75 322.5L174 324L174.25 324.5L171.5 324.25L169 323.25L166.75 322.75L166.5 321.75Z" fill="#505A5C"/>
<path d="M22.75 359.25L24.25 359.75L25.25 360.25L25 361L24.75 361.5H22.5L21.5 360.75L22 359.5H22.75V359.25Z" fill="#353D44"/>
<path d="M285.75 244L286.75 244.25L285.25 247L283.75 249L282.75 249.25L281.5 249V248.75L283 248.5L285.75 244Z" fill="#585D61"/>
<path d="M127.5 76.25L129.5 76.5L132.5 78L133 78.75H131.25L127.25 76.75L127.5 76.25Z" fill="#3E454B"/>
<path d="M323.5 250H327.5L329.5 251L329.75 251.75L329.25 252.25L326.75 251L324.75 250.75V250.25L322.75 250.5L323.5 250Z" fill="#586163"/>
<path d="M271 246.5L271.5 247L268.75 248.5L267.5 249.5L266.5 250.5L266 250.25L266.5 249L268.5 247.25L269.5 246.75L271 246.5Z" fill="#3E484C"/>
<path d="M247.5 211.5L249.25 212.75L250.5 214.5L251.25 216.75L250 215.5L249 214.25L247.5 213.5H247.25L247.5 211.5Z" fill="#C5F0D1"/>
<path d="M190.75 203.5H192.5L191.5 204V204.5L188 205.5L186.75 206.25H186L186.25 205.25L189.75 203.75L190.75 203.5Z" fill="#50565A"/>
<path d="M153.75 380.25H154.25L153.75 381.25L153.25 382.5H149L149.25 382L151.25 381.5L151.5 381L153.75 380.25Z" fill="#B7EDC6"/>
<path d="M296.75 238L301 238.25L303.75 239.25L304.5 240L299.5 239L295.5 238.75V238.25L296.75 238Z" fill="#7D8281"/>
<path d="M128 197L128.5 197.25V198.5L126.5 200.25L124.75 200L123.25 199.25L122 199V198.5L126 199.25L127.25 198.25L128 197Z" fill="#545C5E"/>
<path d="M97.5 63.25H100L103.5 63.75V64.25L101.75 64.5H99.75L98.25 64.25V63.75H95.75V63.5L97.5 63.25Z" fill="#7F8584"/>
<path d="M285.25 363.75L286 364L286.25 365L289.25 365.5V365.75L285.5 366L283.75 366.25L284.75 364.25L285.25 363.75Z" fill="#78797B"/>
<path d="M28.75 360.5H29.5L29 361.5L28.5 363H24.5L25 362L27.75 361.75L28.75 360.5Z" fill="#C5F0D1"/>
<path d="M308 357L310.25 357.5L310.75 357.75V358.25L312 358.5L311.5 359H309.25L307.5 358.25V357.25L308 357Z" fill="#4D5458"/>
<path d="M291.25 348.5L292.75 349L291.75 351L290.75 352.5H290.25L290 353.75L289.25 353V351.75L289.5 352.25H290.25L291 349.75L291.25 348.5Z" fill="#7F8583"/>
<path d="M318 354L318.5 354.25V354.75H320.25L321.5 355.5L322 356.5L321.75 357L320.25 356.5L318 355.25L317.5 354.25L318 354Z" fill="#394047"/>
<path d="M27 350.5L28.75 350.75L29.25 351.5L29 352.5L27.5 353.5L26.25 353.75L26.75 353L28.25 352.25H28.75L28.5 351.5L27.25 351.75L25.5 352.75H25L25.5 351.75L27 350.5Z" fill="#7B7E7E"/>
<path d="M195.5 314.25L196 314.5L195.5 315L195 316L193.75 315.75L191.5 317H190.75L190.25 318L190 317.25L189.5 316.75L192.25 315.25L194.5 315L195.5 314.25Z" fill="#707274"/>
<path d="M228.5 289L229 289.25L228 290.75L227 292.75L225.25 298.75L224.75 299.25L224.5 298.25L225.25 296.75L226 293.75L227.25 290.75L228.5 289Z" fill="#2E373E"/>
<path d="M84.5 209.25H86.5L86 209.75L86.75 210.25L82.75 210.5L80.75 210.75V210.25L81.75 210V209.5L84.5 209.25Z" fill="#808D87"/>
<path d="M194 246L194.75 246.25L194 246.75H193.25L192.75 247.75L190.25 249.25L189.75 249.75L188.5 250.25L187.75 251H187.25V250.5L191 247.75L194 246Z" fill="#434B50"/>
<path d="M272.75 168L275.75 169.25L279.5 170.5V171L278 171.5L277 170.5L276.25 170.25V169.75H274.75L273.25 169L272.75 168Z" fill="#B4ECC4"/>
<path d="M319.25 362L320 362.25L320.25 363.5H320.75L321.5 364.5L321.25 364.75H319.25L318.5 364V362.75L319.25 362Z" fill="#6C6F71"/>
<path d="M96 207.5L96.5 208.25L94.75 210.75H92.25L91.5 210.5V210H94.25L94.75 209L95.5 208.5L96 207.5Z" fill="#535B5D"/>
<path d="M57 80.25H63.5L63.75 80.75H56.75L56.5 81.5H55.25L55.5 80.75L57 80.25Z" fill="#4F5559"/>
<path d="M27.75 351.25L28.75 351.5V352.25L26.25 353.5L25 353.75V352.75L27.25 351.5L27.75 351.25Z" fill="#2E373E"/>
<path d="M142.75 159.5L143.25 159.75L142.25 160.75L142 161.75L142.75 162V162.5L144.25 163V163.5L145 163.75L143.25 163.5L141.75 162.75L141 161.75L141.25 160.75L142.75 159.5Z" fill="#B7EDC6"/>
<path d="M101 346L101.5 346.25L101 346.75L101.25 347.75L103.75 350.5L103.5 351L101.75 349.25V348.75L100.75 348.25L99.75 348L98.5 348.25L99.5 346.75L101 346Z" fill="#2E373E"/>
<path d="M28 366.5L30.75 367.25L30.25 367.75L29.25 368H26.75L26 367.75L26.5 366.75H27.75L28 366.5Z" fill="#333B42"/>
<path d="M188.75 323.5L189.25 323.75L188.25 328L187.25 328.25L185.75 327.75V327.5L187 327.25L188.5 323.75L188.75 323.5Z" fill="#545C5E"/>
<path d="M28 354.5L29 354.75L28.5 355.75L27 357L26 356.75L26.25 355.75L27.25 354.75L28 354.5Z" fill="#2E373E"/>
<path d="M151 379.5H155.25L154.5 380.25L152.25 381H151.5L151 379.5Z" fill="#FEFEFE"/>
<path d="M89.25 67.75H89.75L89.5 69L87.25 72.5L86.25 74L86 73.5L88.5 68.75L89.25 67.75Z" fill="#474E53"/>
<path d="M321.75 367.5H322.5L323 367.75L322 369.5L319.75 368.5L317.5 368V367.75H319.25L320.75 368L321.75 367.5Z" fill="#879D8F"/>
<path d="M275.25 362.5L275.75 363.5L278 364.25L279.25 366.5L280.25 367H279L278.25 366.5L277.5 364.75L276.5 364.5H275.25L275 363.25L275.25 362.5Z" fill="#78797B"/>
<path d="M207.75 288.5L208.25 288.75L207.25 289.75L207.75 290L204.75 291.75L203.5 292V291.5L207.75 288.5Z" fill="#B8EDC6"/>
<path d="M33.25 349L34.25 349.5L35 350.25H34.5V351L33.5 351.25V350.75H33L33.25 351.75L32.5 351V349.75L33.25 349Z" fill="#7B7F7E"/>
<path d="M189 316.5L190.25 317V317.75L192.5 319.25L191.5 320H191L190.75 319.25L189 317.75V316.5Z" fill="#41484D"/>
<path d="M139.25 184.25H141.75L141.25 184.75L138.75 185.75L137.25 186.5L137.5 185.5L138.25 184.75L139.25 184.25Z" fill="#525B5D"/>
<path d="M197.25 312.75H198.75L198 313.5L195.25 314.75L193.5 315.5L192.75 315.25L195.25 314H195.75V313.5L197.25 312.75Z" fill="#53585D"/>
<path d="M199 270.5H199.5L200.25 271.5L201.25 271.25L202 270.75H202.75V271.75L200.25 272.5L199.25 272L199 270.5Z" fill="#78797B"/>
<path d="M258 359.5L258.75 360L260.25 359.75L260 361.75L259.25 362.5H258.75L258.25 360.25L258 359.5Z" fill="#FBFDFC"/>
<path d="M197.25 349L199.25 350.5L199.75 351.25H198.25L198 351.75L197 351L197.5 349.75L197 349.5L197.25 349Z" fill="#B5ECC5"/>
<path d="M170.25 290.75L171.5 291L173.75 292.75L174.5 294H173.75L171.75 292.25L170.25 291.25V290.75Z" fill="#43494F"/>
<path d="M293.25 341.25L294.5 341.5L293.5 345.25L293 345.5L292.75 344.25L293.25 341.25Z" fill="#838E88"/>
<path d="M180.5 295H181.25L181 295.75L177 297.75L176.5 297.5V297L180.5 295Z" fill="#464C51"/>
<path d="M290.25 366.5L291 366.75V368.25L290.5 368.75H288L285.5 368.25L285.25 367.75L288 368L289.75 368.25L290.5 367.5L290.25 366.5Z" fill="#78797B"/>
<path d="M307.25 364.75L308.75 365.25L309.75 366V366.75L308.75 366.5V367L307.75 366.75L307.25 366V364.75Z" fill="#464D52"/>
<path d="M209.25 307.75H209.75L209.25 308.75L207 311.5L206.5 310.5L208 308.5L208.75 308.75L209.25 307.75Z" fill="#767779"/>
<path d="M195.25 203.5L197 203.75L199.75 205.25L200.25 206L200 206.5L198.75 206L197.75 205L195.25 203.75V203.5Z" fill="#555C5F"/>
<path d="M66.25 79.25V80L65.5 81L56.75 81.25V80.75L65 80.5L66.25 79.25Z" fill="#7C8180"/>
<path d="M43.5 365.5H43.75V367L42.5 367.5L41.25 366.75L40.75 366L43.25 365.75L43.5 365.5Z" fill="#FEFEFE"/>
<path d="M275.75 344.75L276.25 345.25L276 345.5L275.75 349.25L275 348.25L274.75 346L274.25 345.25L275.75 344.75Z" fill="#828C87"/>
<path d="M179.75 326L181.75 326.25L185.25 327L185.5 327.5L183 327.25L179.75 326.75V326Z" fill="#51595C"/>
<path d="M300 201.25L301.25 202.5L302.75 205L303 206.25L302 205.25L301 203.75L299.75 202.25L300 201.25Z" fill="#B7EDC6"/>
<path d="M97.75 63.5L98.5 63.75L98 64.5L93.75 65L94.5 64.25L95.5 63.75L97.75 63.5Z" fill="#3E454B"/>
<path d="M31.25 356.75L32.5 357L34 358.25V358.75L32.25 358.5V358L31 357.75L31.25 356.75Z" fill="#2E373E"/>
<path d="M38.75 351.75L40 352V353H37.25L36.75 352.5L37.5 352L38.75 351.75Z" fill="#494F54"/>
<path d="M196.5 267.25L196.75 267.75L197 269.5L198 269L198.75 268.25L199.25 268.5L198.25 269.75L197 270.5L196.5 271L195.75 268.75L196 268L196.5 267.25Z" fill="#B9EDC8"/>
<path d="M292.75 238L295.5 238.25V238.75L293 239.25H290.5L291.5 238.5L292.75 238Z" fill="#5F6567"/>
<path d="M36.75 348.75L37 349.75H38.25L37.75 351.25L38.25 351.5L37 352L36.5 351.25V349.5L36.75 348.75Z" fill="#8CA194"/>
<path d="M190.75 319.5L191 320L191.75 319.5L192.5 319.75L191.25 320.75L190.25 322.5L189.25 323L189.5 321.75L190.75 319.5Z" fill="#6D6F72"/>
<path d="M121 198.25L122 198.5V199L123.75 199.25L125.5 200.25L125 200.5L121 199.25V198.25Z" fill="#4F595B"/>
<path d="M268.5 351H270L269.75 351.75L268.75 352.25V354.25L267.75 353.25L267.5 352.25L268.5 351Z" fill="#7B7F7F"/>
<path d="M200.25 290.25L201.25 290.5L201 291L198.75 291.75H197L196.5 291.25L200.25 290.25Z" fill="#2E373E"/>
<path d="M165.5 322H166.25L166.5 324L168 326.5L167.75 327L166 324.25L165.5 323.25L163.75 322.75V322.5H165.5V322Z" fill="#7A7D7E"/>
<path d="M291.5 239H292V239.5L289 241.25L288.5 240.5L290 239.25L291.5 239Z" fill="#475154"/>
<path d="M312 357.75L312.25 358.25L313.25 358.5V359L312 359.75L310 359.25L310.25 358.75H311.75L310.75 358L312 357.75Z" fill="#7A7D7E"/>
<path d="M29.25 357.5L30 357.75L29.5 359L28.25 359.75L27.75 360.25L27.5 359.25L28.25 358.25H28.75V357.75L29.25 357.5Z" fill="#2E373E"/>
<path d="M315 252.5H315.75L316.5 254L317.25 253.75L317.5 254.75L316 255L315 253.5V252.5Z" fill="#63716E"/>
<path d="M271.75 246H275.5L274.5 246.75L271.5 247L271 246.75L270 246.5L271.75 246Z" fill="#7A7D7E"/>
<path d="M185.75 205.5L186.25 205.75V206.5L183.25 208H182.75L183 207L185.75 205.5Z" fill="#66696C"/>
<path d="M167.75 190L169.5 191.5L170.75 193.25L170.25 193.75L168 191.25L167.25 190.25L167.75 190Z" fill="#5B6867"/>
<path d="M307.25 355H309.25L310.75 355.75V356.25L307.5 356V355.5L307 355.25L307.25 355Z" fill="#323B41"/>
<path d="M32.25 353.25L33.25 353.5L33.75 354L34.25 355.75L33.25 355.5L32.75 354.5L32 354.25L32.25 353.25Z" fill="#2E373E"/>
<path d="M182.5 207.25L183 207.5L182.75 208.25L180 209.25H179.25L179.5 208.5L182.5 207.25Z" fill="#474F53"/>
<path d="M72 345.75L73.25 346.75L72.75 348.75L72.25 349L71.75 348.75V347.25L72 345.75Z" fill="#363E44"/>
<path d="M201.5 318.75H202L202.25 319.5L202.75 319.75V320.5L203.5 320.75L201.75 321V320.5H200.75L201.25 319.5L201.5 318.75Z" fill="#B0EAC1"/>
<path d="M254.25 254.75H255L254.75 255.75L252.5 257H252L252.25 256L254.25 254.75Z" fill="#4B5256"/>
<path d="M194.5 320.5L194.75 321L192.5 324.75L191.75 325.75L192 324.5L193 322.5L193.5 321.25H194V320.75L194.5 320.5Z" fill="#2F383F"/>
<path d="M175 201.5H175.5V202H176L177.25 205.5L176.25 205.25L175 201.5Z" fill="#5E6A69"/>
<path d="M37.5 360H39L38.75 360.75L37 361.75H36.25L36.5 360.75H37V360.25L37.5 360Z" fill="#363E45"/>
<path d="M315.25 354.5L316.25 354.75V356.25L315.5 357L314.75 355.75V355.25L314.25 355L315.25 354.5Z" fill="#D6F4DE"/>
<path d="M274.5 351.75H276.25L275 355.25L274.25 354.75L274.75 352.25L274.5 351.75Z" fill="#89998F"/>
<path d="M170.5 193.25L171.75 194.5L173.25 196.75L172.75 197.5L171 194.75L170.5 194V193.25Z" fill="#4E5458"/>
<path d="M34.5 366.25H36L36.75 367.25L36.5 367.5H34.75L34 367V366.5L34.5 366.25Z" fill="#FEFEFE"/>
<path d="M38.25 362.25L39.25 362.5L38.75 363.75L37.75 364.5H37L37.25 363.25L38.25 362.25Z" fill="#2E373E"/>
<path d="M267.5 356.5H269L269.5 357L268 357.5L267.5 357.25L267.25 358.25L266.75 358.75L266.5 357L267.5 356.5Z" fill="#7B7E7E"/>
<path d="M193 319.75L194.5 320L194 321.25L192.75 321.75L192.25 320.25L193 319.75Z" fill="#AEE7BE"/>
<path d="M274.5 364.75H276L276.25 366L277.25 366.25H275.5L274.25 365.75L274.5 364.75Z" fill="#FEFEFE"/>
<path d="M314.75 361.25L315 362.25L316 363L313.75 363.5V362.75L314 362.25L312.75 362.5V362L314.75 361.25Z" fill="#87958D"/>
<path d="M198.5 351.5L199.75 351.75L201.25 353V353.5L200 353.25L198.75 352.5L198.5 351.5Z" fill="#78797B"/>
<path d="M249 107.75L249.5 108L248.5 109.25L246.25 112.75L245.75 112.5L247.75 109.25L248 108.5L249 107.75Z" fill="#B2EBC2"/>
<path d="M200 265.75H200.5L201.5 267.5H200.25L199 266.75V267.25L198.5 267L199.25 266.25L200 265.75Z" fill="#2E373E"/>
<path d="M284.5 246.75L285 247.25L283.75 249L282.75 249.25L281.5 249V248.75L283 248.5L284 247L284.5 246.75Z" fill="#7F8A85"/>
<path d="M31 358.5L32 358.75L32.25 359.5L29.5 360.25L30 359L31 358.5Z" fill="#B7EDC6"/>
<path d="M291.75 358H293.5L295 358.5L294.25 358.75H292.25L289.25 359.25L289.75 358.75L291.75 358Z" fill="#808784"/>
<path d="M34.5 350.25L35.25 350.5L35 352.25L33.75 352L33 351.25V350.75H33.5V351.25L34.5 351V350.25Z" fill="#2F383F"/>
<path d="M24.25 345L25.25 345.25L24.75 346.5L23.75 347L23.25 347.5L23.5 345.75L24.25 345Z" fill="#797B7C"/>
<path d="M222.25 304.25H223L222.75 306.5L222.25 307.5L221.75 307.25L222.5 305.25L221 306L221.5 305L222.25 304.25Z" fill="#94DEA9"/>
<path d="M294.25 334.5L295 335L294.75 337.25L294.25 337.75L294 337.5V335.25L294.25 334.5Z" fill="#6D7273"/>
<path d="M273.25 219.75L274.75 220L277.5 222.25L277.25 222.75L273.25 220V219.75Z" fill="#B7EDC6"/>
<path d="M266.75 378H271.5V378.25L267 378.5L266.25 378.75L265.5 380.25L265.25 379.25L265.5 378.5L266.75 378Z" fill="#BCEECA"/>
<path d="M322.75 352.25L323.25 353.25L322.75 354.5H322L321.5 352.5L322.75 352.75V352.25Z" fill="#777A7B"/>
<path d="M256 254.25H259.5L260.5 254.75L258.75 255L256 254.75V254.25Z" fill="#3A4147"/>
<path d="M120.5 78.75L121 79L119.75 80.25L118 80.75L117.5 80L118.25 79.5H119L120.5 78.75Z" fill="#7F8E86"/>
<path d="M103.5 64L105.5 64.25L105.25 64.75L103.25 65L101.75 64.5V64.25L103.5 64Z" fill="#495456"/>
<path d="M310.25 363.5L311.25 364L312.5 364.75L312.25 365.25L310.75 365L310.5 365.5L309.75 364.75L310.25 364.5V363.5Z" fill="#757879"/>
<path d="M273.5 339H274.75V342.25H274.25L274 341.25V339.25L273.5 339Z" fill="#7F8583"/>
<path d="M174.25 305.75L175.5 307L176 308.5L175.75 309H175.25L174.25 306.25V305.75Z" fill="#7D8B85"/>
<path d="M285.25 363.75L286 364L286.25 365L286.75 365.25L284.25 365.5L284.75 364.25L285.25 363.75Z" fill="#D9F5E1"/>
<path d="M194.75 250L195.25 250.25L195 253.5L194.75 254H194.25L194.5 250.75L194.75 250Z" fill="#2E373E"/>
<path d="M122 198.5L125.5 199.25L126.5 200.25L124.75 200L123.25 199.25L122 199V198.5Z" fill="#9DBEA8"/>
<path d="M200.5 319.5L200.75 320.5L201.5 321V321.5L198 321V320.75H200V319.75L200.5 319.5Z" fill="#323A41"/>
<path d="M129.25 77.5H130.5L131.75 77.75L133 78.5V78.75H131.25L129.25 77.75V77.5Z" fill="#7B7F7F"/>
<path d="M20 350.25L21.75 350.75V351L20.25 351.25L20 352.5L19.25 351.75L19.5 350.5L20 350.25Z" fill="#8B9690"/>
<path d="M194.5 315.75H195L194.75 317.25L194.25 318.25H193.5L194 316L194.5 315.75Z" fill="#51575B"/>
<path d="M179.25 309.5L181 311L182.5 313L181.5 312.5L179.5 310.5L179.25 309.5Z" fill="#A7B5AC"/>
<path d="M219.25 306.25H220L219.75 307.25L218.25 308.25L217.5 309L217 308.75L219.25 306.25Z" fill="#4D5357"/>
<path d="M211.75 305V305.75L210 307.75L209 308.25L208.75 308.75H208.25L208.75 307.75L211.75 305Z" fill="#3D454A"/>
<path d="M37.25 357.25H38.75L38.5 358L36.5 358.75L36.25 357.75L37.25 358V357.25Z" fill="#3B4349"/>
<path d="M219.75 295.25L220.75 295.5L221 296.75L219.75 297.25L219.5 296.25L219.75 295.25Z" fill="#2E373E"/>
<path d="M194 246L194.75 246.25L194 246.75H193.25L192.75 247.75L192 248.25L191.25 248L192.25 247L194 246Z" fill="#3B4349"/>
<path d="M274 246.25H277L277.25 246.75L276.75 247H274.5V246.5L274 246.25Z" fill="#40494D"/>
<path d="M67 77.25L67.25 77.75L66 79.75L65 80.75L64 80.5L65.5 79.5L67 77.25Z" fill="#5C6064"/>
<path d="M282.5 345.5L283 346.5L283.75 346H285.25V346.25H284L283.75 346.75L283.25 347.5L282.75 348H282.25L282.5 345.5Z" fill="#78797B"/>
<path d="M175.5 305.75L176.75 306.25L178.75 308.75H178L176.5 307L175.5 306V305.75Z" fill="#7E8482"/>
<path d="M158.75 184.75L160.25 185L160 186L157.5 185.25V185L158.75 184.75Z" fill="#505D5D"/>
<path d="M201.5 309L202.25 310L202 311.25L201.25 311H200.5V310L200.75 309.5L201.75 310.25L201.5 309Z" fill="#78797B"/>
<path d="M217.25 298.25L218 298.5L216.75 299.5H215.75L214.75 300L214 299.75L217.25 298.25Z" fill="#B7EDC6"/>
<path d="M183.75 293.25L184.25 293.5L182.75 294.5V295L181.25 295.5L181 294.75L183.75 293.25Z" fill="#616568"/>
<path d="M230.75 287.5L231.25 287.75L228.25 290.75V290L229.75 288.25L230.75 287.5Z" fill="#829F8C"/>
<path d="M365.75 153.5H366L366.25 156.25L366 158L365.5 157.5V154.25L365.75 153.5Z" fill="#B7EDC6"/>
<path d="M88 70.25L88.5 70.5L86.25 74L86 73.5L87.5 70.5L88 70.25Z" fill="#63696B"/>
<path d="M273.5 358.5H274.25V359L274.75 359.25L274 360.5L273.25 360.75L273.5 358.5Z" fill="#7A7D7D"/>
<path d="M289 356.5L289.25 357L290.5 357.25L289.75 357.75L288.5 358.25L287.75 358.75L288.25 357.5L289 356.5Z" fill="#DEF6E4"/>
<path d="M72.25 343L72.75 343.25L73.25 344.75H72.75V345.25H72.25L71.75 343.5H72.25V343Z" fill="#2E373E"/>
<path d="M191 316L191.5 316.25V317H190.75L190.25 318L190 317.25L189.5 316.75L191 316Z" fill="#78797B"/>
<path d="M216 300.5L216.5 301L214.25 303.5V302.75L215.25 301.25L216 300.5Z" fill="#757678"/>
<path d="M263.5 254H264.25L264 255L262.5 255.5L262 255.25V254.75L263.25 254.25L263.5 254Z" fill="#5E6265"/>
<path d="M272.75 168L276.25 169.5V169.75H274.75L273.25 169L272.75 168Z" fill="#B7EDC6"/>
<path d="M312.75 370.75L313.75 371.25L311.75 372.5H311L311.25 371.75L312.75 370.75Z" fill="#CBF1D6"/>
<path d="M37.5 361.5L37.75 362.25L37 362.5L36.5 363.75L35.75 364L35.25 363.75V363.25L37.25 362L37.5 361.5Z" fill="#B7EDC6"/>
<path d="M37.5 354.75L38.75 355L38 355.75H36.25L36.5 355L37.5 354.75Z" fill="#303940"/>
<path d="M177.5 312H178L178.75 313.25V314.25L178 314L177.25 312.5L177.5 312Z" fill="#676C6E"/>
<path d="M244 282.75L244.75 283.25L245 285.25H244.25L243.75 283L244 282.75Z" fill="#2E373E"/>
<path d="M265.75 250H266.25L265.75 251.5L264.5 252.75V252L265.25 250.5H265.75V250Z" fill="#4A5256"/>
<path d="M119.5 197.75L121 198L121.25 198.75L120.25 199L118.75 198.5L119.5 198.25V197.75Z" fill="#83978C"/>
<path d="M208.25 373.5L211 374V374.25L208 374.5L207.75 374H208.25V373.5Z" fill="#78797B"/>
<path d="M306.75 354.5H308.75L309.25 355L307.25 355.25L307.5 355.75L306.5 355.5L306.75 354.5Z" fill="#78797B"/>
<path d="M32.75 351.5L34 352.75L33 353H31.5L32.75 351.5Z" fill="#B7EDC6"/>
<path d="M255 254.5L256.25 254.75L257.75 255V255.25L254.75 255.75L255 254.5Z" fill="#91A899"/>
<path d="M201.5 318H202L201.5 319.5L200.75 320L200.25 319.75L200.75 318.5L201.5 318Z" fill="#555A5E"/>
<path d="M205.25 248.5L206.25 248.75V249.25L207.25 249.75L208 251L207 250.5L205.25 248.75V248.5Z" fill="#2E373E"/>
<path d="M195.25 203.5L197 203.75L198.25 204.5L198.5 205.25L197.25 204.75L195.25 203.75V203.5Z" fill="#41484E"/>
<path d="M96.75 154.25L97 154.75L95.75 155V155.5L94.5 155.75L94.25 155L96.75 154.25Z" fill="#B7EDC6"/>
<path d="M74.25 72H77V72.25H74.25V72Z" fill="#89988F"/>
<path d="M72.75 72.25H74.25V72.5H72.75V72.25Z" fill="#78797B"/>
<path d="M180.25 313.25L180.75 313.75H180.25V313.25Z" fill="#FEFEFE"/>
</svg>
