<svg width="32" height="32" viewBox="0 0 32 32" fill="none" xmlns="http://www.w3.org/2000/svg">
<path d="M18.5762 16.3889C18.5665 16.8957 18.4066 17.3883 18.1167 17.8042C17.8267 18.22 17.4199 18.5404 16.9476 18.7248C16.4754 18.9091 15.9591 18.9491 15.4641 18.8397C14.9691 18.7303 14.5177 18.4764 14.1672 18.1101C13.8167 17.7439 13.5828 17.2818 13.4952 16.7825C13.4076 16.2832 13.4702 15.7691 13.6751 15.3054C13.88 14.8417 14.218 14.4493 14.6461 14.1779C15.0743 13.9065 15.5734 13.7683 16.0802 13.7809C16.7536 13.8059 17.3909 14.0921 17.8568 14.579C18.3228 15.0658 18.5808 15.715 18.5762 16.3889Z" fill="#111827"/>
<path d="M20.4213 8.37294H11.7414C10.8825 8.37294 10.0588 8.71413 9.45151 9.32144C8.8442 9.92875 8.50302 10.7524 8.50302 11.6113V20.4864C8.50302 20.9117 8.58678 21.3328 8.74952 21.7257C8.91227 22.1186 9.1508 22.4755 9.45151 22.7763C9.75222 23.077 10.1092 23.3155 10.5021 23.4782C10.895 23.641 11.3161 23.7247 11.7414 23.7247H20.4213C20.8465 23.7247 21.2676 23.641 21.6605 23.4782C22.0534 23.3155 22.4104 23.077 22.7111 22.7763C23.0118 22.4755 23.2504 22.1186 23.4131 21.7257C23.5759 21.3328 23.6596 20.9117 23.6596 20.4864V11.6273C23.6613 11.2008 23.5788 10.7782 23.4169 10.3836C23.2549 9.98906 23.0167 9.63035 22.7159 9.32803C22.415 9.02571 22.0575 8.78572 21.6637 8.62183C21.27 8.45794 20.8478 8.37336 20.4213 8.37294ZM16.0805 20.7296C15.2213 20.749 14.3757 20.5119 13.6518 20.0487C12.9279 19.5854 12.3584 18.9169 12.0161 18.1286C11.6737 17.3403 11.574 16.4678 11.7297 15.6225C11.8854 14.7773 12.2894 13.9976 12.8902 13.383C13.4909 12.7684 14.2612 12.3467 15.1027 12.1717C15.9441 11.9968 16.8187 12.0765 17.6146 12.4008C18.4105 12.7251 19.0918 13.2791 19.5715 13.9923C20.0512 14.7055 20.3075 15.5454 20.3077 16.4048C20.3142 16.9664 20.2101 17.5238 20.0011 18.0451C19.7922 18.5664 19.4827 19.0414 19.0901 19.443C18.6975 19.8446 18.2297 20.165 17.7133 20.3857C17.1969 20.6065 16.6421 20.7233 16.0805 20.7296ZM20.7781 12.0817C20.6725 12.0817 20.568 12.0607 20.4706 12.0198C20.3733 11.9789 20.2851 11.919 20.2112 11.8436C20.1373 11.7682 20.0792 11.6789 20.0402 11.5807C20.0013 11.4826 19.9823 11.3777 19.9845 11.2721C19.9845 11.0574 20.0698 10.8515 20.2216 10.6996C20.3734 10.5478 20.5793 10.4625 20.7941 10.4625C21.0088 10.4625 21.2147 10.5478 21.3665 10.6996C21.5184 10.8515 21.6037 11.0574 21.6037 11.2721C21.6068 11.3864 21.5853 11.5 21.5405 11.6052C21.4956 11.7104 21.4286 11.8047 21.344 11.8816C21.2594 11.9585 21.1591 12.0161 21.0501 12.0507C20.9411 12.0852 20.8259 12.0958 20.7125 12.0817H20.7781Z" fill="#111827"/>
<path d="M16.08 0.000200276C11.8366 -0.0210168 7.75855 1.64432 4.743 4.62986C1.72745 7.61541 0.0214173 11.6766 0.000200276 15.92C-0.0210168 20.1634 1.64432 24.2415 4.62986 27.257C7.61541 30.2725 11.6766 31.9786 15.92 31.9998C18.0211 32.0103 20.1037 31.6069 22.0489 30.8125C23.9942 30.0181 25.7639 28.8484 27.257 27.3701C28.7501 25.8918 29.9375 24.1339 30.7513 22.1968C31.565 20.2596 31.9893 18.1811 31.9998 16.08C32.0103 13.9789 31.6069 11.8963 30.8125 9.95105C30.0181 8.00584 28.8484 6.23615 27.3701 4.743C25.8918 3.24985 24.1339 2.0625 22.1968 1.24873C20.2596 0.434955 18.1811 0.0107059 16.08 0.000200276ZM25.7967 20.3231C25.8011 21.0409 25.6631 21.7525 25.3905 22.4165C25.1179 23.0806 24.7162 23.6839 24.2087 24.1916C23.7012 24.6992 23.098 25.1011 22.434 25.3739C21.7701 25.6466 21.0585 25.7849 20.3407 25.7807H11.8225C11.1048 25.7847 10.3934 25.6463 9.72956 25.3736C9.0657 25.1009 8.46254 24.6992 7.95498 24.1918C7.44741 23.6843 7.04554 23.0813 6.7726 22.4175C6.49967 21.7537 6.3611 21.0424 6.36492 20.3247V11.8049C6.36046 11.087 6.49853 10.3755 6.77111 9.71145C7.0437 9.0474 7.44539 8.44407 7.95289 7.93642C8.46039 7.42877 9.0636 7.02691 9.72757 6.75413C10.3915 6.48135 11.103 6.34307 11.8209 6.34732H20.3407C21.0584 6.34307 21.7698 6.4813 22.4337 6.75398C23.0975 7.02666 23.7007 7.42838 24.2081 7.93586C24.7156 8.44334 25.1173 9.04648 25.39 9.71034C25.6627 10.3742 25.8009 11.0856 25.7967 11.8033V20.3231Z" fill="#111827"/>
</svg>
