<svg width="100" height="65" viewBox="0 0 100 65" fill="none" xmlns="http://www.w3.org/2000/svg">
<path d="M80.7221 44.3082C78.6237 44.1278 76.5639 43.9328 74.5003 43.7949C73.1609 43.7054 71.8147 43.7211 70.4736 43.6505C68.4002 43.5414 66.3304 43.6445 64.2673 43.7928C61.1444 44.0174 58.1076 44.6977 55.1608 45.766C55.0072 45.8217 54.8942 45.9101 54.8029 46.0401C53.8457 47.4029 52.4965 48.0674 50.874 48.2487C49.1295 48.4436 47.5742 48.0222 46.2519 46.838C46.148 46.745 46.0272 46.6539 45.964 46.5354C45.6238 45.8976 45.0123 45.675 44.3858 45.4622C41.8875 44.6138 39.3284 44.0669 36.6961 43.8492C35.4548 43.7465 34.2106 43.7363 32.9699 43.6635C30.6577 43.5279 28.3545 43.6945 26.0512 43.7938C23.8602 43.8883 21.6724 44.0838 19.4921 44.3409C18.507 44.4571 17.5204 44.5605 16.5335 44.6609C16.0646 44.7086 15.7577 44.3133 15.864 43.7911C15.977 43.2361 16.2858 42.7571 16.5043 42.2435C16.7287 41.7159 16.9934 41.2056 17.2387 40.6869C17.3598 40.4307 17.5248 40.3014 17.8405 40.2648C19.7275 40.0466 21.6214 39.9164 23.5142 39.767C26.8377 39.5047 30.1675 39.4796 33.4965 39.5325C36.3657 39.578 39.2044 39.9428 42.0051 40.5804C42.1664 40.6171 42.3297 40.6447 42.5081 40.6797C42.4959 40.4976 42.3587 40.4624 42.2657 40.3995C40.1183 38.9459 37.7611 38.1729 35.1579 38.0405C31.9931 37.8795 28.8362 37.9667 25.6775 38.1245C24.2674 38.195 22.859 38.2953 21.4569 38.4704C21.281 38.4924 21.0999 38.4734 20.7923 38.4734C21.6848 37.1548 22.7191 36.0698 23.5238 34.7817C22.986 34.5098 22.4338 34.408 21.9159 34.2132C21.4672 34.0445 21.4513 34.005 21.6945 33.5927C22.1078 32.8921 22.1059 32.9047 22.9268 33.0317C25.3 33.3987 27.6565 33.8562 30.011 34.3241C34.0848 35.1336 37.9855 36.4182 41.5748 38.5568C43.1896 39.5189 44.6707 40.6716 46.1993 41.7569C46.344 41.8597 46.4715 41.99 46.7021 42.0573C46.295 41.3087 45.7168 40.7625 45.1519 40.2133C42.2365 37.3789 38.72 35.5974 34.8873 34.3665C31.8848 33.4022 28.8031 32.7925 25.7018 32.2639C25.5231 32.2334 25.3463 32.1913 25.1697 32.1501C25.1484 32.1452 25.1336 32.1117 25.0979 32.071C25.1783 31.837 25.37 31.6689 25.5308 31.4851C25.9179 31.0427 26.308 30.602 26.7156 30.1787C26.9562 29.9288 26.8936 29.7773 26.6168 29.6374C26.2046 29.4292 25.8022 29.2 25.3829 29.0074C25.0455 28.8524 24.9843 28.6508 25.1891 28.3512C25.2442 28.2706 25.286 28.1806 25.3431 28.1014C25.8363 27.4173 25.915 27.3941 26.6786 27.7629C30.2454 29.4856 33.8095 31.2148 37.2314 33.217C39.6976 34.6601 42.1127 36.1858 44.3001 38.0342C45.6165 39.1465 46.7767 40.4239 47.921 41.7115C48.1147 41.9294 48.3014 42.1535 48.5569 42.4512C48.3886 41.6857 48.0179 41.1305 47.6318 40.5919C46.1249 38.4901 44.2628 36.7478 42.1917 35.2109C37.9552 32.0672 33.2758 29.6883 28.6037 27.2944C28.2851 27.1311 27.9399 27.004 27.6658 26.742C27.8357 26.3621 28.104 26.0777 28.357 25.7806C28.7469 25.3224 29.1307 24.8589 29.5126 24.3939C29.6752 24.1959 29.8324 24.1791 30.0531 24.3242C32.6613 26.0397 35.2584 27.7702 37.7601 29.6411C39.8032 31.1691 41.7443 32.816 43.6057 34.5575C44.6378 35.5231 45.6431 36.5173 46.589 37.5692C46.709 37.7026 46.8111 37.8568 47.0286 37.9521C47.0303 37.7274 46.9115 37.5794 46.8238 37.4206C45.5323 35.0831 43.7198 33.1888 41.7527 31.4197C39.3213 29.2329 36.6673 27.3416 33.9767 25.4966C33.6459 25.2698 33.2872 25.0714 33.0214 24.7101C33.5717 24.0643 34.1717 23.4825 34.804 22.934C34.9892 22.7733 35.1135 22.9701 35.2334 23.0658C36.5681 24.1314 37.8733 25.2311 39.123 26.3969C41.6025 28.71 44.0096 31.0908 46.0894 33.7799C46.9976 34.9542 47.8692 36.1544 48.5752 37.4659C48.6589 37.6214 48.742 37.7833 48.9548 37.9467C48.995 37.5403 49.0566 37.1983 49.0585 36.8559C49.0746 33.9719 49.15 31.0869 49.053 28.2041C49.0117 26.9757 48.8327 25.7611 48.1714 24.6627C47.8103 24.0629 47.2482 23.8355 46.6516 23.629C46.4178 23.5481 46.2942 23.6901 46.2194 23.9055C46.0813 24.3034 45.9134 24.6882 45.6329 25.0117C44.6778 26.113 43.2627 26.4299 41.8119 25.8648C41.1807 25.619 40.6208 25.2478 40.0674 24.8651C39.8093 24.6866 39.7413 24.4931 39.9137 24.1933C40.3429 23.4472 40.8326 22.7507 41.4898 22.1907C42.3186 21.4846 43.261 21.1395 44.3626 21.3733C44.5696 21.4173 44.7665 21.489 44.9463 21.6005C45.5562 21.9787 45.5706 22.3039 45.0101 22.7347C44.5022 23.125 43.9785 23.498 43.5342 23.9842C44.3546 24.177 45.513 23.7006 45.9554 22.905C46.1888 22.4853 46.4162 22.3679 46.8416 22.5404C46.9785 22.5959 47.1374 22.5973 47.3207 22.6295C47.2936 22.2946 47.064 22.1203 46.8822 21.9298C45.8939 20.8949 44.6225 20.3637 43.3022 19.9058C42.855 19.7507 42.5984 19.7935 42.3044 20.2139C41.6906 21.0917 40.4866 21.3929 39.4392 21.0301C38.5494 20.7218 37.7998 20.1904 37.103 19.5737C36.9328 19.4231 36.8 19.2563 37.0037 19.0424C37.9623 18.0357 39.0157 17.1948 40.5103 17.2626C41.213 17.2945 41.807 17.59 42.2101 18.1973C42.4399 18.5434 42.3992 18.6771 41.9903 18.7917C41.3866 18.9609 40.771 19.0766 40.0634 19.1004C40.6315 19.5104 41.1882 19.6757 41.8067 19.5978C42.1509 19.5544 42.4953 19.421 42.6404 19.1009C42.8241 18.6955 43.0926 18.6759 43.4456 18.7772C44.0342 18.946 44.6235 19.1127 45.2322 19.2859C45.1199 18.9735 44.8627 18.792 44.6585 18.5775C43.7411 17.614 42.6739 16.8569 41.4569 16.3143C41.2471 16.2208 41.0447 16.187 40.8089 16.2567C38.4488 16.9542 36.6346 16.1696 35.2161 14.3582C34.4776 13.4152 33.9358 12.358 33.5352 11.2266C33.422 10.9072 33.4577 10.761 33.821 10.666C35.2209 10.3001 36.6324 10.0141 38.0846 10.1212C39.8799 10.2537 41.3176 10.9843 42.0701 12.7262C42.2873 13.229 42.38 13.7578 42.2554 14.3807C41.5886 14.0799 40.9728 13.7957 40.3515 13.5237C39.7307 13.252 39.0801 13.1133 38.3218 13.1091C38.8628 13.782 39.5047 14.1994 40.2336 14.4867C40.8971 14.7482 41.5821 14.9564 42.2404 15.2295C43.9759 15.9495 45.3364 17.1613 46.5468 18.566C47.6142 19.8048 48.4587 21.1855 49.1814 22.658C49.2833 22.2821 49.2579 21.0613 49.2012 20.517C48.9474 18.0803 47.6262 16.224 45.9792 14.5458C45.361 13.916 44.7306 13.2996 44.2088 12.5841C44.1322 12.4792 44.0487 12.3948 43.9155 12.3644C42.0712 11.9441 41.1242 10.6509 40.6889 8.93222C40.3048 7.41557 40.5849 5.9065 40.927 4.41424C40.9717 4.21881 41.0389 4.01138 41.3102 4.08238C42.9685 4.51638 44.6144 4.99526 45.9179 6.18877C47.4645 7.60486 47.7439 9.84219 46.6209 11.5314C46.4268 11.8233 46.194 12.0745 45.8021 12.3023C45.5103 10.8062 45.2078 9.35025 43.8262 8.46305C44.0954 10.2771 44.6075 11.9968 45.7412 13.4896C45.964 13.2469 46.1663 13.0266 46.4163 12.7544C47.4081 13.6649 48.1827 14.6446 49.0479 15.6966C49.3476 13.6803 49.3916 11.749 49.4125 9.77323C49.8302 9.75272 50.2158 9.73259 50.6014 9.71531C50.8282 9.70514 50.8846 9.84429 50.8837 10.0387C50.8816 10.4867 50.8807 10.9348 50.8848 11.3829C50.8964 12.6554 51.0301 13.9197 51.1561 15.184C51.1701 15.3252 51.1742 15.4934 51.3215 15.6192C51.6075 15.4506 51.7664 15.1604 51.9571 14.9155C52.7938 13.8411 53.7342 12.8609 54.696 11.9042C55.7022 10.9032 56.3267 9.72371 56.5776 8.31887C55.3064 9.11492 54.6544 10.4292 53.8443 11.5818C53.5833 11.4953 53.5321 11.3093 53.4539 11.1521C52.4241 9.08106 53.3456 6.84118 55.0309 5.69579C56.2328 4.87889 57.6058 4.48995 58.9797 4.10047C59.2343 4.02829 59.3849 4.11663 59.4425 4.37296C59.7869 5.90633 60.0427 7.43419 59.632 9.00837C59.1278 10.9409 57.7898 12.1731 55.8011 12.4336C55.5982 12.4602 55.4608 12.5419 55.3684 12.7153C54.6996 13.9712 53.7542 15.033 52.9288 16.1785C51.848 17.6785 51.1355 19.3005 51.126 21.1824C51.1235 21.68 50.9612 22.1792 51.1587 22.7592C51.5227 22.0155 51.8741 21.341 52.2788 20.6963C53.446 18.8369 54.8654 17.2161 56.7164 16.0078C57.5297 15.4769 58.4158 15.0957 59.3473 14.8187C60.3968 14.5066 61.342 14.0212 62.0924 13.1234C60.6348 13.1433 59.402 13.7541 58.1209 14.4059C57.996 13.5706 58.141 12.8763 58.5254 12.2412C59.3265 10.9176 60.5564 10.2551 62.0586 10.127C63.5482 9.99997 65.014 10.2263 66.4504 10.6311C66.9862 10.7821 67.0056 10.8343 66.7963 11.3667C66.3176 12.5848 65.7417 13.7515 64.8564 14.7303C63.4919 16.2389 61.8215 16.825 59.8229 16.2927C59.5017 16.2071 59.2354 16.234 58.9375 16.3619C57.565 16.951 56.3647 17.7727 55.3964 18.9183C55.3267 19.0008 55.2236 19.0654 55.221 19.2373C55.8509 19.0713 56.4698 18.9188 57.0816 18.7421C57.3649 18.6602 57.5539 18.6794 57.6814 18.9889C57.828 19.3445 58.161 19.5001 58.5102 19.5688C59.1685 19.6983 59.7805 19.5696 60.4014 19.1167C59.7583 19.0731 59.1986 19.0058 58.6521 18.8709C57.9754 18.7038 57.9178 18.5074 58.3618 17.9667C58.9228 17.2836 60.1854 17.0428 61.2021 17.4303C62.0886 17.7682 62.7807 18.3747 63.4187 19.0531C63.5459 19.1883 63.6179 19.3291 63.434 19.4803C62.5776 20.1843 61.718 20.8776 60.59 21.1138C59.5267 21.3363 58.5592 20.9815 57.955 20.0795C57.7656 19.7967 57.5957 19.7238 57.2686 19.8278C55.7276 20.3177 54.2857 20.9658 53.2035 22.2276C53.0976 22.3511 52.9518 22.4526 52.9301 22.7081C53.267 22.6213 53.5899 22.569 53.8878 22.4528C54.195 22.333 54.3742 22.3942 54.5335 22.6827C54.9978 23.5239 55.7602 23.9158 56.6812 24.0463C56.7731 24.0593 56.8755 24.0878 56.9595 23.9959C56.9407 23.8275 56.8066 23.7374 56.6947 23.6414C56.3442 23.3406 55.9856 23.0494 55.6296 22.7551C55.3746 22.5442 54.9923 22.3539 55.0885 21.9816C55.1852 21.6073 55.5885 21.4764 55.9474 21.388C57.2821 21.0593 58.3677 21.5417 59.2904 22.47C59.8149 22.9977 60.2414 23.608 60.604 24.2594C60.6851 24.4052 60.7909 24.5694 60.6027 24.7077C59.6129 25.4355 58.5812 26.0863 57.3038 26.1294C55.9576 26.1748 55.0108 25.536 54.4252 24.3403C54.3089 24.1028 54.2117 23.8561 54.0858 23.568C53.277 23.837 52.493 24.0736 52.0586 24.9107C51.515 25.9583 51.329 27.0878 51.3168 28.2353C51.2849 31.2593 51.3061 34.2838 51.307 37.3082C51.3071 37.5302 51.3144 37.7521 51.4372 37.9561C51.6418 37.9419 51.6707 37.7612 51.738 37.641C53.4069 34.6593 55.5983 32.0893 57.9692 29.6528C60.188 27.3726 62.5532 25.2554 64.9832 23.2069C65.4847 22.7841 65.4881 22.7849 65.9683 23.2651C66.4504 23.7473 66.9672 24.1969 67.4218 24.7584C66.8805 25.2491 66.2883 25.6159 65.7199 26.0126C62.9298 27.9597 60.1663 29.9422 57.6854 32.2835C56.0473 33.8295 54.6482 35.5715 53.5203 37.5257C53.4574 37.6346 53.4046 37.7495 53.3525 37.864C53.3365 37.8992 53.3386 37.9425 53.3297 37.9995C53.4914 38.02 53.5574 37.8934 53.6303 37.8119C57.6203 33.3572 62.3116 29.7421 67.2517 26.4245C68.2511 25.7533 69.2584 25.0936 70.2481 24.4085C70.5636 24.19 70.7568 24.2523 70.9816 24.532C71.4988 25.1755 72.0361 25.8032 72.5733 26.4303C72.775 26.6657 72.7826 26.7931 72.468 26.9594C69.251 28.6593 66.0035 30.3044 62.8753 32.1668C60.0068 33.8747 57.2525 35.7424 54.8675 38.1035C53.7805 39.1795 52.7548 40.307 52.0624 41.6924C51.9577 41.9019 51.8437 42.1109 51.8217 42.3816C51.9983 42.3696 52.0663 42.2378 52.1444 42.1395C54.3017 39.4256 56.9173 37.2329 59.8161 35.3559C63.8539 32.7414 68.1068 30.5207 72.4302 28.4271C72.9717 28.1649 73.5195 27.9147 74.051 27.6335C74.3315 27.4851 74.5263 27.5097 74.7497 27.7442C75.5386 28.5718 75.5148 28.7475 74.4934 29.2515C74.143 29.4244 73.7928 29.5979 73.3896 29.7973C73.9484 30.6634 74.7636 31.2724 75.412 32.0985C74.6839 32.3278 74.0047 32.3889 73.3408 32.5153C69.6948 33.2096 66.0851 34.0484 62.6494 35.4817C59.5317 36.7823 56.7129 38.5564 54.3915 41.0505C54.1078 41.3553 53.8574 41.691 53.5201 42.099C53.8376 42.0442 53.9872 41.9102 54.1437 41.7944C55.8657 40.5205 57.595 39.2596 59.4787 38.2252C61.5356 37.0958 63.6907 36.2035 65.9297 35.5149C68.9251 34.5938 71.9973 34.0072 75.0785 33.4639C75.9297 33.3138 76.7794 33.1546 77.6285 32.9928C78.1693 32.8897 78.7936 33.3643 78.837 33.9146C78.853 34.1178 78.6947 34.1348 78.5715 34.1783C78.2945 34.2762 78.0119 34.3579 77.733 34.4504C77.455 34.5425 77.1787 34.6398 76.8297 34.7595C77.6747 36.0403 78.6885 37.1538 79.557 38.3668C79.4207 38.5353 79.2716 38.4813 79.1431 38.4714C77.47 38.3425 75.7991 38.1727 74.1239 38.0837C72.1115 37.9768 70.0961 37.9399 68.0794 37.9474C66.13 37.9548 64.1894 38.0463 62.2876 38.4906C60.6364 38.8763 59.1942 39.73 57.697 40.6446C58.046 40.7451 58.2788 40.6207 58.514 40.575C60.8299 40.1247 63.1491 39.7181 65.5128 39.5932C68.591 39.4305 71.6679 39.5184 74.7421 39.6294C77.3787 39.7246 80.008 39.9763 82.6309 40.2759C82.8767 40.304 83.0454 40.3989 83.1494 40.6325C83.5874 41.6165 84.055 42.588 84.4708 43.5812C84.7686 44.2927 84.3921 44.7267 83.6286 44.634C82.6734 44.5181 81.7158 44.4224 80.7221 44.3082ZM71.0529 40.9239C67.3751 40.8853 63.6996 40.8416 60.0777 41.6718C58.3002 42.0793 56.5541 42.5583 54.9299 43.4062C54.7819 43.4834 54.522 43.5354 54.6703 43.8284C54.7894 44.0638 54.9547 44.0482 55.1588 43.9658C57.3045 43.0992 59.5258 42.5212 61.8111 42.1556C63.7324 41.8482 65.662 41.6644 67.6043 41.6287C70.2615 41.5798 72.9159 41.6848 75.5652 41.8849C76.929 41.9879 78.2886 42.145 79.6501 42.2776C80.379 42.3486 81.1079 42.4196 81.8798 42.4947C81.6964 42.0712 81.5433 41.7813 81.0183 41.7365C79.6289 41.6179 78.2426 41.4542 76.8541 41.3154C74.9506 41.1251 73.0424 41.0225 71.0529 40.9239ZM44.8649 43.8056C44.9815 43.8534 45.0972 43.9032 45.2147 43.9485C45.6407 44.1125 45.6832 44.0883 45.7988 43.5999C45.6965 43.544 45.5888 43.4826 45.4788 43.4256C44.1932 42.7594 42.8359 42.2839 41.4372 41.9238C39.3342 41.3825 37.1967 41.0855 35.0264 40.9858C32.4381 40.867 29.8503 40.867 27.266 41.0189C24.6018 41.1755 21.9436 41.4206 19.2947 41.7564C18.7835 41.8212 18.6464 41.9558 18.6137 42.5095C19.4063 42.4301 20.1961 42.3514 20.9858 42.2718C22.3046 42.1387 23.6218 41.9852 24.9427 41.8775C26.1685 41.7776 27.3987 41.7387 28.6277 41.6831C31.8069 41.5394 34.9746 41.6085 38.1263 42.0599C40.4135 42.3874 42.6496 42.9314 44.8649 43.8056Z" fill="white"/>
<path d="M47.9721 2.47709C48.5383 1.60087 49.1755 0.82584 49.935 0.151659C50.1047 0.0009838 50.2356 -0.0809593 50.4257 0.116741C51.576 1.31287 52.6564 2.54442 53.1486 4.19084C53.7269 6.12528 52.9082 8.11002 51.1624 8.87768C50.7958 9.03887 50.5558 9.07638 50.1967 9.01511C50.5304 7.68545 50.7266 6.35128 50.1633 4.9609C49.8678 5.30836 49.7939 5.66441 49.7129 6.01097C49.5279 6.80326 49.4492 7.60833 49.4485 8.42246C49.448 8.94393 49.3209 9.01336 48.8527 8.74885C47.6933 8.09389 47.1313 7.07168 47.0496 5.76519C46.9751 4.57454 47.3574 3.50826 47.9721 2.47709Z" fill="white"/>
<path d="M37.9069 6.25715C38.3897 6.51042 38.6155 6.93204 38.5188 7.34661C38.427 7.74065 37.9995 8.06083 37.5457 8.05464C37.1974 8.04989 36.922 7.88389 36.7772 7.56953C36.617 7.22161 36.6177 6.85301 36.8672 6.54509C37.1242 6.22797 37.4692 6.11077 37.9069 6.25715Z" fill="white"/>
<path d="M62.5194 8.00941C61.9577 7.76507 61.7402 7.31339 61.9194 6.81982C62.0954 6.33517 62.5543 6.08032 63.014 6.21193C63.4723 6.34315 63.7987 6.83693 63.7129 7.26945C63.6032 7.82323 63.1664 8.10559 62.5194 8.00941Z" fill="white"/>
<path d="M65.9944 16.5508C66.2523 16.3356 66.5014 16.2053 66.8221 16.3017C67.297 16.4444 67.5689 16.9066 67.4198 17.3355C67.2666 17.776 66.7202 18.0243 66.2842 17.8515C65.8971 17.6981 65.6993 17.1785 65.8707 16.7575C65.8967 16.6935 65.9385 16.636 65.9944 16.5508ZM66.9341 16.927C66.782 16.7417 66.5635 16.7234 66.4257 16.8707C66.2325 17.0772 66.4631 17.2292 66.5638 17.3929C66.8371 17.2399 66.8372 17.2399 66.9341 16.927Z" fill="white"/>
<path d="M5.89313 55.2505V58.7491C5.89313 59.7098 5.53467 60.3407 4.84642 60.6418L5.83578 64.3985C5.87879 64.5706 5.79276 64.6566 5.63504 64.6566H4.14383C4.00045 64.6566 3.92876 64.5849 3.90008 64.4559L2.9394 60.8139H1.95004V64.4272C1.95004 64.5706 1.86401 64.6566 1.72062 64.6566H0.229416C0.0860312 64.6566 0 64.5706 0 64.4272V53.4152C0 53.2718 0.0860312 53.1858 0.229416 53.1858H3.82839C5.17621 53.1858 5.89313 53.9027 5.89313 55.2505ZM1.95004 58.9212H3.36955C3.74235 58.9212 3.94309 58.7205 3.94309 58.3477V55.652C3.94309 55.2792 3.74235 55.0785 3.36955 55.0785H1.95004V58.9212Z" fill="white"/>
<path d="M13.0444 54.8491V56.2829C13.0444 56.4263 12.987 56.5267 12.8149 56.5267H9.27333V58.7348H11.969C12.1124 58.7348 12.1984 58.8208 12.1984 58.9786V60.3981C12.1984 60.5558 12.1124 60.6418 11.969 60.6418H9.27333V62.7639H12.8149C12.987 62.7639 13.0444 62.8356 13.0444 62.9933V64.4272C13.0444 64.5706 12.987 64.6566 12.8149 64.6566H7.53837C7.40932 64.6566 7.32329 64.5706 7.32329 64.4272V54.8491C7.32329 54.7057 7.40932 54.6196 7.53837 54.6196H12.8149C12.987 54.6196 13.0444 54.7057 13.0444 54.8491Z" fill="white"/>
<path d="M20.9663 64.6566H19.5754C19.4464 64.6566 19.3747 64.5849 19.346 64.4559L18.8872 62.6492H16.1916L15.7471 64.4559C15.7184 64.5849 15.6467 64.6566 15.5176 64.6566H14.1125C13.9547 64.6566 13.8831 64.5706 13.9261 64.4129L16.3063 54.8204C16.3349 54.677 16.421 54.6196 16.55 54.6196H18.5431C18.6721 54.6196 18.7581 54.677 18.7868 54.8204L21.167 64.4129C21.21 64.5706 21.1383 64.6566 20.9663 64.6566ZM18.4427 60.9859L17.5394 57.0859L16.636 60.9859H18.4427Z" fill="white"/>
<path d="M22.0539 64.4272V54.8491C22.0539 54.7057 22.1256 54.6196 22.2833 54.6196H25.7245C27.0724 54.6196 27.7893 55.3509 27.7893 56.6987V62.5919C27.7893 63.9397 27.0724 64.6566 25.7245 64.6566H22.2833C22.1256 64.6566 22.0539 64.5849 22.0539 64.4272ZM24.0039 62.7639H25.3231C25.6959 62.7639 25.8966 62.5775 25.8966 62.1904V57.1002C25.8966 56.7131 25.6959 56.5123 25.3231 56.5123H24.0039V62.7639Z" fill="white"/>
<path d="M29.4526 64.6566C29.2948 64.6566 29.2231 64.5706 29.2231 64.4272V54.8491C29.2231 54.7057 29.2948 54.6196 29.4526 54.6196H30.9438C31.0872 54.6196 31.1732 54.7057 31.1732 54.8491V64.4272C31.1732 64.5706 31.0872 64.6566 30.9438 64.6566H29.4526Z" fill="white"/>
<path d="M37.1571 54.6196H38.5049C38.6483 54.6196 38.7343 54.7057 38.7343 54.8491V64.4272C38.7343 64.5706 38.6483 64.6566 38.5049 64.6566H37.3721C37.2431 64.6566 37.1714 64.5993 37.114 64.4702L34.4184 58.9929V64.4272C34.4184 64.5706 34.3467 64.6566 34.189 64.6566H32.8412C32.6978 64.6566 32.6117 64.5706 32.6117 64.4272V54.8491C32.6117 54.7057 32.6978 54.6196 32.8412 54.6196H33.9739C34.1029 54.6196 34.1746 54.677 34.232 54.806L36.9276 60.2834V54.8491C36.9276 54.7057 36.9993 54.6196 37.1571 54.6196Z" fill="white"/>
<path d="M40.1731 62.5919V56.6844C40.1731 55.3366 40.89 54.6196 42.2378 54.6196H43.8437C45.1772 54.6196 45.9085 55.3366 45.9085 56.6844V57.7454C45.9085 57.8888 45.8224 57.9749 45.6791 57.9749H44.3312C44.1735 57.9749 44.1018 57.8888 44.1018 57.7454V57.0429C44.1018 56.6701 43.9011 56.4693 43.5283 56.4693H42.6106C42.2235 56.4693 42.0371 56.6701 42.0371 57.0429V62.2334C42.0371 62.6205 42.2378 62.8069 42.6106 62.8069H43.5283C43.9011 62.8069 44.1018 62.6205 44.1018 62.2334V60.9859H43.3562C43.1985 60.9859 43.1268 60.8999 43.1268 60.7565V59.3227C43.1268 59.165 43.1985 59.0933 43.3562 59.0933H45.6791C45.8224 59.0933 45.9085 59.165 45.9085 59.3227V62.5919C45.9085 63.9397 45.1772 64.6566 43.8437 64.6566H42.2378C40.89 64.6566 40.1731 63.9397 40.1731 62.5919Z" fill="white"/>
<path d="M53.3358 53.1858H55.2285C55.4149 53.1858 55.5153 53.2862 55.5153 53.4726V64.3698C55.5153 64.5562 55.4149 64.6566 55.2285 64.6566H53.895C53.7086 64.6566 53.6083 64.5562 53.6083 64.3698V57.9175H53.5079L52.0884 64.3985C52.0454 64.5706 51.945 64.6566 51.7729 64.6566H51.0703C50.8983 64.6566 50.7979 64.5706 50.7549 64.3985L49.3354 57.9175H49.235V64.3698C49.235 64.5562 49.1346 64.6566 48.9482 64.6566H47.6291C47.4427 64.6566 47.3423 64.5562 47.3423 64.3698V53.4726C47.3423 53.2862 47.4427 53.1858 47.6291 53.1858H49.5218C49.6938 53.1858 49.7942 53.2718 49.8372 53.4439L51.4288 60.5845L53.0204 53.4439C53.0634 53.2718 53.1638 53.1858 53.3358 53.1858Z" fill="white"/>
<path d="M63.5758 64.6566H62.1849C62.0559 64.6566 61.9842 64.5849 61.9555 64.4559L61.4967 62.6492H58.8011L58.3566 64.4559C58.3279 64.5849 58.2562 64.6566 58.1271 64.6566H56.722C56.5642 64.6566 56.4926 64.5706 56.5356 64.4129L58.9158 54.8204C58.9444 54.677 59.0305 54.6196 59.1595 54.6196H61.1526C61.2816 54.6196 61.3676 54.677 61.3963 54.8204L63.7765 64.4129C63.8195 64.5706 63.7478 64.6566 63.5758 64.6566ZM61.0522 60.9859L60.1489 57.0859L59.2455 60.9859H61.0522Z" fill="white"/>
<path d="M69.4887 54.6196H70.8366C70.9799 54.6196 71.066 54.7057 71.066 54.8491V64.4272C71.066 64.5706 70.9799 64.6566 70.8366 64.6566H69.7038C69.5748 64.6566 69.5031 64.5993 69.4457 64.4702L66.7501 58.9929V64.4272C66.7501 64.5706 66.6784 64.6566 66.5207 64.6566H65.1728C65.0295 64.6566 64.9434 64.5706 64.9434 64.4272V54.8491C64.9434 54.7057 65.0295 54.6196 65.1728 54.6196H66.3056C66.4346 54.6196 66.5063 54.677 66.5637 54.806L69.2593 60.2834V54.8491C69.2593 54.7057 69.331 54.6196 69.4887 54.6196Z" fill="white"/>
<path d="M78.9925 64.6566H77.6017C77.4726 64.6566 77.4009 64.5849 77.3722 64.4559L76.9134 62.6492H74.2178L73.7733 64.4559C73.7446 64.5849 73.6729 64.6566 73.5439 64.6566H72.1387C71.981 64.6566 71.9093 64.5706 71.9523 64.4129L74.3325 54.8204C74.3612 54.677 74.4472 54.6196 74.5762 54.6196H76.5693C76.6983 54.6196 76.7844 54.677 76.813 54.8204L79.1932 64.4129C79.2362 64.5706 79.1646 64.6566 78.9925 64.6566ZM76.4689 60.9859L75.5656 57.0859L74.6623 60.9859H76.4689Z" fill="white"/>
<path d="M80.0801 62.5919V56.6844C80.0801 55.3366 80.797 54.6196 82.1448 54.6196H83.7508C85.0842 54.6196 85.8155 55.3366 85.8155 56.6844V57.7454C85.8155 57.8888 85.7295 57.9749 85.5861 57.9749H84.2383C84.0805 57.9749 84.0088 57.8888 84.0088 57.7454V57.0429C84.0088 56.6701 83.8081 56.4693 83.4353 56.4693H82.5176C82.1305 56.4693 81.9441 56.6701 81.9441 57.0429V62.2334C81.9441 62.6205 82.1448 62.8069 82.5176 62.8069H83.4353C83.8081 62.8069 84.0088 62.6205 84.0088 62.2334V60.9859H83.2632C83.1055 60.9859 83.0338 60.8999 83.0338 60.7565V59.3227C83.0338 59.165 83.1055 59.0933 83.2632 59.0933H85.5861C85.7295 59.0933 85.8155 59.165 85.8155 59.3227V62.5919C85.8155 63.9397 85.0842 64.6566 83.7508 64.6566H82.1448C80.797 64.6566 80.0801 63.9397 80.0801 62.5919Z" fill="white"/>
<path d="M92.9704 54.8491V56.2829C92.9704 56.4263 92.9131 56.5267 92.741 56.5267H89.1994V58.7348H91.895C92.0384 58.7348 92.1245 58.8208 92.1245 58.9786V60.3981C92.1245 60.5558 92.0384 60.6418 91.895 60.6418H89.1994V62.7639H92.741C92.9131 62.7639 92.9704 62.8356 92.9704 62.9933V64.4272C92.9704 64.5706 92.9131 64.6566 92.741 64.6566H87.4644C87.3354 64.6566 87.2494 64.5706 87.2494 64.4272V54.8491C87.2494 54.7057 87.3354 54.6196 87.4644 54.6196H92.741C92.9131 54.6196 92.9704 54.7057 92.9704 54.8491Z" fill="white"/>
<path d="M100 56.6844V59.5664C100 60.3981 99.7276 60.9859 99.197 61.3157L99.9426 64.3985C99.9857 64.5706 99.8996 64.6566 99.7419 64.6566H98.3367C98.1933 64.6566 98.1216 64.5849 98.093 64.4559L97.4047 61.6312H96.1286V64.4272C96.1286 64.5706 96.0426 64.6566 95.8992 64.6566H94.494C94.3506 64.6566 94.2646 64.5706 94.2646 64.4272V54.8491C94.2646 54.7057 94.3506 54.6196 94.494 54.6196H97.9352C99.2831 54.6196 100 55.3366 100 56.6844ZM96.1286 59.7815H97.5625C97.9353 59.7815 98.136 59.5808 98.136 59.208V57.0429C98.136 56.6701 97.9353 56.4693 97.5625 56.4693H96.1286V59.7815Z" fill="white"/>
</svg>
