<svg width="32" height="32" viewBox="0 0 32 32" fill="none" xmlns="http://www.w3.org/2000/svg">
<path d="M2.66667 7.99996C2.66667 7.64634 2.80715 7.3072 3.0572 7.05715C3.30724 6.8071 3.64638 6.66663 4.00001 6.66663H28C28.3536 6.66663 28.6928 6.8071 28.9428 7.05715C29.1929 7.3072 29.3333 7.64634 29.3333 7.99996C29.3333 8.35358 29.1929 8.69272 28.9428 8.94277C28.6928 9.19282 28.3536 9.33329 28 9.33329H4.00001C3.64638 9.33329 3.30724 9.19282 3.0572 8.94277C2.80715 8.69272 2.66667 8.35358 2.66667 7.99996ZM2.66667 16.0426C2.66667 15.689 2.80715 15.3499 3.0572 15.0998C3.30724 14.8498 3.64638 14.7093 4.00001 14.7093H28C28.3536 14.7093 28.6928 14.8498 28.9428 15.0998C29.1929 15.3499 29.3333 15.689 29.3333 16.0426C29.3333 16.3962 29.1929 16.7354 28.9428 16.9854C28.6928 17.2355 28.3536 17.376 28 17.376H4.00001C3.64638 17.376 3.30724 17.2355 3.0572 16.9854C2.80715 16.7354 2.66667 16.3962 2.66667 16.0426ZM4.00001 22.7533C3.64638 22.7533 3.30724 22.8938 3.0572 23.1438C2.80715 23.3939 2.66667 23.733 2.66667 24.0866C2.66667 24.4402 2.80715 24.7794 3.0572 25.0294C3.30724 25.2795 3.64638 25.42 4.00001 25.42H28C28.3536 25.42 28.6928 25.2795 28.9428 25.0294C29.1929 24.7794 29.3333 24.4402 29.3333 24.0866C29.3333 23.733 29.1929 23.3939 28.9428 23.1438C28.6928 22.8938 28.3536 22.7533 28 22.7533H4.00001Z" fill="#166534"/>
</svg>
