<svg width="25" height="24" viewBox="0 0 25 24" fill="none" xmlns="http://www.w3.org/2000/svg">
<path d="M16.3659 14H8.18295C7.91167 14 7.6515 14.1054 7.45967 14.2929C7.26785 14.4804 7.16008 14.7348 7.16008 15C7.16008 15.2652 7.26785 15.5196 7.45967 15.7071C7.6515 15.8946 7.91167 16 8.18295 16H16.3659C16.6372 16 16.8974 15.8946 17.0892 15.7071C17.281 15.5196 17.3888 15.2652 17.3888 15C17.3888 14.7348 17.281 14.4804 17.0892 14.2929C16.8974 14.1054 16.6372 14 16.3659 14ZM16.3659 10H10.2287C9.9574 10 9.69723 10.1054 9.50541 10.2929C9.31358 10.4804 9.20582 10.7348 9.20582 11C9.20582 11.2652 9.31358 11.5196 9.50541 11.7071C9.69723 11.8946 9.9574 12 10.2287 12H16.3659C16.6372 12 16.8974 11.8946 17.0892 11.7071C17.281 11.5196 17.3888 11.2652 17.3888 11C17.3888 10.7348 17.281 10.4804 17.0892 10.2929C16.8974 10.1054 16.6372 10 16.3659 10ZM20.4574 4H17.3888V3C17.3888 2.73478 17.281 2.48043 17.0892 2.29289C16.8974 2.10536 16.6372 2 16.3659 2C16.0946 2 15.8344 2.10536 15.6426 2.29289C15.4508 2.48043 15.343 2.73478 15.343 3V4H13.2973V3C13.2973 2.73478 13.1895 2.48043 12.9977 2.29289C12.8059 2.10536 12.5457 2 12.2744 2C12.0031 2 11.743 2.10536 11.5511 2.29289C11.3593 2.48043 11.2516 2.73478 11.2516 3V4H9.20582V3C9.20582 2.73478 9.09805 2.48043 8.90623 2.29289C8.7144 2.10536 8.45423 2 8.18295 2C7.91167 2 7.6515 2.10536 7.45967 2.29289C7.26785 2.48043 7.16008 2.73478 7.16008 3V4H4.09147C3.82019 4 3.56002 4.10536 3.36819 4.29289C3.17637 4.48043 3.0686 4.73478 3.0686 5V19C3.0686 19.7956 3.3919 20.5587 3.96738 21.1213C4.54285 21.6839 5.32337 22 6.13721 22H18.4116C19.2255 22 20.006 21.6839 20.5815 21.1213C21.1569 20.5587 21.4802 19.7956 21.4802 19V5C21.4802 4.73478 21.3725 4.48043 21.1807 4.29289C20.9888 4.10536 20.7287 4 20.4574 4ZM19.4345 19C19.4345 19.2652 19.3267 19.5196 19.1349 19.7071C18.9431 19.8946 18.6829 20 18.4116 20H6.13721C5.86593 20 5.60576 19.8946 5.41393 19.7071C5.22211 19.5196 5.11434 19.2652 5.11434 19V6H7.16008V7C7.16008 7.26522 7.26785 7.51957 7.45967 7.70711C7.6515 7.89464 7.91167 8 8.18295 8C8.45423 8 8.7144 7.89464 8.90623 7.70711C9.09805 7.51957 9.20582 7.26522 9.20582 7V6H11.2516V7C11.2516 7.26522 11.3593 7.51957 11.5511 7.70711C11.743 7.89464 12.0031 8 12.2744 8C12.5457 8 12.8059 7.89464 12.9977 7.70711C13.1895 7.51957 13.2973 7.26522 13.2973 7V6H15.343V7C15.343 7.26522 15.4508 7.51957 15.6426 7.70711C15.8344 7.89464 16.0946 8 16.3659 8C16.6372 8 16.8974 7.89464 17.0892 7.70711C17.281 7.51957 17.3888 7.26522 17.3888 7V6H19.4345V19Z" fill="white"/>
</svg>
