<svg width="25" height="24" viewBox="0 0 25 24" fill="none" xmlns="http://www.w3.org/2000/svg">
<path d="M14.6894 4.079C14.6894 4.079 14.8071 6.049 16.5848 7.786C18.3626 9.524 20.3766 9.64 20.3766 9.64L21.3248 8.713C22.0791 7.97556 22.5028 6.97539 22.5028 5.9325C22.5028 4.88961 22.0791 3.88943 21.3248 3.152C20.5705 2.41456 19.5474 2.00027 18.4807 2.00027C17.414 2.00027 16.3909 2.41456 15.6366 3.152L14.6884 4.079L12.2744 6.439M20.3766 9.639L14.9963 14.901L11.8244 18L11.6607 18.161C11.0695 18.738 10.7739 19.027 10.4486 19.275C10.0648 19.5679 9.64941 19.8191 9.20992 20.024C8.83759 20.197 8.44174 20.326 7.64902 20.584L4.29299 21.678M4.29299 21.678L3.47264 21.946C3.28142 22.0087 3.07611 22.018 2.87978 21.9729C2.68345 21.9277 2.50388 21.8299 2.36127 21.6905C2.21866 21.5511 2.11865 21.3756 2.07248 21.1836C2.02632 20.9917 2.03583 20.7909 2.09995 20.604L2.37408 19.802M4.29299 21.678L2.37408 19.802M2.37408 19.802L3.4931 16.521C3.757 15.746 3.88895 15.359 4.06591 14.995C4.2756 14.565 4.53234 14.159 4.83204 13.784C5.08571 13.466 5.38132 13.177 5.97151 12.6L8.69439 9.939" stroke="white" stroke-width="1.5" stroke-linecap="round"/>
</svg>
