<svg width="32" height="32" viewBox="0 0 32 32" fill="none" xmlns="http://www.w3.org/2000/svg">
<path fill-rule="evenodd" clip-rule="evenodd" d="M15.8016 0C7.03841 0 0 7.09543 0 15.9336C0 22.4936 3.85121 27.983 9.42881 30.5273C9.42881 27.5393 9.40799 27.9244 11.6848 18.2086C10.4336 15.6836 11.4064 11.5148 14.208 11.5148C18.096 11.5148 15.4544 17.2792 15.0048 19.5477C14.6064 21.2885 15.9344 22.6281 17.528 22.6281C20.5824 22.6281 22.5728 18.7443 22.5728 14.193C22.5728 10.7113 20.184 8.16719 16.0672 8.16719C8.74721 8.16719 6.89121 16.3193 9.42881 18.8781C10.0672 19.8445 9.42881 19.8898 9.42881 21.1547C8.98561 22.4922 5.4448 20.5481 5.4448 15.532C5.4448 10.979 9.1632 5.62422 16.7312 5.62422C22.7056 5.62422 26.6896 10.042 26.6896 14.7289C26.6896 21.0211 23.2368 25.5742 18.192 25.5742C16.4656 25.5742 14.872 24.6361 14.3408 23.5648C13.376 27.3176 13.1808 29.2201 11.6848 31.3305C13.1456 31.7322 14.6064 32 16.2 32C24.9632 32 32 24.9045 32 16.068C31.6032 7.0959 24.5648 0 15.8016 0Z" fill="#111827"/>
</svg>
