<svg width="24" height="24" viewBox="0 0 24 24" fill="none" xmlns="http://www.w3.org/2000/svg">
<path d="M20.3361 3.22101L3.8731 8.71001C3.80569 8.73243 3.7467 8.77483 3.70397 8.83157C3.66123 8.88831 3.63677 8.95672 3.63384 9.02769C3.63091 9.09867 3.64965 9.16886 3.68756 9.22893C3.72547 9.289 3.78077 9.33612 3.8461 9.36401L9.8961 11.957C9.9278 11.9707 9.96252 11.976 9.99687 11.9723C10.0312 11.9687 10.064 11.9561 10.0921 11.936L16.0231 7.69801C16.2071 7.56801 16.4331 7.79401 16.3031 7.97801L12.0651 13.909C12.0453 13.9371 12.0331 13.9697 12.0296 14.0039C12.0261 14.038 12.0314 14.0725 12.0451 14.104L14.6371 20.154C14.6649 20.2194 14.7119 20.2747 14.7719 20.3127C14.832 20.3507 14.9021 20.3696 14.9731 20.3667C15.044 20.3639 15.1125 20.3396 15.1693 20.2969C15.2261 20.2543 15.2686 20.1954 15.2911 20.128L20.7801 3.66401C20.8008 3.6023 20.8038 3.53606 20.7889 3.47271C20.774 3.40937 20.7417 3.35144 20.6957 3.30542C20.6497 3.25941 20.5917 3.22713 20.5284 3.21222C20.4651 3.19731 20.3978 3.20036 20.3361 3.22101Z" fill="white"/>
</svg>
