<svg width="56" height="56" viewBox="0 0 56 56" fill="none" xmlns="http://www.w3.org/2000/svg">
<path d="M28.0087 41.9983C25.9202 42.0294 23.8463 41.6449 21.9077 40.8672C19.9692 40.0895 18.2046 38.934 16.7166 37.4681C15.2287 36.0022 14.0471 34.255 13.2405 32.3282C12.434 30.4014 12.0187 28.3335 12.0187 26.2448C12.0187 24.156 12.434 22.0881 13.2405 20.1613C14.0471 18.2345 15.2287 16.4873 16.7166 15.0214C18.2046 13.5555 19.9692 12.4 21.9077 11.6223C23.8463 10.8446 25.9202 10.4601 28.0087 10.4913C30.0973 10.4601 32.1712 10.8446 34.1098 11.6223C36.0483 12.4 37.8129 13.5555 39.3009 15.0214C40.7888 16.4873 41.9704 18.2345 42.777 20.1613C43.5835 22.0881 43.9988 24.156 43.9988 26.2448C43.9988 28.3335 43.5835 30.4014 42.777 32.3282C41.9704 34.255 40.7888 36.0022 39.3009 37.4681C37.8129 38.934 36.0483 40.0895 34.1098 40.8672C32.1712 41.6449 30.0973 42.0294 28.0087 41.9983ZM28.0087 33.2465C28.9712 33.2465 29.7587 32.4765 29.7587 31.4965V20.993C29.7587 20.0305 28.9712 19.243 28.0087 19.243C27.0462 19.243 26.2587 20.0305 26.2587 20.993V31.4965C26.2587 32.459 27.0462 33.2465 28.0087 33.2465ZM29.7587 13.993C29.7587 13.5289 29.5744 13.0838 29.2462 12.7556C28.918 12.4274 28.4729 12.243 28.0087 12.243C27.5446 12.243 27.0995 12.4274 26.7713 12.7556C26.4431 13.0838 26.2587 13.5289 26.2587 13.993C26.2587 14.4571 26.4431 14.9023 26.7713 15.2304C27.0995 15.5586 27.5446 15.743 28.0087 15.743C28.4729 15.743 28.918 15.5586 29.2462 15.2304C29.5744 14.9023 29.7587 14.4571 29.7587 13.993ZM28.0087 40.2483C28.4729 40.2483 28.918 40.0639 29.2462 39.7357C29.5744 39.4075 29.7587 38.9624 29.7587 38.4983C29.7587 38.0341 29.5744 37.589 29.2462 37.2608C28.918 36.9326 28.4729 36.7483 28.0087 36.7483C27.5446 36.7483 27.0995 36.9326 26.7713 37.2608C26.4431 37.589 26.2587 38.0341 26.2587 38.4983C26.2587 38.9624 26.4431 39.4075 26.7713 39.7357C27.0995 40.0639 27.5446 40.2483 28.0087 40.2483ZM38.4247 17.598C38.4247 17.1339 38.2404 16.6888 37.9122 16.3606C37.584 16.0324 37.1389 15.848 36.6747 15.848C36.2106 15.848 35.7655 16.0324 35.4373 16.3606C35.1091 16.6888 34.9247 17.1339 34.9247 17.598C34.9247 18.0621 35.1091 18.5072 35.4373 18.8354C35.7655 19.1636 36.2106 19.348 36.6747 19.348C37.1389 19.348 37.584 19.1636 37.9122 18.8354C38.2404 18.5072 38.4247 18.0621 38.4247 17.598ZM19.3427 36.659C19.8069 36.659 20.252 36.4746 20.5802 36.1464C20.9084 35.8183 21.0927 35.3731 21.0927 34.909C21.0927 34.4449 20.9084 33.9998 20.5802 33.6716C20.252 33.3434 19.8069 33.159 19.3427 33.159C18.8786 33.159 18.4335 33.3434 18.1053 33.6716C17.7771 33.9998 17.5927 34.4449 17.5927 34.909C17.5927 35.3731 17.7771 35.8183 18.1053 36.1464C18.4335 36.4746 18.8786 36.659 19.3427 36.659ZM41.825 25.473C41.7238 25.2666 41.5829 25.0822 41.4104 24.9303C41.2379 24.7784 41.0371 24.6619 40.8196 24.5876C40.6021 24.5132 40.3721 24.4824 40.1427 24.497C39.9133 24.5116 39.689 24.5711 39.4826 24.6724C39.2763 24.7736 39.0918 24.9145 38.9399 25.087C38.788 25.2595 38.6715 25.4602 38.5972 25.6778C38.5228 25.8953 38.4921 26.1253 38.5066 26.3547C38.5212 26.5841 38.5808 26.8084 38.682 27.0148C38.8864 27.4315 39.2481 27.75 39.6874 27.9002C40.1267 28.0503 40.6076 28.0198 41.0244 27.8154C41.4412 27.6109 41.7597 27.2493 41.9098 26.81C42.06 26.3707 42.0294 25.8898 41.825 25.473ZM16.5165 27.8145C16.9333 27.6103 17.2519 27.2489 17.4022 26.8097C17.5525 26.3706 17.5222 25.8898 17.318 25.473C17.2169 25.2666 17.0761 25.0822 16.9037 24.9302C16.7313 24.7783 16.5307 24.6617 16.3132 24.5873C15.8741 24.437 15.3933 24.4673 14.9765 24.6715C14.5597 24.8757 14.2411 25.2371 14.0908 25.6763C13.9405 26.1154 13.9708 26.5962 14.175 27.013C14.3792 27.4298 14.7406 27.7484 15.1797 27.8987C15.6189 28.049 16.0997 28.0187 16.5165 27.8145ZM37.2225 33.257C37.005 33.1827 36.7749 33.1519 36.5455 33.1664C36.3161 33.181 36.0918 33.2406 35.8854 33.3418C35.6791 33.4431 35.4947 33.584 35.3427 33.7565C35.1908 33.929 35.0743 34.1297 35 34.3473C34.9257 34.5648 34.8949 34.7948 34.9094 35.0242C34.924 35.2536 34.9836 35.4779 35.0848 35.6843C35.1861 35.8907 35.327 36.0751 35.4995 36.227C35.672 36.3789 35.8727 36.4954 36.0902 36.5698C36.5295 36.7199 37.0105 36.6894 37.4273 36.4849C37.8441 36.2805 38.1626 35.9188 38.3127 35.4795C38.4629 35.0402 38.4324 34.5593 38.2279 34.1425C38.0235 33.7257 37.6618 33.4071 37.2225 33.257ZM21 18.158C21.1504 17.7187 21.1201 17.2377 20.9158 16.8207C20.7115 16.4037 20.3499 16.085 19.9106 15.9346C19.4713 15.7843 18.9903 15.8145 18.5733 16.0188C18.1564 16.2231 17.8376 16.5847 17.6872 17.024C17.6128 17.2415 17.5819 17.4716 17.5963 17.701C17.6108 17.9305 17.6703 18.1548 17.7715 18.3613C17.8726 18.5678 18.0134 18.7523 18.1859 18.9043C18.3584 19.0563 18.5591 19.1729 18.7766 19.2474C19.2159 19.3978 19.697 19.3675 20.1139 19.1632C20.5309 18.9589 20.8496 18.5973 21 18.158Z" fill="#3B82F6"/>
<path d="M26.9062 3.52626C14.6685 4.10376 5.25 14.6388 5.25 26.8923V47.04C5.25 50.05 7.7 52.5 10.7117 52.5H45.29C48.2982 52.5 50.75 50.05 50.75 47.04V26.243C50.7675 13.3263 39.9665 2.91201 26.9062 3.52451M28.0087 45.4965C17.374 45.5 8.75175 36.8778 8.75175 26.2448C8.75 15.6118 17.374 6.99126 28.0087 6.99126C38.6452 6.99126 47.2658 15.6118 47.2658 26.2448C47.2675 36.8778 38.6435 45.5 28.0087 45.5" fill="#3B82F6"/>
</svg>
