<svg width="32" height="32" viewBox="0 0 32 32" fill="none" xmlns="http://www.w3.org/2000/svg">
<g clip-path="url(#clip0_85_2092)">
<path fill-rule="evenodd" clip-rule="evenodd" d="M16 2.66663C23.364 2.66663 29.3333 8.63596 29.3333 16C29.3379 19.0771 28.2737 22.0604 26.3226 24.44L26.3493 24.4693L26.1733 24.6186C24.9228 26.0975 23.3646 27.2855 21.6075 28.0998C19.8503 28.9141 17.9366 29.3351 16 29.3333C12.0666 29.3333 8.53331 27.6306 6.09331 24.924L5.82664 24.6173L5.65064 24.4706L5.67731 24.4386C3.72651 22.0594 2.66236 19.0767 2.66664 16C2.66664 8.63596 8.63597 2.66663 16 2.66663ZM16 22.6666C13.52 22.6666 11.2786 23.456 9.60931 24.5413C11.4528 25.9239 13.6957 26.6698 16 26.6666C18.3043 26.6698 20.5472 25.9239 22.3906 24.5413C20.483 23.3192 18.2655 22.6687 16 22.6666ZM16 5.33329C13.9927 5.33324 12.0261 5.89958 10.3263 6.96723C8.62645 8.03487 7.26238 9.56049 6.39085 11.3687C5.51933 13.177 5.17571 15.1944 5.39951 17.1892C5.6233 19.184 6.40542 21.0751 7.65597 22.6453C9.81731 21.0946 12.7666 20 16 20C19.2333 20 22.1826 21.0946 24.344 22.6453C25.5945 21.0751 26.3766 19.184 26.6004 17.1892C26.8242 15.1944 26.4806 13.177 25.6091 11.3687C24.7376 9.56049 23.3735 8.03487 21.6737 6.96723C19.9739 5.89958 18.0073 5.33324 16 5.33329ZM16 7.99996C17.4145 7.99996 18.771 8.56186 19.7712 9.56206C20.7714 10.5623 21.3333 11.9188 21.3333 13.3333C21.3333 14.7478 20.7714 16.1043 19.7712 17.1045C18.771 18.1047 17.4145 18.6666 16 18.6666C14.5855 18.6666 13.2289 18.1047 12.2287 17.1045C11.2285 16.1043 10.6666 14.7478 10.6666 13.3333C10.6666 11.9188 11.2285 10.5623 12.2287 9.56206C13.2289 8.56186 14.5855 7.99996 16 7.99996ZM16 10.6666C15.2927 10.6666 14.6145 10.9476 14.1144 11.4477C13.6143 11.9478 13.3333 12.626 13.3333 13.3333C13.3333 14.0405 13.6143 14.7188 14.1144 15.2189C14.6145 15.719 15.2927 16 16 16C16.7072 16 17.3855 15.719 17.8856 15.2189C18.3857 14.7188 18.6666 14.0405 18.6666 13.3333C18.6666 12.626 18.3857 11.9478 17.8856 11.4477C17.3855 10.9476 16.7072 10.6666 16 10.6666Z" fill="white"/>
</g>
<defs>
<clipPath id="clip0_85_2092">
<rect width="32" height="32" fill="white"/>
</clipPath>
</defs>
</svg>
